<?xml version="1.0" encoding="UTF-8"?>
<svg width="114px" height="117px" viewBox="0 0 114 117" version="1.1" xmlns="http://www.w3.org/2000/svg" xmlns:xlink="http://www.w3.org/1999/xlink">
    <!-- Generator: Sketch 58 (84663) - https://sketch.com -->
    <title>U_by_Emmaar</title>
    <desc>Created with Sketch.</desc>
    <g id="C19---Clients" stroke="none" stroke-width="1" fill="none" fill-rule="evenodd">
        <g id="C19---Clients---Dark---Desktop" transform="translate(-236.000000, -788.000000)" fill="#FFFFFF" fill-rule="nonzero">
            <g id="U_by_Emmaar">
                <g transform="translate(236.000000, 788.000000)">
                    <path d="M32.4683544,114.402439 C32.4683544,113.682927 31.8911392,112.963415 31.1696203,112.963415 C31.1696203,112.963415 31.1696203,112.963415 31.1696203,112.963415 L29.5822785,112.963415 C29.2936709,112.963415 29.1493671,112.819512 29.1493671,112.531707 C29.1493671,112.243902 29.2936709,112.1 29.5822785,112.1 L30.8810127,112.1 C31.6025316,112.1 32.035443,111.52439 32.035443,110.94878 C32.035443,110.373171 31.4582278,109.797561 30.8810127,109.797561 C30.8810127,109.797561 30.8810127,109.797561 30.8810127,109.797561 L28.8607595,109.797561 L28.8607595,115.841463 L31.0253165,115.841463 C31.7468354,115.841463 32.4683544,115.265854 32.4683544,114.402439 C32.4683544,114.402439 32.4683544,114.402439 32.4683544,114.402439 M31.1696203,116.704878 L28.5721519,116.704878 C28.2835443,116.704878 28.1392405,116.560976 28.1392405,116.273171 C28.1392405,116.273171 28.1392405,116.273171 28.1392405,116.273171 L28.1392405,109.365854 C28.1392405,109.078049 28.2835443,108.934146 28.5721519,108.934146 C28.5721519,108.934146 28.5721519,108.934146 28.5721519,108.934146 L30.8810127,108.934146 C32.035443,108.934146 32.9012658,109.797561 32.9012658,110.94878 C32.9012658,111.52439 32.6126582,111.956098 32.3240506,112.387805 C33.0455696,112.819512 33.478481,113.539024 33.478481,114.402439 C33.3341772,115.553659 32.3240506,116.560976 31.1696203,116.704878" id="Shape"></path>
                    <path d="M41.5594937,109.078049 C41.7037975,109.221951 41.7037975,109.509756 41.7037975,109.653659 C40.9822785,110.660976 40.1164557,111.668293 39.3949367,112.819512 L39.3949367,116.417073 C39.3949367,116.704878 39.2506329,116.84878 38.9620253,116.84878 C38.6734177,116.84878 38.5291139,116.704878 38.5291139,116.417073 L38.5291139,112.963415 C37.8075949,111.956098 36.9417722,110.94878 36.2202532,109.797561 C36.0759494,109.653659 36.0759494,109.365854 36.364557,109.221951 C36.5088608,109.078049 36.7974684,109.078049 36.9417722,109.221951 C36.9417722,109.221951 36.9417722,109.221951 36.9417722,109.221951 L38.9620253,111.956098 L40.9822785,109.221951 C41.1265823,108.934146 41.2708861,108.934146 41.5594937,109.078049 C41.5594937,109.078049 41.5594937,109.078049 41.5594937,109.078049 L41.5594937,109.078049 Z" id="Path"></path>
                    <path d="M53.1037975,116.273171 C53.1037975,116.560976 52.9594937,116.704878 52.6708861,116.704878 L48.6303797,116.704878 C48.3417722,116.704878 48.1974684,116.560976 48.1974684,116.273171 L48.1974684,109.365854 C48.1974684,109.078049 48.3417722,108.934146 48.6303797,108.934146 C48.6303797,108.934146 48.6303797,108.934146 48.6303797,108.934146 L52.6708861,108.934146 C52.9594937,108.934146 53.1037975,109.078049 53.1037975,109.365854 C53.1037975,109.365854 53.1037975,109.365854 53.1037975,109.365854 C53.1037975,109.653659 52.9594937,109.797561 52.6708861,109.797561 C52.6708861,109.797561 52.6708861,109.797561 52.6708861,109.797561 L49.0632911,109.797561 L49.0632911,112.1 L52.3822785,112.1 C52.6708861,112.1 52.8151899,112.243902 52.8151899,112.531707 C52.8151899,112.531707 52.8151899,112.531707 52.8151899,112.531707 C52.8151899,112.819512 52.6708861,112.963415 52.3822785,112.963415 L49.0632911,112.963415 L49.0632911,115.697561 L52.6708861,115.697561 C52.9594937,115.841463 53.1037975,115.985366 53.1037975,116.273171 C53.1037975,116.273171 53.1037975,116.273171 53.1037975,116.273171" id="Path"></path>
                    <path d="M61.7620253,116.273171 C61.6177215,114.402439 61.6177215,113.395122 61.6177215,111.380488 C61.0405063,113.107317 60.3189873,114.690244 59.5974684,116.273171 L59.5974684,116.273171 C59.5974684,116.417073 59.4531646,116.560976 59.164557,116.560976 C59.0202532,116.560976 58.8759494,116.417073 58.7316456,116.273171 L56.7113924,111.236585 C56.5670886,112.819512 56.5670886,114.402439 56.5670886,116.129268 C56.5670886,116.417073 56.278481,116.560976 56.1341772,116.560976 C55.9898734,116.560976 55.7012658,116.273171 55.7012658,116.129268 C55.8455696,113.826829 55.8455696,111.52439 55.9898734,109.221951 C55.9898734,108.934146 56.1341772,108.790244 56.4227848,108.790244 C56.5670886,108.790244 56.8556962,108.934146 56.8556962,109.078049 C57.721519,111.092683 58.2987342,112.819512 59.164557,114.978049 L61.4734177,109.078049 C61.6177215,108.934146 61.7620253,108.790244 61.9063291,108.790244 C62.0506329,108.790244 62.1949367,108.934146 62.1949367,109.221951 C62.3392405,111.380488 62.3392405,113.826829 62.4835443,116.129268 C62.4835443,116.417073 62.3392405,116.560976 62.0506329,116.560976 L62.0506329,116.560976 C61.9063291,116.704878 61.7620253,116.560976 61.7620253,116.273171" id="Path"></path>
                    <path d="M69.121519,112.819512 C68.8329114,111.956098 68.6886076,111.668293 68.4,110.660976 C68.1113924,111.380488 67.9670886,111.956098 67.678481,112.819512 L69.121519,112.819512 Z M71.1417722,116.129268 C71.2860759,116.417073 71.1417722,116.560976 70.8531646,116.704878 C70.8531646,116.704878 70.7088608,116.704878 70.7088608,116.704878 C70.564557,116.704878 70.2759494,116.560976 70.2759494,116.417073 L70.2759494,116.417073 C69.9873418,115.409756 69.6987342,114.690244 69.4101266,113.682927 L67.5341772,113.682927 C67.2455696,114.546341 66.956962,115.553659 66.6683544,116.417073 C66.5240506,116.560976 66.3797468,116.704878 66.0911392,116.704878 C65.8025316,116.704878 65.8025316,116.417073 65.8025316,116.129268 C65.8025316,116.129268 65.8025316,116.129268 65.8025316,116.129268 L68.1113924,109.221951 C68.1113924,109.078049 68.2556962,108.934146 68.5443038,108.934146 C68.6886076,108.934146 68.8329114,109.078049 68.9772152,109.221951 C69.5544304,111.52439 70.2759494,113.826829 71.1417722,116.129268 L71.1417722,116.129268 L71.1417722,116.129268 L71.1417722,116.129268 Z" id="Shape"></path>
                    <path d="M76.9139241,112.819512 C76.6253165,111.956098 76.4810127,111.668293 76.1924051,110.660976 C75.9037975,111.380488 75.7594937,111.956098 75.4708861,112.819512 L76.9139241,112.819512 Z M78.7898734,116.129268 C78.9341772,116.417073 78.7898734,116.560976 78.5012658,116.704878 C78.5012658,116.704878 78.5012658,116.704878 78.356962,116.704878 C78.2126582,116.704878 77.9240506,116.560976 77.9240506,116.417073 L77.9240506,116.417073 C77.635443,115.409756 77.3468354,114.690244 77.0582278,113.682927 L75.0379747,113.682927 C74.7493671,114.546341 74.4607595,115.553659 74.1721519,116.417073 C74.0278481,116.560976 73.8835443,116.704878 73.5949367,116.704878 C73.3063291,116.704878 73.3063291,116.417073 73.3063291,116.129268 C73.3063291,116.129268 73.3063291,116.129268 73.3063291,116.129268 L75.6151899,109.221951 C75.6151899,108.934146 75.9037975,108.934146 76.1924051,108.934146 C76.3367089,108.934146 76.4810127,109.078049 76.4810127,109.221951 C77.3468354,111.52439 78.0683544,113.826829 78.7898734,116.129268 L78.7898734,116.129268 L78.7898734,116.129268 L78.7898734,116.129268 Z" id="Shape"></path>
                    <path d="M85.7164557,116.560976 L85.7164557,116.560976 C84.5620253,115.409756 83.5518987,114.114634 82.3974684,112.963415 C82.2531646,112.819512 82.2531646,112.67561 82.3974684,112.531707 C82.3974684,112.387805 82.5417722,112.243902 82.8303797,112.243902 L84.1291139,112.243902 C84.8506329,112.243902 85.2835443,111.668293 85.2835443,111.092683 C85.2835443,111.092683 85.2835443,111.092683 85.2835443,111.092683 C85.2835443,110.517073 84.7063291,109.941463 84.1291139,109.941463 C84.1291139,109.941463 84.1291139,109.941463 84.1291139,109.941463 L82.2531646,109.941463 L82.2531646,116.417073 C82.2531646,116.704878 82.1088608,116.84878 81.8202532,116.84878 C81.5316456,116.84878 81.3873418,116.704878 81.3873418,116.417073 C81.3873418,116.417073 81.3873418,116.417073 81.3873418,116.417073 L81.3873418,109.365854 C81.3873418,109.078049 81.5316456,108.934146 81.8202532,108.934146 C81.8202532,108.934146 81.8202532,108.934146 81.8202532,108.934146 L84.1291139,108.934146 C85.2835443,108.934146 86.1493671,109.941463 86.1493671,111.092683 C86.1493671,112.1 85.2835443,112.963415 84.1291139,113.107317 L83.6962025,113.107317 C84.5620253,114.114634 85.4278481,115.121951 86.4379747,116.129268 C86.5822785,116.273171 86.5822785,116.560976 86.4379747,116.704878 C86.2936709,116.704878 86.2936709,116.84878 86.1493671,116.84878 C85.8607595,116.704878 85.7164557,116.560976 85.7164557,116.560976" id="Path"></path>
                    <path d="M28.1392405,102.746341 C27.9949367,102.746341 27.9949367,102.602439 28.1392405,102.746341 C27.9949367,102.602439 27.9949367,102.602439 28.1392405,102.746341 L27.9949367,102.026829 C27.9949367,101.882927 27.9949367,101.882927 28.1392405,101.882927 L28.4278481,101.882927 C29.0050633,101.882927 29.2936709,101.595122 29.2936709,100.87561 L29.2936709,95.9829268 C29.2936709,95.8390244 29.2936709,95.8390244 29.4379747,95.8390244 L30.1594937,95.8390244 C30.3037975,95.8390244 30.3037975,95.8390244 30.3037975,95.9829268 L30.3037975,100.87561 C30.3037975,101.307317 30.1594937,101.882927 29.8708861,102.314634 C29.4379747,102.602439 29.0050633,102.746341 28.4278481,102.746341 L28.1392405,102.746341 Z" id="Path"></path>
                    <path d="M31.7468354,92.9609756 C31.7468354,92.8170732 31.7468354,92.8170732 31.7468354,92.9609756 C31.8911392,92.8170732 31.8911392,92.8170732 31.7468354,92.9609756 L32.6126582,92.8170732 C32.6126582,92.8170732 32.756962,92.8170732 32.756962,92.9609756 C32.756962,92.9609756 32.756962,92.9609756 32.756962,92.9609756 L32.756962,99.004878 C32.756962,99.1487805 32.756962,99.2926829 32.9012658,99.4365854 C33.0455696,99.5804878 33.1898734,99.5804878 33.3341772,99.5804878 L43.1468354,99.5804878 C43.435443,99.5804878 43.5797468,99.7243902 43.5797468,99.8682927 C43.5797468,99.8682927 43.5797468,100.012195 43.5797468,100.012195 C43.5797468,100.156098 43.5797468,100.3 43.435443,100.3 C43.2911392,100.3 43.1468354,100.443902 43.1468354,100.443902 L33.1898734,100.443902 C32.756962,100.443902 32.4683544,100.3 32.1797468,100.156098 C31.7468354,99.8682927 31.7468354,99.4365854 31.7468354,99.004878 L31.7468354,92.9609756 Z" id="Path"></path>
                    <path d="M46.4658228,96.5585366 C46.1772152,96.5585366 45.7443038,96.702439 45.6,96.9902439 C45.4556962,97.2780488 45.3113924,97.7097561 45.3113924,98.1414634 C45.3113924,98.5731707 45.3113924,99.004878 45.6,99.2926829 C45.8886076,99.5804878 46.1772152,99.7243902 46.4658228,99.7243902 C46.7544304,99.7243902 47.1873418,99.5804878 47.3316456,99.2926829 C47.6202532,99.004878 47.6202532,98.5731707 47.6202532,98.1414634 C47.6202532,97.7097561 47.4759494,97.2780488 47.3316456,96.9902439 C47.043038,96.702439 46.7544304,96.4146341 46.4658228,96.5585366 M46.4658228,100.587805 C46.1772152,100.587805 45.8886076,100.587805 45.4556962,100.443902 C45.1670886,100.3 45.0227848,100.156098 44.7341772,100.012195 C44.5898734,100.3 44.4455696,100.443902 44.156962,100.443902 C43.8683544,100.443902 43.7240506,100.587805 43.435443,100.587805 L43.0025316,100.587805 C42.7139241,100.587805 33.3341772,100.443902 33.3341772,100.156098 C33.3341772,100.012195 33.3341772,99.8682927 33.478481,99.8682927 C33.478481,99.8682927 42.8582278,99.8682927 43.1468354,99.8682927 L43.7240506,99.8682927 C43.8683544,99.8682927 44.0126582,99.7243902 44.156962,99.5804878 C44.3012658,99.4365854 44.3012658,99.4365854 44.3012658,99.2926829 C44.3012658,99.1487805 44.3012658,99.004878 44.3012658,98.8609756 C44.3012658,98.7170732 44.3012658,98.7170732 44.3012658,98.5731707 L44.3012658,98.2853659 C44.3012658,97.5658537 44.4455696,96.9902439 44.878481,96.4146341 C45.7443038,95.695122 47.1873418,95.695122 48.0531646,96.4146341 C48.4860759,96.9902439 48.6303797,97.5658537 48.6303797,98.2853659 C48.6303797,98.4292683 48.6303797,98.4292683 48.6303797,98.5731707 C48.6303797,98.7170732 48.6303797,98.7170732 48.6303797,98.8609756 C48.6303797,99.1487805 48.6303797,99.4365854 48.9189873,99.5804878 C49.0632911,99.7243902 49.2075949,99.7243902 49.3518987,99.7243902 L49.6405063,99.7243902 C49.7848101,99.7243902 56.5670886,99.7243902 56.5670886,99.8682927 C56.7113924,100.012195 56.7113924,100.012195 56.7113924,100.156098 C56.7113924,100.3 56.7113924,100.443902 56.5670886,100.587805 C56.5670886,100.587805 49.7848101,100.731707 49.6405063,100.731707 L49.3518987,100.731707 L49.0632911,100.731707 C48.9189873,100.731707 48.7746835,100.731707 48.7746835,100.587805 C48.6303797,100.587805 48.4860759,100.443902 48.4860759,100.443902 C48.3417722,100.3 48.3417722,100.3 48.1974684,100.156098 C48.0531646,100.3 47.764557,100.587805 47.4759494,100.587805 C47.043038,100.443902 46.7544304,100.587805 46.4658228,100.587805" id="Shape"></path>
                    <path d="M61.3291139,99.5804878 C61.4734177,99.5804878 61.4734177,99.5804878 61.3291139,99.5804878 C61.4734177,99.7243902 61.4734177,99.7243902 61.3291139,99.5804878 L61.4734177,100.3 C61.4734177,100.3 61.4734177,100.443902 61.3291139,100.443902 C61.3291139,100.443902 61.3291139,100.443902 61.3291139,100.443902 L49.4962025,100.443902 C49.2075949,100.443902 49.0632911,100.3 49.0632911,100.156098 C49.0632911,100.156098 49.0632911,100.012195 49.0632911,100.012195 C49.0632911,99.8682927 49.0632911,99.7243902 49.2075949,99.7243902 C49.3518987,99.7243902 49.4962025,99.5804878 49.4962025,99.7243902 L57.4329114,99.7243902 C57.2886076,99.5804878 57.1443038,99.2926829 57,99.004878 C56.8556962,98.7170732 56.8556962,98.4292683 56.8556962,97.997561 C56.8556962,97.7097561 56.8556962,97.4219512 57,97.2780488 C57,96.9902439 57.1443038,96.702439 57.4329114,96.5585366 C57.5772152,96.2707317 57.8658228,96.1268293 58.1544304,95.9829268 C58.5873418,95.8390244 58.8759494,95.695122 59.3088608,95.695122 C59.7417722,95.695122 60.0303797,95.8390244 60.4632911,95.9829268 C60.7518987,96.1268293 61.0405063,96.4146341 61.1848101,96.702439 C61.1848101,96.702439 61.1848101,96.8463415 61.1848101,96.8463415 C61.1848101,96.8463415 61.1848101,96.8463415 61.1848101,96.8463415 L60.6075949,97.1341463 C60.6075949,97.1341463 60.4632911,97.1341463 60.4632911,97.1341463 C60.4632911,97.1341463 60.4632911,97.1341463 60.4632911,97.1341463 C60.1746835,96.702439 59.7417722,96.5585366 59.164557,96.5585366 C58.7316456,96.5585366 58.443038,96.702439 58.1544304,96.9902439 C57.8658228,97.2780488 57.8658228,97.5658537 57.8658228,97.997561 C57.8658228,98.2853659 57.8658228,98.4292683 58.0101266,98.7170732 C58.1544304,98.8609756 58.1544304,99.004878 58.2987342,99.1487805 C58.443038,99.2926829 58.5873418,99.2926829 58.5873418,99.4365854 C58.7316456,99.4365854 58.7316456,99.5804878 58.8759494,99.5804878 L61.3291139,99.5804878 Z" id="Path"></path>
                    <path d="M63.7822785,100.3 C63.7822785,100.443902 63.6379747,100.443902 63.7822785,100.3 C63.6379747,100.443902 63.6379747,100.443902 63.7822785,100.3 L62.9164557,100.443902 C62.7721519,100.443902 62.7721519,100.443902 62.7721519,100.3 L62.7721519,92.8170732 C62.7721519,92.6731707 62.7721519,92.6731707 62.9164557,92.6731707 L63.6379747,92.6731707 C63.6379747,92.6731707 63.7822785,92.6731707 63.7822785,92.8170732 C63.7822785,92.8170732 63.7822785,92.8170732 63.7822785,92.8170732 L63.7822785,100.3 Z M62.4835443,103.034146 C62.4835443,102.890244 62.3392405,102.890244 62.3392405,102.746341 C62.3392405,102.602439 62.3392405,102.458537 62.3392405,102.314634 C62.3392405,102.170732 62.3392405,102.026829 62.3392405,101.882927 C62.3392405,101.739024 62.4835443,101.595122 62.4835443,101.45122 C62.6278481,101.307317 62.7721519,101.307317 62.7721519,101.163415 C62.9164557,101.019512 63.0607595,101.019512 63.3493671,101.019512 C63.4936709,101.019512 63.7822785,101.019512 63.9265823,101.163415 C64.0708861,101.163415 64.2151899,101.307317 64.3594937,101.45122 C64.3594937,101.45122 64.3594937,101.595122 64.3594937,101.595122 L64.0708861,101.739024 C64.0708861,101.739024 63.9265823,101.739024 63.9265823,101.739024 C63.9265823,101.595122 63.7822785,101.595122 63.6379747,101.595122 C63.4936709,101.595122 63.4936709,101.45122 63.3493671,101.45122 C63.2050633,101.45122 63.0607595,101.45122 62.9164557,101.595122 C62.7721519,101.739024 62.7721519,101.882927 62.7721519,102.026829 C62.7721519,102.170732 62.7721519,102.314634 62.9164557,102.458537 C62.9164557,102.602439 63.0607595,102.602439 63.2050633,102.746341 L64.3594937,102.746341 C64.3594937,102.746341 64.3594937,102.746341 64.3594937,102.890244 L64.3594937,103.178049 C64.3594937,103.178049 64.3594937,103.321951 64.3594937,103.321951 L62.0506329,103.321951 C62.0506329,103.321951 62.0506329,103.321951 62.0506329,103.178049 L62.0506329,102.890244 C62.0506329,102.890244 62.0506329,102.746341 62.0506329,102.746341 L62.4835443,103.034146 Z" id="Shape"></path>
                    <path d="M71.7189873,96.5585366 C71.7189873,96.5585366 71.5746835,96.4146341 71.7189873,96.5585366 L71.5746835,95.695122 C71.5746835,95.5512195 71.5746835,95.5512195 71.7189873,95.5512195 L72.4405063,95.5512195 C72.5848101,95.5512195 72.5848101,95.5512195 72.5848101,95.695122 L72.5848101,96.4146341 C72.5848101,96.5585366 72.5848101,96.5585366 72.4405063,96.5585366 L71.7189873,96.5585366 Z M69.843038,97.8536585 C69.843038,97.8536585 69.9873418,97.8536585 69.9873418,97.8536585 L70.564557,98.1414634 C70.564557,98.1414634 70.564557,98.2853659 70.564557,98.2853659 C70.564557,98.2853659 70.564557,98.2853659 70.564557,98.2853659 C70.4202532,98.5731707 70.2759494,98.8609756 70.1316456,99.004878 C69.9873418,99.2926829 69.9873418,99.5804878 69.9873418,100.012195 C69.9873418,100.3 69.9873418,100.587805 70.1316456,100.87561 C70.2759494,101.019512 70.4202532,101.307317 70.564557,101.307317 C70.7088608,101.45122 70.9974684,101.45122 71.1417722,101.595122 C71.2860759,101.595122 71.5746835,101.739024 71.7189873,101.739024 C72.1518987,101.739024 72.5848101,101.595122 72.8734177,101.307317 C73.1620253,101.019512 73.3063291,100.587805 73.3063291,100.156098 L73.3063291,96.8463415 C73.3063291,96.8463415 73.3063291,96.702439 73.4506329,96.702439 C73.4506329,96.702439 73.4506329,96.702439 73.4506329,96.702439 L74.1721519,96.702439 C74.3164557,96.702439 74.3164557,96.702439 74.3164557,96.8463415 L74.3164557,98.7170732 C74.3164557,99.004878 74.4607595,99.1487805 74.6050633,99.2926829 C74.8936709,99.4365854 75.0379747,99.4365854 75.3265823,99.4365854 L75.3265823,99.4365854 C75.9037975,99.4365854 76.4810127,99.4365854 76.9139241,99.5804878 C77.0582278,99.5804878 80.9544304,99.7243902 80.9544304,99.8682927 C80.9544304,100.012195 76.9139241,100.156098 76.9139241,100.3 C76.3367089,100.3 75.7594937,100.443902 75.1822785,100.443902 L75.0379747,100.443902 C74.7493671,100.443902 74.3164557,100.3 74.1721519,100.012195 L74.1721519,100.156098 C74.1721519,100.87561 74.0278481,101.45122 73.4506329,102.026829 C72.8734177,102.458537 72.1518987,102.746341 71.4303797,102.746341 C70.9974684,102.746341 70.7088608,102.746341 70.2759494,102.602439 C69.9873418,102.458537 69.6987342,102.314634 69.4101266,102.170732 C69.121519,101.882927 68.9772152,101.739024 68.8329114,101.45122 C68.6886076,101.163415 68.6886076,100.731707 68.6886076,100.443902 C68.6886076,100.012195 68.8329114,99.5804878 68.9772152,99.1487805 C69.4101266,98.5731707 69.5544304,98.2853659 69.843038,97.8536585 L69.843038,97.8536585 Z" id="Shape"></path>
                    <path d="M84.1291139,96.5585366 C83.8405063,96.5585366 83.4075949,96.702439 83.2632911,96.9902439 C83.1189873,97.2780488 82.9746835,97.7097561 82.9746835,98.1414634 C82.9746835,98.5731707 82.9746835,99.004878 83.2632911,99.2926829 C83.5518987,99.5804878 83.8405063,99.7243902 84.1291139,99.7243902 C84.4177215,99.7243902 84.8506329,99.5804878 84.9949367,99.2926829 C85.2835443,99.004878 85.2835443,98.5731707 85.2835443,98.1414634 C85.2835443,97.7097561 85.1392405,97.2780488 84.9949367,96.9902439 C84.8506329,96.702439 84.5620253,96.4146341 84.1291139,96.5585366 M84.1291139,100.587805 C83.8405063,100.587805 83.5518987,100.587805 83.2632911,100.443902 C82.9746835,100.3 82.8303797,100.156098 82.5417722,100.012195 C82.3974684,100.3 82.2531646,100.443902 81.964557,100.443902 C81.6759494,100.443902 81.5316456,100.587805 81.243038,100.587805 L75.4708861,100.587805 C75.1822785,100.587805 75.0379747,100.443902 75.0379747,100.3 C75.0379747,100.3 75.0379747,100.156098 75.0379747,100.156098 C75.0379747,100.012195 75.0379747,99.8682927 75.1822785,99.8682927 C75.3265823,99.8682927 75.4708861,99.7243902 75.4708861,99.8682927 L81.243038,99.8682927 C81.3873418,99.8682927 81.3873418,99.8682927 81.5316456,99.8682927 C81.6759494,99.8682927 81.6759494,99.7243902 81.8202532,99.7243902 C81.964557,99.5804878 81.964557,99.5804878 81.964557,99.4365854 C81.964557,99.2926829 81.964557,99.1487805 81.964557,99.004878 C81.964557,98.8609756 81.964557,98.8609756 81.964557,98.7170732 L81.964557,98.4292683 C81.964557,97.7097561 82.1088608,97.1341463 82.5417722,96.5585366 C83.4075949,95.8390244 84.8506329,95.8390244 85.7164557,96.5585366 C86.1493671,97.1341463 86.2936709,97.7097561 86.2936709,98.4292683 C86.2936709,98.8609756 86.2936709,99.1487805 86.1493671,99.5804878 C86.0050633,99.8682927 85.8607595,100.156098 85.7164557,100.3 C85.5721519,100.443902 85.2835443,100.587805 84.9949367,100.731707 C84.7063291,100.443902 84.4177215,100.587805 84.1291139,100.587805" id="Shape"></path>
                    <path d="M81.5316456,78.5707317 C63.7822785,78.5707317 49.4962025,64.1804878 49.4962025,46.6243902 L49.4962025,0 L49.9291139,0 L49.9291139,46.6243902 C50.0734177,64.0365854 64.5037975,77.995122 81.964557,77.8512195 C99.1367089,77.7073171 112.989873,63.7487805 113.278481,46.6243902 L113.278481,0 L113.711392,0 L113.711392,46.6243902 C113.567089,64.3243902 99.2810127,78.5707317 81.5316456,78.5707317" id="Path"></path>
                    <path d="M76.6253165,78.5707317 C58.8759494,78.5707317 44.5898734,64.1804878 44.5898734,46.6243902 L44.5898734,0 L45.0227848,0 L45.0227848,46.6243902 C45.0227848,64.0365854 59.164557,78.1390244 76.6253165,78.1390244 C94.0860759,78.1390244 108.227848,64.0365854 108.227848,46.6243902 L108.227848,0 L108.660759,0 L108.660759,46.6243902 C108.660759,64.3243902 94.3746835,78.5707317 76.6253165,78.5707317" id="Path"></path>
                    <path d="M71.8632911,78.5707317 C54.1139241,78.5707317 39.8278481,64.1804878 39.8278481,46.6243902 L39.8278481,0 L40.2607595,0 L40.2607595,46.6243902 C40.2607595,64.0365854 54.4025316,78.1390244 71.8632911,78.1390244 C89.3240506,78.1390244 103.465823,64.0365854 103.465823,46.6243902 L103.465823,0 L103.898734,0 L103.898734,46.6243902 C103.75443,64.3243902 89.4683544,78.5707317 71.8632911,78.5707317" id="Path"></path>
                    <path d="M66.956962,78.5707317 C49.2075949,78.5707317 34.921519,64.3243902 34.921519,46.6243902 L34.921519,0 L35.3544304,0 L35.3544304,46.6243902 C35.3544304,64.0365854 49.4962025,78.1390244 66.956962,78.1390244 C84.4177215,78.1390244 98.5594937,64.0365854 98.5594937,46.6243902 L98.5594937,0 L98.9924051,0 L98.9924051,46.6243902 C98.9924051,64.3243902 84.5620253,78.5707317 66.956962,78.5707317" id="Path"></path>
                    <path d="M62.0506329,78.5707317 C44.3012658,78.5707317 30.0151899,64.3243902 30.0151899,46.6243902 L30.0151899,0 L30.4481013,0 L30.4481013,46.6243902 C30.5924051,64.0365854 45.0227848,77.995122 62.4835443,77.8512195 C79.6556962,77.7073171 93.5088608,63.7487805 93.7974684,46.6243902 L93.7974684,0 L94.2303797,0 L94.2303797,46.6243902 C94.0860759,64.3243902 79.8,78.5707317 62.0506329,78.5707317" id="Path"></path>
                    <path d="M57.1443038,78.5707317 C39.3949367,78.5707317 25.1088608,64.3243902 25.1088608,46.6243902 L25.1088608,0 L25.5417722,0 L25.5417722,46.6243902 C25.5417722,64.0365854 39.6835443,78.1390244 57.1443038,78.1390244 C74.6050633,78.1390244 88.7468354,64.0365854 88.7468354,46.6243902 L88.7468354,0 L89.1797468,0 L89.1797468,46.6243902 C89.1797468,64.3243902 74.8936709,78.5707317 57.1443038,78.5707317" id="Path"></path>
                    <path d="M52.3822785,78.5707317 C34.6329114,78.5707317 20.3468354,64.3243902 20.2025316,46.6243902 L20.2025316,0 L20.635443,0 L20.635443,46.6243902 C20.635443,64.0365854 34.7772152,78.1390244 52.2379747,78.1390244 C69.6987342,78.1390244 83.8405063,64.0365854 83.8405063,46.6243902 L83.8405063,0 L84.2734177,0 L84.2734177,46.6243902 C84.4177215,64.3243902 69.9873418,78.5707317 52.3822785,78.5707317" id="Path"></path>
                    <path d="M47.4759494,78.5707317 C29.7265823,78.5707317 15.4405063,64.3243902 15.4405063,46.6243902 L15.4405063,0 L15.8734177,0 L15.8734177,46.6243902 C15.8734177,64.0365854 30.0151899,78.1390244 47.4759494,78.1390244 C64.9367089,78.1390244 79.078481,64.0365854 79.078481,46.6243902 L79.078481,0 L79.5113924,0 L79.5113924,46.6243902 C79.5113924,64.3243902 65.2253165,78.5707317 47.4759494,78.5707317" id="Path"></path>
                    <path d="M42.5696203,78.5707317 C24.8202532,78.5707317 10.5341772,64.3243902 10.5341772,46.6243902 L10.5341772,0 L10.9670886,0 L10.9670886,46.6243902 C10.9670886,64.0365854 25.1088608,78.1390244 42.5696203,78.1390244 C60.0303797,78.1390244 74.1721519,64.0365854 74.1721519,46.6243902 L74.1721519,0 L74.6050633,0 L74.6050633,46.6243902 C74.6050633,64.3243902 60.3189873,78.5707317 42.5696203,78.5707317" id="Path"></path>
                    <path d="M37.8075949,78.5707317 C20.0582278,78.5707317 5.7721519,64.1804878 5.7721519,46.6243902 L5.7721519,0 L6.20506329,0 L6.20506329,46.6243902 C6.20506329,64.0365854 20.3468354,78.1390244 37.8075949,78.1390244 C55.2683544,78.1390244 69.4101266,64.0365854 69.4101266,46.6243902 L69.4101266,0 L69.843038,0 L69.843038,46.6243902 C69.6987342,64.3243902 55.4126582,78.5707317 37.8075949,78.5707317" id="Path"></path>
                    <path d="M32.9012658,78.5707317 C15.1518987,78.5707317 0.865822785,64.1804878 0.865822785,46.6243902 L0.865822785,0 L1.29873418,0 L1.29873418,46.6243902 C1.29873418,64.0365854 15.4405063,78.1390244 32.9012658,78.1390244 C50.3620253,78.1390244 64.5037975,64.0365854 64.5037975,46.6243902 L64.5037975,0 L64.9367089,0 L64.9367089,46.6243902 C64.9367089,64.3243902 50.5063291,78.5707317 32.9012658,78.5707317" id="Path"></path>
                </g>
            </g>
        </g>
    </g>
</svg>