<svg xmlns="http://www.w3.org/2000/svg" viewBox="0 0 253.4 28.3"><defs><style>.cls-1{fill:#fff;}</style></defs><g id="Layer_2" data-name="Layer 2"><g id="Layer_1-2" data-name="Layer 1"><g id="Layer_2-2" data-name="Layer 2"><path class="cls-1" d="M13.2,27.8H7.4L0,7.2H6.1l4.3,15.2h.1L14.9,7.2h5.8Z"/><path class="cls-1" d="M38.6,23.7c0,2.4.5,3,1.2,3.2v.8H33.9a9.3,9.3,0,0,1-.5-2.4,8.31,8.31,0,0,1-6.7,3c-3.1,0-6.3-1.7-6.3-6,0-4,2.6-6.1,6-6.6l4.9-.7c1-.1,2-.5,2-1.6,0-2.3-2.2-2.4-3.6-2.4-2.7,0-3.2,1.7-3.3,2.9H21.2c.6-6.3,5-7.2,9.2-7.2,2.9,0,8.2.9,8.2,6Zm-5.3-5.9c-.5.4-1.4.8-3.7,1.1-2,.4-3.7.9-3.7,3.1a2.39,2.39,0,0,0,2.5,2.5c2.4,0,4.8-1.5,4.8-4.1V17.8Z"/><path class="cls-1" d="M47.3,27.8H41.9V0h5.4Z"/><path class="cls-1" d="M57.6,7.2H61v3.9H57.6V22.3c0,1.2,0,1.7,2.3,1.7a4.48,4.48,0,0,0,1.1-.1v4c-.9,0-1.7.1-2.6.1h-.7c-4.7,0-5.6-1.8-5.6-4.4V11.1H49.3V7.2h2.8V1.6h5.4V7.2Z"/><path class="cls-1" d="M82.2,21.7c-1.4,5-5.6,6.6-9.1,6.6-5.8,0-10.3-2.8-10.3-11.2,0-2.5.9-10.4,9.9-10.4,4.1,0,9.7,1.9,9.7,11.3v1H68.3c.2,1.5.5,5,4.9,5a3.55,3.55,0,0,0,3.5-2.2h5.5Zm-5.3-6.3c-.3-3.3-2.4-4.3-4.2-4.3-2.6,0-3.9,1.6-4.2,4.3Z"/><path class="cls-1" d="M102.9,20.3c-.2,2.1-1.9,8-9.4,8-7.8,0-9.5-5.9-9.5-10.2,0-6.6,2.9-11.4,9.9-11.4,3.3,0,8.6,1.5,9.1,7.9H97.5c-.2-1.3-1-3.3-3.3-3.3h-.3c-3.4,0-4.3,3.4-4.3,6,0,2.2.1,6.7,4.2,6.7a3.74,3.74,0,0,0,3.7-3.6h5.4Z"/><path class="cls-1" d="M124,27.8h-5.4V15.3c0-1.5-.1-4.1-3.5-4.1-2.4,0-4.3,1.6-4.3,4.8V27.8h-5.5V0h5.4V9.9h.1c.7-1.7,3-3.2,6-3.2,4,0,7.2,2.4,7.2,6.9Z"/><rect class="cls-1" x="127.4" y="23.9" width="10.9" height="3.9"/></g><path class="cls-1" d="M149,12h.1a4.86,4.86,0,0,1,1-1.85,7.91,7.91,0,0,1,1.7-1.54,12.25,12.25,0,0,1,2.3-1,10.41,10.41,0,0,1,2.6-.31V8.83A8.35,8.35,0,0,0,154,9a7.27,7.27,0,0,0-2.9,1.75c-.4.41-.7.82-1,1.13a7.36,7.36,0,0,0-.7,1.24,5.63,5.63,0,0,0-.4,1.54,10.77,10.77,0,0,0-.2,2V28.29h-1.5V7.49h1.5V12Z"/><path class="cls-1" d="M158.4,17.79V18a12,12,0,0,0,.5,3.39,8.55,8.55,0,0,0,1.4,2.89,7.12,7.12,0,0,0,2.3,1.95,6.35,6.35,0,0,0,3.2.72,6.65,6.65,0,0,0,4.8-1.65,7.82,7.82,0,0,0,2.4-4.52h1.5a9.25,9.25,0,0,1-2.9,5.55,8.79,8.79,0,0,1-5.8,2,9.19,9.19,0,0,1-3.9-.82,8.63,8.63,0,0,1-2.8-2.27,7.58,7.58,0,0,1-1.6-3.39,14.38,14.38,0,0,1-.5-4.22,14.16,14.16,0,0,1,.6-4.12,10.28,10.28,0,0,1,1.7-3.5,8.78,8.78,0,0,1,2.8-2.36,8.21,8.21,0,0,1,4-.93,8.6,8.6,0,0,1,3.7.82,7.12,7.12,0,0,1,2.7,2.17,10.62,10.62,0,0,1,1.7,3.18,12.32,12.32,0,0,1,.6,3.91v.83H158.4ZM173,16.46a16.23,16.23,0,0,0-.5-3.19,8.46,8.46,0,0,0-1.4-2.68,9.57,9.57,0,0,0-2.2-1.85,7.2,7.2,0,0,0-3-.72,6.61,6.61,0,0,0-3.2.72,6.84,6.84,0,0,0-2.3,1.85,7.51,7.51,0,0,0-1.4,2.68,16.75,16.75,0,0,0-.6,3.08H173Z"/><path class="cls-1" d="M184.6,27.82h-1.8l-8-20.69h1.7l7.2,19h.1l7.2-19h1.6Z"/><path class="cls-1" d="M192.3,17.54a13.81,13.81,0,0,1,.6-4.14A10,10,0,0,1,194.7,10a8.33,8.33,0,0,1,2.9-2.38,7.8,7.8,0,0,1,3.9-.83,9,9,0,0,1,3.9.83A9.34,9.34,0,0,1,208.3,10a11.17,11.17,0,0,1,1.8,3.41,14.3,14.3,0,0,1,.6,4.14,13.76,13.76,0,0,1-.6,4.14,9.18,9.18,0,0,1-1.8,3.41,9.6,9.6,0,0,1-2.9,2.38,7.8,7.8,0,0,1-3.9.83,9,9,0,0,1-3.9-.83,9.21,9.21,0,0,1-2.9-2.38,10,10,0,0,1-1.8-3.41A14.25,14.25,0,0,1,192.3,17.54Zm1.4,0a13.6,13.6,0,0,0,.5,3.52,7.64,7.64,0,0,0,1.5,3,6,6,0,0,0,2.4,2.07,7,7,0,0,0,6.6,0,6.84,6.84,0,0,0,2.4-2.07,13.79,13.79,0,0,0,1.5-3,13.6,13.6,0,0,0,.5-3.52,13.46,13.46,0,0,0-.5-3.51,7.58,7.58,0,0,0-1.5-3A6.52,6.52,0,0,0,204.7,9a7,7,0,0,0-6.6,0A6.74,6.74,0,0,0,195.7,11a13.79,13.79,0,0,0-1.5,3A12.87,12.87,0,0,0,193.7,17.54Z"/><path class="cls-1" d="M213,7.07h1.5v4.38h.1a6.54,6.54,0,0,1,1.1-2,6,6,0,0,1,1.7-1.52A6.69,6.69,0,0,1,219.5,7a9.08,9.08,0,0,1,2.3-.3,8.72,8.72,0,0,1,3,.4,7.78,7.78,0,0,1,2,1.12A6.24,6.24,0,0,1,228,9.82a6.54,6.54,0,0,1,.6,1.83,11.5,11.5,0,0,1,.2,1.73V27.82h-1.5V14.5a14.79,14.79,0,0,0-.1-1.94,5.82,5.82,0,0,0-.7-2.23,4.92,4.92,0,0,0-1.7-1.83,5.76,5.76,0,0,0-3.2-.71,7.15,7.15,0,0,0-3,.61,7.54,7.54,0,0,0-2.3,1.72,7.45,7.45,0,0,0-1.4,2.65,11.91,11.91,0,0,0-.5,3.46V27.82h-1.5V7.07Z"/><path class="cls-1" d="M231.5,4V0H233V4Zm0,23.79V7.17H233V27.82Z"/><path class="cls-1" d="M251.7,13.58a5.47,5.47,0,0,0-.7-2.37,6.19,6.19,0,0,0-1.5-1.75,6.86,6.86,0,0,0-2.1-1,9.62,9.62,0,0,0-2.5-.31,7.2,7.2,0,0,0-3.3.82A6.92,6.92,0,0,0,239.2,11a11.78,11.78,0,0,0-1.5,3,13.24,13.24,0,0,0-.5,3.39,15.2,15.2,0,0,0,.5,3.81,10.85,10.85,0,0,0,1.4,3.09,6.79,6.79,0,0,0,2.4,2,7.15,7.15,0,0,0,3.4.72,7.29,7.29,0,0,0,2.6-.51,5.68,5.68,0,0,0,2.1-1.34,6.24,6.24,0,0,0,1.5-2.06,10.84,10.84,0,0,0,.8-2.57h1.5a10.42,10.42,0,0,1-1,3.29,7.27,7.27,0,0,1-1.9,2.37,10.82,10.82,0,0,1-2.6,1.54,10.17,10.17,0,0,1-3,.52,9,9,0,0,1-4.2-.93A8.09,8.09,0,0,1,237.9,25a10.11,10.11,0,0,1-1.6-3.5,18.58,18.58,0,0,1-.5-4.12,14,14,0,0,1,.6-4.11,11,11,0,0,1,1.8-3.4,7,7,0,0,1,2.9-2.26,9,9,0,0,1,3.9-.83,9.19,9.19,0,0,1,3,.42,9.4,9.4,0,0,1,2.5,1.23,6.4,6.4,0,0,1,1.8,2.16,6.91,6.91,0,0,1,.9,3Z"/></g></g></svg>