<?xml version="1.0" encoding="UTF-8"?>
<svg width="188px" height="54px" viewBox="0 0 188 54" version="1.1" xmlns="http://www.w3.org/2000/svg" xmlns:xlink="http://www.w3.org/1999/xlink">
    <!-- Generator: Sketch 58 (84663) - https://sketch.com -->
    <title>Abu-dhabi-airports</title>
    <desc>Created with Sketch.</desc>
    <g id="C19---Clients" stroke="none" stroke-width="1" fill="none" fill-rule="evenodd">
        <g id="C19---Clients---Dark---Desktop" transform="translate(-199.000000, -413.000000)" fill="#FFFFFF" fill-rule="nonzero">
            <g id="Abu-dhabi-airports">
                <g transform="translate(199.000000, 413.000000)">
                    <path d="M161.258621,10.3970149 L161.258621,10.3970149 C161.258621,9.51044776 158.260345,9.02686567 156.558621,9.02686567 C155.748276,9.02686567 155.586207,9.02686567 155.505172,8.86567164 C155.424138,8.78507463 148.698276,0.48358209 148.698276,0.48358209 C148.698276,0.48358209 148.455172,0.241791045 147.644828,0.241791045 L147.644828,0.241791045 C147.482759,0.241791045 147.158621,0.241791045 147.158621,0.241791045 C147.158621,0.241791045 147.077586,0.241791045 147.077586,0.241791045 C147.077586,0.241791045 147.077586,0.32238806 147.077586,0.32238806 L150.562069,6.77014925 C150.562069,6.85074627 150.967241,7.81791045 151.372414,8.86567164 C147.563793,8.94626866 144.322414,9.34925373 143.917241,9.42985075 L143.917241,9.42985075 C143.593103,9.10746269 141.891379,7.17313433 141.567241,7.09253731 C141.243103,6.93134328 140.756897,6.93134328 140.756897,6.93134328 C140.756897,6.93134328 140.675862,6.93134328 140.675862,6.93134328 C140.675862,6.93134328 140.675862,7.0119403 140.675862,7.0119403 C140.675862,7.0119403 141.567241,9.34925373 141.972414,10.2358209 C141.567241,11.2029851 140.675862,13.4597015 140.675862,13.4597015 C140.675862,13.4597015 140.675862,13.5402985 140.675862,13.5402985 C140.675862,13.5402985 140.675862,13.5402985 140.756897,13.5402985 C140.837931,13.5402985 141.243103,13.5402985 141.567241,13.3791045 C141.891379,13.2179104 143.593103,11.3641791 143.917241,11.041791 L143.917241,11.041791 C144.322414,11.1223881 147.563793,11.5253731 151.372414,11.6059701 C150.967241,12.6537313 150.562069,13.6208955 150.562069,13.7014925 L147.077586,20.1492537 C147.077586,20.1492537 147.077586,20.2298507 147.077586,20.2298507 C147.077586,20.2298507 147.077586,20.2298507 147.158621,20.2298507 C147.158621,20.2298507 147.239655,20.2298507 147.401724,20.2298507 L147.644828,20.2298507 C148.455172,20.2298507 148.698276,19.9880597 148.698276,19.9880597 C148.698276,19.9880597 155.505172,11.7671642 155.505172,11.6059701 C155.667241,11.4447761 155.748276,11.4447761 156.558621,11.4447761 C158.17931,11.6865672 161.258621,11.2835821 161.258621,10.3970149 L161.258621,10.3970149 L161.258621,10.3970149 L161.258621,10.3970149" id="Path"></path>
                    <path d="M29.9017241,44.3283582 C12.4793103,42.8776119 3.97068966,34.8179104 3.48448276,29.3373134 C3.40344828,28.5313433 3.48448276,27.8059701 3.64655172,27.080597 L0.729310345,37.880597 C-0.567241379,46.5044776 12.4793103,51.7432836 23.662069,53.1134328 C24.4724138,53.2746269 25.2017241,53.3552239 25.9310345,53.4358209 L29.9017241,44.3283582 Z" id="Path"></path>
                    <path d="M3.72758621,27.080597 L3.80862069,26.758209 C3.80862069,26.838806 3.72758621,27 3.72758621,27.080597" id="Path"></path>
                    <path d="M0.89137931,37.2358209 C0.89137931,37.2358209 0.810344828,37.558209 0.89137931,37.2358209 C9.23793103,15.8776119 95.1344828,10.880597 135.408621,11.5253731 L135.813793,10.3970149 L135.408621,9.34925373 C94.9724138,7.41492537 10.2103448,6.93134328 3.97068966,25.7104478 L0.89137931,37.2358209 Z" id="Path"></path>
                    <path d="M38.3293103,52.1462687 L34.2775862,52.1462687 L33.7103448,53.5970149 L31.1172414,53.5970149 L35.1689655,44.3283582 L37.5189655,44.3283582 L41.5706897,53.5970149 L38.8965517,53.5970149 L38.3293103,52.1462687 Z M37.5189655,50.1313433 L36.7896552,48.358209 C36.5465517,47.7940299 36.3034483,46.9880597 36.3034483,46.9880597 L36.3034483,46.9880597 C36.3034483,46.9880597 36.0603448,47.7940299 35.8172414,48.358209 L35.087931,50.1313433 L37.5189655,50.1313433 Z" id="Shape"></path>
                    <path d="M47,44.3283582 C48.7827586,44.3283582 50.0793103,45.3761194 50.0793103,46.7462687 C50.0793103,47.6328358 49.4310345,48.358209 48.8637931,48.6 L48.8637931,48.6 C49.8362069,48.841791 50.6465517,49.8089552 50.6465517,50.7761194 C50.6465517,52.3074627 49.512069,53.5970149 47,53.5970149 L42.6241379,53.5970149 L42.6241379,44.3283582 L47,44.3283582 Z M46.4327586,47.8746269 C47.0810345,47.8746269 47.5672414,47.4716418 47.5672414,46.9880597 C47.5672414,46.5044776 47.0810345,46.1014925 46.4327586,46.1014925 L44.9741379,46.1014925 L44.9741379,47.8746269 L46.4327586,47.8746269 L46.4327586,47.8746269 Z M46.7568966,51.7432836 C47.5672414,51.7432836 48.0534483,51.3402985 48.0534483,50.6955224 C48.0534483,50.0507463 47.4862069,49.6477612 46.7568966,49.6477612 L45.0551724,49.6477612 L45.0551724,51.7432836 L46.7568966,51.7432836 L46.7568966,51.7432836 Z" id="Shape"></path>
                    <path d="M60.6948276,44.3283582 L60.6948276,49.4865672 C60.6948276,52.3074627 58.912069,53.838806 56.237931,53.838806 C53.5637931,53.838806 51.7810345,52.3074627 51.7810345,49.4865672 L51.7810345,44.3283582 L54.212069,44.3283582 L54.212069,49.4059701 C54.212069,51.0179104 54.9413793,51.6626866 56.237931,51.6626866 C57.6155172,51.6626866 58.2637931,51.0179104 58.2637931,49.4059701 L58.2637931,44.3283582 L60.6948276,44.3283582 Z" id="Path"></path>
                    <path d="M70.4189655,44.3283582 C73.3362069,44.3283582 75.6862069,46.2626866 75.6862069,49.0029851 C75.6862069,51.7432836 73.3362069,53.5970149 70.4189655,53.5970149 L65.962069,53.5970149 L65.962069,44.3283582 L70.4189655,44.3283582 Z M70.4189655,51.5014925 C71.8775862,51.5014925 73.1741379,50.5343284 73.1741379,49.0029851 C73.1741379,47.3910448 71.9586207,46.4238806 70.4189655,46.4238806 L68.3931034,46.4238806 L68.3931034,51.5820896 L70.4189655,51.5820896 L70.4189655,51.5014925 Z" id="Shape"></path>
                    <polygon id="Path" points="85.5724138 44.3283582 85.5724138 53.5970149 83.1413793 53.5970149 83.1413793 49.9701493 79.3327586 49.9701493 79.3327586 53.5970149 76.9017241 53.5970149 76.9017241 44.3283582 79.3327586 44.3283582 79.3327586 47.8746269 83.1413793 47.8746269 83.1413793 44.3283582"></polygon>
                    <path d="M94,52.1462687 L89.9482759,52.1462687 L89.3810345,53.5970149 L86.787931,53.5970149 L90.8396552,44.3283582 L93.1896552,44.3283582 L97.2413793,53.5970149 L94.6482759,53.5970149 L94,52.1462687 Z M93.2706897,50.1313433 L92.5413793,48.358209 C92.2982759,47.7940299 92.0551724,46.9880597 92.0551724,46.9880597 L92.0551724,46.9880597 C92.0551724,46.9880597 91.812069,47.7940299 91.5689655,48.358209 L90.8396552,50.1313433 L93.2706897,50.1313433 Z" id="Shape"></path>
                    <path d="M102.832759,44.3283582 C104.615517,44.3283582 105.912069,45.3761194 105.912069,46.7462687 C105.912069,47.6328358 105.263793,48.358209 104.696552,48.6 L104.696552,48.6 C105.668966,48.841791 106.47931,49.8089552 106.47931,50.7761194 C106.47931,52.3074627 105.344828,53.5970149 102.832759,53.5970149 L98.4568966,53.5970149 L98.4568966,44.3283582 L102.832759,44.3283582 Z M102.265517,47.8746269 C102.913793,47.8746269 103.4,47.4716418 103.4,46.9880597 C103.4,46.5044776 102.913793,46.1014925 102.265517,46.1014925 L100.806897,46.1014925 L100.806897,47.8746269 L102.265517,47.8746269 L102.265517,47.8746269 Z M102.508621,51.7432836 C103.318966,51.7432836 103.805172,51.3402985 103.805172,50.6955224 C103.805172,50.0507463 103.237931,49.6477612 102.508621,49.6477612 L100.806897,49.6477612 L100.806897,51.7432836 L102.508621,51.7432836 L102.508621,51.7432836 Z" id="Shape"></path>
                    <rect id="Rectangle" x="107.694828" y="44.3283582" width="2.43103448" height="9.26865672"></rect>
                    <path d="M122.524138,52.1462687 L118.472414,52.1462687 L117.905172,53.5970149 L115.312069,53.5970149 L119.363793,44.3283582 L121.713793,44.3283582 L125.765517,53.5970149 L123.172414,53.5970149 L122.524138,52.1462687 Z M121.713793,50.1313433 L120.984483,48.358209 C120.741379,47.7940299 120.498276,46.9880597 120.498276,46.9880597 L120.498276,46.9880597 C120.498276,46.9880597 120.255172,47.7940299 120.012069,48.358209 L119.282759,50.1313433 L121.713793,50.1313433 Z" id="Shape"></path>
                    <rect id="Rectangle" x="126.9" y="44.3283582" width="2.43103448" height="9.26865672"></rect>
                    <path d="M136.381034,53.5970149 L134.517241,50.6149254 L133.301724,50.6149254 L133.301724,53.5970149 L130.87069,53.5970149 L130.87069,44.3283582 L134.67931,44.3283582 C137.272414,44.3283582 138.731034,45.6179104 138.731034,47.4716418 C138.731034,48.680597 138.082759,49.6477612 136.867241,50.1313433 L139.136207,53.5164179 L136.381034,53.5970149 L136.381034,53.5970149 Z M133.301724,48.6 L135.003448,48.6 C135.894828,48.6 136.218966,48.0358209 136.218966,47.5522388 C136.218966,47.0686567 135.894828,46.5044776 135.003448,46.5044776 L133.301724,46.5044776 L133.301724,48.6 Z" id="Shape"></path>
                    <path d="M144.241379,44.3283582 C146.753448,44.3283582 148.212069,45.5373134 148.212069,47.4716418 C148.212069,49.4865672 146.753448,50.6955224 144.241379,50.6955224 L142.782759,50.6955224 L142.782759,53.5970149 L140.351724,53.5970149 L140.351724,44.3283582 L144.241379,44.3283582 Z M144.241379,48.6 C145.213793,48.6 145.7,48.1970149 145.7,47.5522388 C145.7,46.9074627 145.132759,46.5044776 144.241379,46.5044776 L142.863793,46.5044776 L142.863793,48.680597 L144.241379,48.6 L144.241379,48.6 Z" id="Shape"></path>
                    <path d="M154.613793,44.0865672 C157.531034,44.0865672 159.881034,46.1014925 159.881034,48.9223881 C159.881034,51.7432836 157.531034,53.758209 154.613793,53.758209 C151.696552,53.758209 149.346552,51.7432836 149.346552,48.9223881 C149.346552,46.1014925 151.696552,44.0865672 154.613793,44.0865672 M154.613793,51.5820896 C156.234483,51.5820896 157.368966,50.5343284 157.368966,48.9223881 C157.368966,47.3910448 156.315517,46.3432836 154.613793,46.3432836 C152.993103,46.3432836 151.858621,47.3910448 151.858621,48.9223881 C151.858621,50.4537313 152.993103,51.5820896 154.613793,51.5820896" id="Shape"></path>
                    <path d="M166.85,53.5970149 L164.986207,50.6149254 L163.689655,50.6149254 L163.689655,53.5970149 L161.258621,53.5970149 L161.258621,44.3283582 L165.067241,44.3283582 C167.660345,44.3283582 169.118966,45.6179104 169.118966,47.4716418 C169.118966,48.680597 168.47069,49.6477612 167.336207,50.1313433 L169.605172,53.5164179 L166.85,53.5970149 L166.85,53.5970149 Z M163.689655,48.6 L165.391379,48.6 C166.282759,48.6 166.606897,48.0358209 166.606897,47.5522388 C166.606897,47.0686567 166.282759,46.5044776 165.391379,46.5044776 L163.689655,46.5044776 L163.689655,48.6 Z" id="Shape"></path>
                    <polygon id="Path" points="179.005172 44.3283582 179.005172 46.3432836 175.925862 46.3432836 175.925862 53.5970149 173.494828 53.5970149 173.494828 46.3432836 170.496552 46.3432836 170.496552 44.3283582"></polygon>
                    <path d="M185.487931,47.2298507 C185.244828,46.4238806 184.434483,46.0208955 183.705172,46.0208955 C182.975862,46.0208955 182.57069,46.3432836 182.57069,46.7462687 C182.57069,47.3910448 183.624138,47.5522388 184.839655,47.9552239 C186.298276,48.438806 187.918966,49.2447761 187.918966,50.8567164 C187.918966,52.5492537 186.298276,53.758209 183.948276,53.758209 C181.841379,53.758209 180.301724,52.7104478 179.653448,50.9373134 L182.003448,50.3731343 C182.246552,51.0985075 182.975862,51.7432836 184.02931,51.7432836 C184.92069,51.7432836 185.325862,51.3402985 185.325862,50.9373134 C185.325862,50.2119403 184.110345,49.9701493 182.651724,49.4865672 C181.436207,49.0835821 180.058621,48.438806 180.058621,46.8268657 C180.058621,45.3761194 181.67931,44.0865672 183.867241,44.0865672 C185.812069,44.0865672 187.351724,45.1343284 187.837931,46.6656716 L185.487931,47.2298507 Z" id="Path"></path>
                    <path d="M38.1672414,39.3313433 C37.762069,39.3313433 37.5189655,39.4119403 37.2758621,39.6537313 C37.0327586,39.8955224 36.8706897,40.1373134 36.8706897,40.4597015 C36.8706897,40.7820896 37.0327586,41.0238806 37.2758621,41.2656716 C37.5189655,41.5074627 37.8431034,41.5880597 38.1672414,41.5880597 C38.5724138,41.5880597 38.8155172,41.5074627 39.0586207,41.2656716 C39.3017241,41.0238806 39.4637931,40.7820896 39.4637931,40.4597015 C39.4637931,40.1373134 39.3017241,39.8955224 39.0586207,39.6537313 C38.8155172,39.4119403 38.5724138,39.3313433 38.1672414,39.3313433" id="Path"></path>
                    <path d="M42.2189655,39.3313433 C41.8137931,39.3313433 41.5706897,39.4119403 41.3275862,39.6537313 C41.0844828,39.8955224 40.9224138,40.1373134 40.9224138,40.4597015 C40.9224138,40.7820896 41.0844828,41.0238806 41.3275862,41.2656716 C41.5706897,41.5074627 41.8948276,41.5880597 42.2189655,41.5880597 C42.5431034,41.5880597 42.8672414,41.5074627 43.1103448,41.2656716 C43.3534483,41.0238806 43.5155172,40.7820896 43.5155172,40.4597015 C43.5155172,40.1373134 43.3534483,39.8955224 43.1103448,39.6537313 C42.8672414,39.4119403 42.5431034,39.3313433 42.2189655,39.3313433" id="Path"></path>
                    <path d="M59.2362069,39.3313433 C58.8310345,39.3313433 58.587931,39.4925373 58.2637931,39.6537313 C58.0206897,39.8955224 57.8586207,40.1373134 57.8586207,40.4597015 C57.8586207,40.7820896 58.0206897,41.0238806 58.2637931,41.2656716 C58.5068966,41.5074627 58.8310345,41.5880597 59.2362069,41.5880597 C59.5603448,41.5880597 59.8844828,41.4268657 60.1275862,41.2656716 C60.3706897,41.0238806 60.5327586,40.7820896 60.5327586,40.4597015 C60.5327586,40.1373134 60.3706897,39.8955224 60.1275862,39.6537313 C59.8844828,39.4119403 59.6413793,39.3313433 59.2362069,39.3313433" id="Path"></path>
                    <path d="M79.2517241,27.8865672 C79.6568966,27.8865672 79.9,27.7253731 80.1431034,27.5641791 C80.3862069,27.3223881 80.5482759,27.080597 80.5482759,26.758209 C80.5482759,26.4358209 80.3862069,26.1940299 80.1431034,25.9522388 C79.9,25.7104478 79.5758621,25.6298507 79.2517241,25.6298507 C78.9275862,25.6298507 78.6034483,25.7910448 78.3603448,25.9522388 C78.1172414,26.1134328 77.9551724,26.4358209 77.9551724,26.758209 C77.9551724,27.080597 78.1172414,27.3223881 78.3603448,27.5641791 C78.6034483,27.8059701 78.9275862,27.8865672 79.2517241,27.8865672" id="Path"></path>
                    <path d="M81.6827586,35.6238806 L74.6327586,35.6238806 C74.7137931,34.9791045 74.8758621,34.4149254 75.2,33.9313433 C75.4431034,33.4477612 75.8482759,32.9641791 76.2534483,32.641791 C76.6586207,32.319403 77.1448276,31.9970149 77.6310345,31.8358209 C78.1172414,31.6746269 78.6034483,31.5940299 79.0896552,31.5940299 C79.4948276,31.5940299 79.9,31.6746269 80.1431034,31.7552239 C80.4672414,31.8358209 80.7913793,31.9970149 80.9534483,32.238806 C81.1965517,32.480597 81.3586207,32.8029851 81.5206897,33.1253731 C81.6827586,33.5283582 81.6827586,33.9313433 81.6827586,34.4955224 L81.6827586,35.6238806 L81.6827586,35.6238806 Z M83.8706897,32.4 C83.6275862,31.8358209 83.3844828,31.2716418 82.8982759,30.8686567 C82.4931034,30.4656716 81.9258621,30.0626866 81.3586207,29.8208955 C80.7913793,29.5791045 80.062069,29.4179104 79.2517241,29.4179104 C78.3603448,29.4179104 77.55,29.5791045 76.6586207,29.9820896 C75.8482759,30.3850746 75.1189655,30.9492537 74.4706897,31.6746269 L74.4706897,23.8567164 L72.0396552,23.8567164 L72.0396552,35.6238806 L62.3155172,35.6238806 C61.5862069,35.6238806 61.1,35.4626866 60.8568966,35.1402985 C60.6137931,34.8179104 60.4517241,34.3343284 60.4517241,33.8507463 L60.4517241,30.1432836 L58.0206897,30.1432836 L58.0206897,34.6567164 C58.0206897,34.9791045 57.9396552,35.2208955 57.8586207,35.3820896 C57.7775862,35.5432836 57.5344828,35.6238806 57.2103448,35.6238806 L54.05,35.6238806 L53.9689655,35.6238806 L53.9689655,34.0925373 C53.9689655,32.7223881 53.6448276,31.7552239 52.9155172,31.1104478 C52.1862069,30.4656716 51.1327586,30.1432836 49.5931034,30.1432836 L44.1637931,30.1432836 L44.1637931,35.4626866 C44.1637931,35.4626866 35.5741379,35.4626866 35.412069,35.4626866 C34.7637931,35.4626866 33.6293103,35.3014925 33.6293103,34.2537313 L33.6293103,30.2238806 L31.1172414,30.2238806 C31.1172414,30.2238806 31.1172414,32.158209 31.1172414,34.4955224 C31.1172414,36.0268657 31.8465517,38.041791 35.8982759,38.041791 C38.6534483,38.041791 46.5137931,38.041791 46.5137931,38.041791 L46.5137931,32.480597 L49.9982759,32.480597 C49.9982759,32.480597 50.4844828,32.480597 50.8896552,32.7223881 C51.0517241,32.8835821 51.2137931,33.0447761 51.2948276,33.3671642 C51.3758621,33.6089552 51.4568966,34.0119403 51.4568966,34.4149254 L51.4568966,37.961194 L57.2103448,37.961194 C57.7775862,37.961194 58.3448276,37.8 58.75,37.558209 C59.1551724,37.3164179 59.5603448,36.9940299 59.8034483,36.5910448 C59.9655172,36.9134328 60.2896552,37.2358209 60.6948276,37.4776119 C61.1,37.719403 61.5862069,37.880597 62.1534483,37.880597 L84.0327586,37.880597 L84.0327586,34.3343284 C84.1137931,33.6089552 84.0327586,32.9641791 83.8706897,32.4 L83.8706897,32.4 Z" id="Shape"></path>
                    <path d="M95.5396552,37.880597 C95.3775862,38.6059701 95.2965517,38.8477612 95.0534483,39.4119403 C94.8103448,39.9761194 94.4051724,40.3791045 93.9189655,40.7014925 C93.4327586,41.0238806 92.3793103,41.7492537 90.5155172,41.6686567 C90.1913793,41.6686567 89.2189655,41.6686567 88.4896552,41.5074627 L88.4896552,39.3313433 C89.0568966,39.4119403 89.3810345,39.4925373 90.4344828,39.4925373 C91.3258621,39.4925373 91.8931034,39.2507463 92.2172414,39.0895522 C92.6224138,38.8477612 93.1086207,38.2835821 93.1896552,37.8 L91.7310345,37.8 C90.8396552,37.8 90.1103448,37.638806 89.462069,37.4776119 C88.8948276,37.2358209 88.4086207,36.9134328 88.0034483,36.5910448 C87.5982759,36.1880597 87.3551724,35.7850746 87.1931034,35.3014925 C87.0310345,34.8179104 86.95,34.3343284 86.95,33.8507463 C86.95,33.2059701 87.0310345,32.641791 87.2741379,32.0776119 C87.5172414,31.5134328 87.8413793,31.0298507 88.2465517,30.6268657 C88.6517241,30.2238806 89.137931,29.9014925 89.7051724,29.6597015 C90.2724138,29.4179104 90.8396552,29.2567164 91.487931,29.2567164 C92.1362069,29.2567164 92.7034483,29.3373134 93.1896552,29.4985075 C93.6758621,29.6597015 94.162069,29.9820896 94.4862069,30.3044776 C94.8103448,30.6268657 95.1344828,31.0298507 95.2965517,31.5134328 C95.4586207,31.9970149 95.5396552,32.480597 95.5396552,33.1253731 L95.5396552,35.4626866 L99.9155172,35.4626866 C100.158621,35.4626866 100.32069,35.5432836 100.401724,35.6238806 C100.482759,35.7044776 100.563793,35.8656716 100.563793,36.0268657 L100.563793,37.2358209 C100.563793,37.3164179 100.563793,37.4776119 100.401724,37.558209 C100.32069,37.719403 100.158621,37.719403 99.9155172,37.719403 L95.5396552,37.880597 L95.5396552,37.880597 Z M93.1086207,35.6238806 L93.1086207,33.8507463 C93.1086207,33.1253731 92.9465517,32.561194 92.6224138,32.158209 C92.2982759,31.7552239 91.812069,31.5940299 91.2448276,31.5940299 C91.0017241,31.5940299 90.7586207,31.6746269 90.5155172,31.7552239 C90.2724138,31.8358209 90.1103448,31.9970149 89.8672414,32.158209 C89.7051724,32.319403 89.5431034,32.561194 89.3810345,32.8029851 C89.2189655,33.0447761 89.2189655,33.3671642 89.2189655,33.6089552 C89.2189655,34.0119403 89.3,34.2537313 89.3810345,34.5761194 C89.5431034,34.8179104 89.7051724,35.0597015 89.8672414,35.2208955 C90.1103448,35.3820896 90.3534483,35.4626866 90.5965517,35.5432836 C90.8396552,35.6238806 91.1637931,35.6238806 91.487931,35.6238806 L93.1086207,35.6238806 L93.1086207,35.6238806 Z" id="Shape"></path>
                    <path d="M99.1051724,37.880597 C98.9431034,37.880597 98.7810345,37.8 98.7,37.719403 C98.6189655,37.638806 98.537931,37.4776119 98.537931,37.3970149 L98.537931,36.2686567 C98.537931,36.1074627 98.537931,36.0268657 98.7,35.8656716 C98.7810345,35.7044776 98.9431034,35.7044776 99.1051724,35.7044776 L102.346552,35.7044776 L102.346552,30.2238806 L104.777586,30.2238806 L104.777586,37.961194 L99.1051724,37.880597 L99.1051724,37.880597 Z M101.941379,40.4597015 C101.941379,40.1373134 102.103448,39.8955224 102.346552,39.6537313 C102.589655,39.4119403 102.913793,39.3313433 103.318966,39.3313433 C103.643103,39.3313433 103.967241,39.4119403 104.210345,39.6537313 C104.453448,39.8955224 104.615517,40.1373134 104.615517,40.4597015 C104.615517,40.7820896 104.453448,41.0238806 104.210345,41.2656716 C103.967241,41.5074627 103.643103,41.5880597 103.318966,41.5880597 C102.994828,41.5880597 102.67069,41.5074627 102.346552,41.2656716 C102.103448,41.0238806 101.941379,40.7820896 101.941379,40.4597015 L101.941379,40.4597015 Z" id="Shape"></path>
                    <rect id="Rectangle" x="107.694828" y="23.8567164" width="2.43103448" height="14.0238806"></rect>
                    <path d="M118.634483,37.880597 C117.986207,37.880597 117.5,37.8 117.013793,37.638806 C116.527586,37.4776119 116.203448,37.2358209 115.960345,36.9940299 C115.717241,36.7522388 115.555172,36.4298507 115.393103,36.0268657 C115.312069,35.7044776 115.231034,35.3014925 115.231034,34.9791045 L115.231034,31.6746269 L117.662069,31.6746269 L117.662069,34.6567164 C117.662069,35.0597015 117.743103,35.3014925 117.905172,35.4626866 C118.067241,35.6238806 118.310345,35.6238806 118.715517,35.6238806 L132.653448,35.6238806 L132.653448,30.1432836 L135.084483,30.1432836 L135.084483,37.880597 L118.634483,37.880597 Z M121.713793,28.4507463 C121.713793,28.1283582 121.875862,27.8865672 122.118966,27.6447761 C122.362069,27.4029851 122.686207,27.3223881 123.010345,27.3223881 C123.334483,27.3223881 123.658621,27.4835821 123.901724,27.6447761 C124.144828,27.8865672 124.306897,28.1283582 124.306897,28.4507463 C124.306897,28.7731343 124.144828,29.0149254 123.901724,29.2567164 C123.658621,29.4985075 123.334483,29.5791045 123.010345,29.5791045 C122.605172,29.5791045 122.362069,29.4179104 122.118966,29.2567164 C121.875862,29.0149254 121.713793,28.6925373 121.713793,28.4507463 L121.713793,28.4507463 Z M125.765517,28.4507463 C125.765517,28.1283582 125.927586,27.8865672 126.17069,27.6447761 C126.413793,27.4029851 126.737931,27.3223881 127.062069,27.3223881 C127.467241,27.3223881 127.710345,27.4835821 127.953448,27.6447761 C128.196552,27.8865672 128.358621,28.1283582 128.358621,28.4507463 C128.358621,28.7731343 128.196552,29.0149254 127.953448,29.2567164 C127.710345,29.4985075 127.386207,29.5791045 127.062069,29.5791045 C126.656897,29.5791045 126.413793,29.4179104 126.17069,29.2567164 C125.927586,29.0149254 125.765517,28.6925373 125.765517,28.4507463 L125.765517,28.4507463 Z" id="Shape"></path>
                    <rect id="Rectangle" x="138.082759" y="23.8567164" width="2.43103448" height="14.0238806"></rect>
                    <path d="M146.510345,37.4776119 C146.510345,38.041791 146.42931,38.6059701 146.267241,39.0895522 C146.105172,39.5731343 145.862069,40.0567164 145.456897,40.4597015 C145.132759,40.8626866 144.727586,41.1044776 144.241379,41.3462687 C143.755172,41.5880597 143.187931,41.6686567 142.539655,41.6686567 C142.296552,41.6686567 141.972414,41.6686567 141.810345,41.6686567 C141.567241,41.6686567 140.918966,41.5074627 140.756897,41.5074627 L140.756897,39.4119403 C140.756897,39.4119403 141.72931,39.5731343 142.62069,39.5731343 C143.268966,39.5731343 143.674138,39.3313433 143.836207,38.9283582 C144.07931,38.5253731 144.160345,38.041791 144.160345,37.3164179 L144.160345,30.1432836 L146.591379,30.1432836 L146.591379,37.4776119 L146.510345,37.4776119 Z" id="Path"></path>
                    <path d="M185.163793,35.1402985 C184.839655,35.5432836 184.353448,35.7044776 183.705172,35.7044776 C182.975862,35.7044776 182.489655,35.5432836 182.165517,35.1402985 C181.841379,34.7373134 181.67931,34.3343284 181.67931,33.7701493 C181.67931,33.4477612 181.760345,33.1253731 181.841379,32.8029851 C181.922414,32.561194 182.084483,32.319403 182.246552,32.0776119 C182.408621,31.9164179 182.651724,31.7552239 182.894828,31.5940299 C183.137931,31.5134328 183.381034,31.4328358 183.705172,31.4328358 C183.948276,31.4328358 184.191379,31.5134328 184.434483,31.5940299 C184.677586,31.6746269 184.839655,31.8358209 185.082759,32.0776119 C185.244828,32.238806 185.406897,32.480597 185.487931,32.8029851 C185.65,33.0447761 185.65,33.3671642 185.65,33.7701493 C185.65,34.3343284 185.487931,34.8179104 185.163793,35.1402985 M164.905172,32.8029851 C165.310345,32.4 165.715517,32.158209 166.282759,31.9164179 C166.768966,31.6746269 167.336207,31.5940299 167.903448,31.5940299 C168.875862,31.5940299 169.524138,31.8358209 169.92931,32.319403 C170.334483,32.8029851 170.577586,33.5283582 170.577586,34.4955224 C170.577586,34.7373134 170.577586,35.2208955 170.577586,35.6238806 L163.365517,35.6238806 C163.446552,35.1402985 163.608621,34.4955224 163.851724,34.0925373 C164.175862,33.6089552 164.581034,33.2059701 164.905172,32.8029851 M187.675862,32.0776119 C187.513793,31.5134328 187.27069,31.0298507 186.865517,30.7074627 C186.541379,30.3044776 186.055172,30.0626866 185.568966,29.7402985 C185.001724,29.4985075 184.434483,29.4179104 183.705172,29.4179104 C183.056897,29.4179104 182.489655,29.4985075 181.922414,29.7402985 C181.355172,29.9820896 180.95,30.3044776 180.544828,30.6268657 C180.139655,31.0298507 179.815517,31.4328358 179.572414,31.9970149 C179.32931,32.561194 179.248276,33.1253731 179.248276,33.7701493 C179.248276,34.4149254 179.410345,35.0597015 179.653448,35.6238806 L173.008621,35.6238806 C173.008621,35.0597015 173.008621,34.6567164 173.008621,34.3343284 C173.008621,33.6089552 172.927586,32.9641791 172.684483,32.4 C172.441379,31.8358209 172.117241,31.2716418 171.712069,30.8686567 C171.306897,30.4656716 170.82069,30.0626866 170.172414,29.8208955 C169.605172,29.5791045 168.875862,29.4179104 168.065517,29.4179104 C167.093103,29.4179104 166.12069,29.6597015 165.310345,30.0626866 C164.5,30.4656716 163.851724,31.0298507 163.284483,31.6746269 L163.284483,23.8567164 L160.853448,23.8567164 L160.853448,35.6238806 L151.696552,35.6238806 L151.696552,23.8567164 L149.265517,23.8567164 L149.265517,37.880597 L183.381034,37.880597 C183.381034,37.880597 183.462069,37.880597 183.543103,37.880597 C184.353448,37.880597 184.92069,37.719403 185.487931,37.558209 C186.055172,37.3164179 186.460345,36.9940299 186.784483,36.6716418 C187.108621,36.2686567 187.351724,35.8656716 187.513793,35.3820896 C187.675862,34.8985075 187.756897,34.4149254 187.756897,33.9313433 C187.918966,33.2865672 187.837931,32.641791 187.675862,32.0776119" id="Shape"></path>
                    <path d="M110.206897,20.1492537 C109.963793,20.0686567 109.72069,20.0686567 109.396552,20.0686567 C109.153448,20.0686567 108.991379,20.1492537 108.82931,20.2298507 C108.667241,20.3910448 108.586207,20.4716418 108.586207,20.7134328 C108.586207,20.8746269 108.667241,21.1164179 108.82931,21.2776119 C108.991379,21.438806 109.315517,21.519403 109.72069,21.519403 L110.368966,21.519403 L110.368966,22.5671642 L106.722414,22.5671642 L106.722414,21.519403 L107.694828,21.519403 C107.532759,21.358209 107.451724,21.1970149 107.37069,21.0358209 C107.289655,20.8746269 107.208621,20.6328358 107.208621,20.4716418 C107.208621,20.0686567 107.37069,19.7462687 107.694828,19.5044776 C108.018966,19.2626866 108.505172,19.1014925 109.153448,19.1014925 C109.315517,19.1014925 109.477586,19.1014925 109.72069,19.1014925 C109.963793,19.1014925 110.125862,19.1820896 110.287931,19.1820896 L110.206897,20.1492537 Z" id="Path"></path>
                </g>
            </g>
        </g>
    </g>
</svg>