<?xml version="1.0" encoding="UTF-8"?>
<svg width="100px" height="64px" viewBox="0 0 100 64" version="1.1" xmlns="http://www.w3.org/2000/svg" xmlns:xlink="http://www.w3.org/1999/xlink">
    <!-- Generator: Sketch 58 (84663) - https://sketch.com -->
    <title>Noor</title>
    <desc>Created with Sketch.</desc>
    <g id="C19---Clients" stroke="none" stroke-width="1" fill="none" fill-rule="evenodd">
        <g id="C19---Clients---Dark---Desktop" transform="translate(-528.000000, -613.000000)" fill="#FFFFFF" fill-rule="nonzero">
            <g id="Noor">
                <g transform="translate(527.000000, 613.000000)">
                    <g id="Group">
                        <polygon id="Path" points="17.7471429 19.6363636 6.20428571 1.30909091 1.01 1.30909091 1.01 29.3818182 6.63714286 29.3818182 6.63714286 11.0545455 18.18 29.3818182 23.3742857 29.3818182 23.3742857 1.30909091 17.7471429 1.30909091"></polygon>
                        <path d="M93.2085714,17.4545455 C94.7957143,16.5818182 95.8057143,15.5636364 96.5271429,14.4 C97.2485714,13.2363636 97.5371429,11.6363636 97.5371429,9.89090909 C97.5371429,8.87272727 97.3928571,8 97.1042857,6.98181818 C96.8157143,5.96363636 96.2385714,5.09090909 95.3728571,4.21818182 C94.5071429,3.34545455 93.4971429,2.76363636 92.0542857,2.18181818 C90.6114286,1.6 88.88,1.45454545 86.7157143,1.45454545 L76.76,1.45454545 L76.76,29.5272727 L82.5314286,29.5272727 L82.5314286,18.9090909 L88.0142857,18.9090909 L92.6314286,29.5272727 L98.98,29.5272727 L93.2085714,17.4545455 Z M91.4771429,11.4909091 C91.3328571,11.9272727 91.0442857,12.3636364 90.7557143,12.8 C90.4671429,13.0909091 89.89,13.3818182 89.3128571,13.6727273 C88.7357143,13.8181818 88.0142857,13.9636364 87.0042857,13.9636364 L82.3871429,13.9636364 L82.3871429,6.10909091 L86.4271429,6.10909091 C87.4371429,6.10909091 88.3028571,6.25454545 88.88,6.4 C89.6014286,6.54545455 90.0342857,6.83636364 90.4671429,7.27272727 C90.9,7.56363636 91.0442857,8 91.3328571,8.43636364 C91.4771429,8.87272727 91.6214286,9.30909091 91.6214286,9.89090909 C91.6214286,10.4727273 91.4771429,11.0545455 91.4771429,11.4909091 Z" id="Shape"></path>
                        <path d="M70.2671429,4.50909091 C69.1128571,3.2 67.67,2.18181818 66.0828571,1.6 C64.4957143,0.872727273 62.62,0.581818182 60.4557143,0.581818182 C58.2914286,0.581818182 56.4157143,0.872727273 54.8285714,1.6 C53.8185714,2.03636364 52.8085714,2.61818182 51.9428571,3.2 L52.2314286,3.92727273 L54.3957143,8.87272727 C54.54,8.72727273 55.8385714,6.25454545 60.4557143,6.25454545 C63.0528571,6.25454545 65.0728571,7.12727273 66.0828571,8.43636364 C67.3814286,10.1818182 68.1028571,12.2181818 68.1028571,15.2727273 C68.1028571,18.4727273 67.2371429,20.8 65.7942857,22.4 C64.7842857,23.5636364 62.9085714,24.4363636 60.3114286,24.4363636 C58.2914286,24.4363636 55.6942857,23.8545455 54.3957143,21.9636364 C53.53,20.6545455 52.6642857,18.6181818 52.6642857,15.4181818 L52.6642857,15.1272727 L52.6642857,15.1272727 C52.6642857,14.9818182 52.6642857,14.9818182 52.6642857,14.8363636 C52.6642857,12.6545455 52.52,10.7636364 51.9428571,9.01818182 C51.3657143,7.12727273 50.5,5.67272727 49.3457143,4.36363636 C48.1914286,3.05454545 46.7485714,2.03636364 45.1614286,1.45454545 C43.5742857,0.727272727 41.6985714,0.436363636 39.5342857,0.436363636 C37.5142857,0.436363636 35.6385714,0.727272727 33.9071429,1.45454545 C32.32,2.18181818 30.8771429,3.2 29.7228571,4.36363636 C28.5685714,5.67272727 27.7028571,7.27272727 26.9814286,9.01818182 C26.4042857,10.9090909 26.1157143,12.9454545 26.1157143,15.2727273 C26.1157143,17.6 26.4042857,19.6363636 26.9814286,21.5272727 C27.5585714,23.4181818 28.4242857,24.8727273 29.5785714,26.1818182 C30.7328571,27.4909091 32.1757143,28.5090909 33.7628571,29.0909091 C35.35,29.8181818 37.2257143,30.1090909 39.39,30.1090909 C41.5542857,30.1090909 43.43,29.8181818 45.0171429,29.0909091 C46.0271429,28.6545455 47.0371429,28.0727273 47.9028571,27.4909091 L47.6142857,26.7636364 L45.45,21.8181818 C45.3057143,21.9636364 44.0071429,24.4363636 39.39,24.4363636 C36.7928571,24.4363636 34.7728571,23.5636364 33.7628571,22.2545455 C32.4642857,20.5090909 31.7428571,18.4727273 31.7428571,15.4181818 C31.7428571,12.2181818 32.6085714,9.89090909 34.0514286,8.29090909 C35.0614286,7.12727273 36.9371429,6.25454545 39.5342857,6.25454545 C41.5542857,6.25454545 44.1514286,6.83636364 45.45,8.72727273 C46.3157143,10.0363636 47.1814286,12.0727273 47.1814286,15.2727273 L47.1814286,15.2727273 L47.1814286,15.5636364 L47.1814286,15.5636364 C47.1814286,15.7090909 47.1814286,15.7090909 47.1814286,15.8545455 C47.1814286,18.0363636 47.47,19.9272727 48.0471429,21.6727273 C48.6242857,23.5636364 49.49,25.0181818 50.6442857,26.3272727 C51.7985714,27.6363636 53.2414286,28.6545455 54.8285714,29.2363636 C56.4157143,29.9636364 58.2914286,30.2545455 60.4557143,30.2545455 C62.4757143,30.2545455 64.3514286,29.9636364 66.0828571,29.2363636 C67.67,28.5090909 69.1128571,27.4909091 70.2671429,26.3272727 C71.4214286,25.0181818 72.2871429,23.4181818 73.0085714,21.6727273 C73.5857143,19.7818182 73.8742857,17.7454545 73.8742857,15.4181818 C73.8742857,13.0909091 73.5857143,11.0545455 73.0085714,9.16363636 C72.2871429,7.41818182 71.4214286,5.81818182 70.2671429,4.50909091 Z" id="Path"></path>
                    </g>
                    <g id="Group" transform="translate(0.000000, 34.909091)">
                        <path d="M21.3542857,16.5818182 C21.0657143,16 20.6328571,15.5636364 20.0557143,14.9818182 C19.4785714,14.5454545 18.9014286,13.9636364 18.0357143,13.5272727 C19.3342857,12.8 20.2,12.0727273 20.6328571,11.0545455 C21.0657143,10.0363636 21.3542857,9.01818182 21.3542857,8 C21.3542857,6.98181818 21.21,5.96363636 20.9214286,4.94545455 C20.6328571,4.07272727 20.0557143,3.2 19.3342857,2.47272727 C18.6128571,1.74545455 17.4585714,1.30909091 16.16,0.872727273 C14.8614286,0.436363636 13.13,0.290909091 11.11,0.290909091 L1.01,0.290909091 L1.01,28.3636364 L11.6871429,28.3636364 C13.7071429,28.3636364 15.2942857,28.0727273 16.5928571,27.6363636 C17.8914286,27.2 19.0457143,26.6181818 19.7671429,25.8909091 C20.6328571,25.1636364 21.21,24.2909091 21.4985714,23.1272727 C21.7871429,22.1090909 22.0757143,20.9454545 22.0757143,19.7818182 C22.0757143,19.2 22.0757143,18.6181818 21.9314286,18.0363636 C21.7871429,17.6 21.6428571,17.0181818 21.3542857,16.5818182 Z M6.63714286,4.94545455 L10.8214286,4.94545455 C12.5528571,4.94545455 13.8514286,5.23636364 14.5728571,5.67272727 C15.2942857,6.10909091 15.7271429,6.98181818 15.7271429,8.14545455 C15.7271429,9.16363636 15.4385714,10.0363636 14.8614286,10.6181818 C14.2842857,11.2 13.2742857,11.4909091 11.6871429,11.4909091 L6.63714286,11.4909091 L6.63714286,4.94545455 L6.63714286,4.94545455 Z M16.3042857,21.5272727 C16.16,21.9636364 15.8714286,22.4 15.4385714,22.8363636 C15.0057143,23.1272727 14.5728571,23.4181818 13.8514286,23.7090909 C13.2742857,23.8545455 12.4085714,24 11.3985714,24 L6.49285714,24 L6.49285714,16.2909091 L11.9757143,16.2909091 C13.5628571,16.2909091 14.7171429,16.5818182 15.4385714,17.1636364 C16.0157143,17.7454545 16.4485714,18.7636364 16.4485714,19.9272727 C16.4485714,20.5090909 16.4485714,21.0909091 16.3042857,21.5272727 Z" id="Shape"></path>
                        <path d="M32.7528571,0.436363636 L22.22,28.5090909 L28.28,28.5090909 L30.4442857,21.9636364 L40.2557143,21.9636364 L42.42,28.5090909 L48.6242857,28.5090909 L38.0914286,0.436363636 L32.7528571,0.436363636 Z M32.0314286,17.1636364 L35.35,7.12727273 L38.8128571,17.1636364 L32.0314286,17.1636364 Z" id="Shape"></path>
                        <polygon id="Path" points="67.67 18.7636364 56.1271429 0.436363636 50.9328571 0.436363636 50.9328571 28.5090909 56.56 28.5090909 56.56 10.1818182 68.1028571 28.5090909 73.2971429 28.5090909 73.2971429 0.436363636 67.67 0.436363636"></polygon>
                        <polygon id="Path" points="89.89 10.9090909 99.1242857 0.436363636 92.7757143 0.436363636 82.5314286 11.6363636 82.5314286 0.436363636 76.6157143 0.436363636 76.6157143 28.5090909 82.5314286 28.5090909 82.5314286 18.1818182 85.85 14.6909091 93.7857143 28.5090909 100.134286 28.5090909"></polygon>
                    </g>
                </g>
            </g>
        </g>
    </g>
</svg>