<?xml version="1.0" encoding="utf-8"?>
<!-- Generator: Adobe Illustrator 24.0.1, SVG Export Plug-In . SVG Version: 6.00 Build 0)  -->
<svg version="1.1" id="Layer_1" xmlns="http://www.w3.org/2000/svg" xmlns:xlink="http://www.w3.org/1999/xlink" x="0px" y="0px"
	 width="439.4px" height="439.4px" viewBox="0 0 439.4 439.4" style="enable-background:new 0 0 439.4 439.4;" xml:space="preserve"
	>
<style type="text/css">
	.st0{enable-background:new    ;}
	.st1{fill:#020203;}
	.st2{font-family:'FuturaPT-Demi';}
	.st3{font-size:27.6417px;}
	.st4{font-family:'FuturaPT-Light';}
	.st5{fill-rule:evenodd;clip-rule:evenodd;fill:#020203;}
</style>
<g id="Page-1">
	<g id="Group-8" transform="translate(-2.000000, 0.000000)">
		<g id="Clip-1">
		</g>
		<g class="st0">
			<path class="st1" d="M59.6,201.1c1,0,3,0,4.5,1.2c1.1,0.8,1.7,2.3,1.7,3.8c0,2.4-1.6,3.3-2.1,3.6c1.2,0.2,1.9,0.7,2.4,1.2
				c1.1,1.1,1.3,2.5,1.3,3.5c0,1.1-0.3,2.6-1.6,3.7c-1.4,1.2-3.1,1.5-4.7,1.5h-6.2v-18.5H59.6z M58.7,208.8h1c0.6,0,2.8-0.1,2.8-2.4
				c0-1.7-1.3-2.3-2.8-2.3h-1.1L58.7,208.8L58.7,208.8z M58.7,216.7h1.5c0.7,0,1.7,0,2.5-0.5c0.9-0.5,1.1-1.4,1.1-2.1
				c0-0.6-0.2-1.6-1.4-2.1c-0.8-0.4-1.7-0.4-2.5-0.4h-1.3v5.1H58.7z"/>
			<path class="st1" d="M81.1,204.2h-6.6v4.1h6.4v3.1h-6.4v5h6.6v3.1H70.8v-18.4H81v3.1H81.1z"/>
		</g>
		<text transform="matrix(1 0 0 1 82.407 229.598)" class="st1 st2 st3"> </text>
		<g class="st0">
			<path class="st1" d="M93.6,205.4c-1.1-1.4-2.4-1.6-3-1.6c-1.9,0-2.5,1.2-2.5,2.2c0,0.4,0.1,0.9,0.6,1.2c0.4,0.4,1.1,0.6,2.2,1.1
				c1.4,0.5,2.8,1,3.7,1.9c0.8,0.7,1.6,2,1.6,3.9c0,3.6-2.6,6.1-6.4,6.1c-3.4,0-5.4-2.1-6.4-3.5l2.4-2.2c0.9,1.8,2.6,2.5,3.9,2.5
				c1.6,0,2.8-1,2.8-2.5c0-0.7-0.2-1.2-0.7-1.7c-0.7-0.6-1.8-1-2.8-1.4c-1-0.3-2.1-0.8-3.1-1.6c-0.6-0.5-1.5-1.5-1.5-3.4
				c0-2.7,1.8-5.4,5.9-5.4c1.2,0,3.3,0.2,5.2,2.2L93.6,205.4z"/>
		</g>
		<text transform="matrix(1 0 0 1 96.8918 229.598)" class="st1 st2 st3"> </text>
		<g class="st0">
			<path class="st1" d="M104.5,204.2v15.3h-3.6v-15.3h-4.1v-3.1h11.9v3.1H104.5z"/>
			<path class="st1" d="M136.2,210.4c0,5.6-4,9.6-9.8,9.6c-5.8,0-9.8-4-9.8-9.6c0-5.6,4-9.6,9.8-9.6
				C132.2,200.8,136.2,204.8,136.2,210.4z M132.5,210.4c0-3.7-2.5-6.4-6.1-6.4c-3.6,0-6.2,2.7-6.2,6.4s2.5,6.4,6.1,6.4
				C129.9,216.8,132.5,214.1,132.5,210.4z"/>
			<path class="st1" d="M149.3,204.2h-6.2v4.1h5.8v3.1h-5.8v8.1h-3.6v-18.4h9.8V204.2z"/>
			<path class="st1" d="M162.2,204.2H156v4.1h5.8v3.1H156v8.1h-3.6v-18.4h9.8V204.2z"/>
			<path class="st1" d="M168.9,201.1v18.4h-3.6v-18.4H168.9z"/>
			<path class="st1" d="M186.4,218.9c-1.1,0.6-2.6,1.1-4.6,1.1c-3.2,0-5.2-1.1-6.7-2.6c-2.1-2-3-4.3-3-7.1c0-3.3,1.4-5.8,3-7.2
				c1.9-1.7,4.1-2.4,6.8-2.4c1.3,0,2.8,0.2,4.5,1.1v4.2c-1.7-1.9-3.8-2.1-4.5-2.1c-3.7,0-6.1,3-6.1,6.4c0,4.1,3.2,6.3,6.2,6.3
				c1.7,0,3.2-0.7,4.3-2v4.3H186.4z"/>
			<path class="st1" d="M200,204.2h-6.6v4.1h6.4v3.1h-6.4v5h6.6v3.1h-10.2v-18.4H200V204.2z"/>
			<path class="st1" d="M213.5,201.1v18.4h-3.6v-18.4H213.5z"/>
			<path class="st1" d="M217.7,219.6v-18.5h2.5l11.2,12.3v-12.3h3.6v18.4h-2.5l-11.2-12.3v12.3L217.7,219.6L217.7,219.6z"/>
			<path class="st1" d="M245,204.2v15.3h-3.6v-15.3h-4.1v-3.1h11.9v3.1H245z"/>
			<path class="st1" d="M261.7,204.2h-6.6v4.1h6.4v3.1h-6.4v5h6.6v3.1h-10.2v-18.4h10.2V204.2z"/>
			<path class="st1" d="M270.5,201.1c2.5,0,3.8,0.7,4.7,1.4c1.4,1.2,1.8,2.8,1.8,4.1c0,1.8-0.7,3.4-2.2,4.3c-0.5,0.3-1.1,0.6-2,0.8
				l5.8,7.8h-4.5l-4.9-7.4h-0.4v7.4h-3.6v-18.4H270.5z M268.7,209.6h1c0.7,0,3.5-0.1,3.5-2.8c0-2.7-2.8-2.8-3.5-2.8h-1.1v5.6H268.7z
				"/>
			<path class="st1" d="M284.6,201.1v18.4H281v-18.4H284.6z"/>
			<path class="st1" d="M307.6,210.4c0,5.6-4,9.6-9.8,9.6s-9.8-4-9.8-9.6c0-5.6,4-9.6,9.8-9.6S307.6,204.8,307.6,210.4z
				 M303.9,210.4c0-3.7-2.5-6.4-6.1-6.4s-6.1,2.7-6.1,6.4c0,3.7,2.5,6.4,6.1,6.4S303.9,214.1,303.9,210.4z"/>
			<path class="st1" d="M316.2,201.1c2.5,0,3.8,0.7,4.7,1.4c1.4,1.2,1.8,2.8,1.8,4.1c0,1.8-0.7,3.4-2.2,4.3c-0.5,0.3-1.1,0.6-2,0.8
				l5.8,7.8h-4.5l-4.9-7.4h-0.4v7.4h-3.6v-18.4H316.2z M314.5,209.6h1c0.7,0,3.5-0.1,3.5-2.8c0-2.7-2.8-2.8-3.5-2.8h-1.1v5.6H314.5z
				"/>
			<path class="st1" d="M338,201.1c2.6,0,4.8,0.3,6.9,1.8c2.2,1.7,3.5,4.4,3.5,7.4c0,3.1-1.3,5.7-3.7,7.4c-2.2,1.5-4.2,1.8-6.7,1.8
				h-4.8v-18.4H338z M336.8,216.5h1.1c0.9,0,2.9-0.1,4.5-1.2c1.5-1.1,2.3-2.9,2.3-4.9c0-1.9-0.8-3.8-2.3-4.9
				c-1.5-1.1-3.3-1.2-4.5-1.2h-1.1V216.5z"/>
			<path class="st1" d="M355.3,201.1v11.6c0,1.4,0.5,2.3,0.9,2.7c0.5,0.6,1.5,1.3,2.9,1.3s2.4-0.6,2.9-1.3c0.4-0.5,0.9-1.3,0.9-2.7
				v-11.6h3.6v11.3c0,1.7-0.3,3.5-1.4,4.9c-1.3,1.7-3.7,2.7-6,2.7c-2.4,0-4.7-0.9-6-2.7c-1.1-1.4-1.4-3.2-1.4-4.9v-11.3H355.3z"/>
			<path class="st1" d="M375.3,201.1c1,0,3,0,4.5,1.2c1.1,0.8,1.7,2.3,1.7,3.8c0,2.4-1.6,3.3-2.1,3.6c1.2,0.2,1.9,0.7,2.4,1.2
				c1.1,1.1,1.3,2.5,1.3,3.5c0,1.1-0.3,2.6-1.6,3.7c-1.4,1.2-3.1,1.5-4.7,1.5h-6.2v-18.5H375.3z M374.3,208.8h1
				c0.6,0,2.8-0.1,2.8-2.4c0-1.7-1.3-2.3-2.8-2.3h-1.1v4.7H374.3z M374.3,216.7h1.5c0.7,0,1.7,0,2.5-0.5c0.9-0.5,1.1-1.4,1.1-2.1
				c0-0.6-0.2-1.6-1.4-2.1c-0.8-0.4-1.7-0.4-2.5-0.4h-1.3L374.3,216.7L374.3,216.7z"/>
			<path class="st1" d="M397.4,215.7H390l-1.6,3.9h-3.9l7.9-18.4h2.8l7.7,18.4H399L397.4,215.7z M396.4,212.8l-2.6-6.6l-2.6,6.6
				H396.4z"/>
			<path class="st1" d="M408.7,201.1v18.4h-3.6v-18.4H408.7z"/>
		</g>
		<g class="st0">
			<path class="st1" d="M94.5,284c-1.1-2.2-3.1-2.3-3.6-2.3c-2.2,0-3.4,1.6-3.4,3.4c0,2,1.4,2.7,3.2,3.6c1.8,0.9,2.7,1.3,3.7,1.9
				c0.8,0.6,2,1.5,2,3.6c0,3.1-2.6,5.4-5.8,5.4c-2.4,0-3.6-1.1-4.3-1.9c-0.7-0.8-1-1.5-1.2-2l1.1-0.5c0.2,0.7,0.7,1.4,1,1.8
				c0.8,1.1,2.2,1.6,3.5,1.6c2.5,0,4.5-1.8,4.5-4.3c0-1-0.4-2-1.8-2.9c-0.5-0.3-1.6-0.9-3.1-1.6c-1.8-0.9-2.7-1.4-3.4-2.4
				c-0.4-0.7-0.6-1.4-0.6-2.1c0-2.1,1.4-4.6,4.7-4.6c1.9,0,3.5,0.9,4.5,2.6L94.5,284z"/>
			<path class="st1" d="M98.7,288l3.9,9.3l3.9-10l3.9,10l4-9.3h1.2l-5.2,12l-3.9-10l-3.9,10l-5.1-12H98.7z"/>
			<path class="st1" d="M117.4,284.2c0-0.6,0.4-1,1-1s1,0.4,1,1s-0.4,1-1,1C117.8,285.3,117.4,284.8,117.4,284.2z M118.9,288v11.3
				h-1.1V288H118.9z"/>
			<path class="st1" d="M127.7,290.1c-0.4-0.9-1.2-1.3-2-1.3c-1.3,0-1.9,1-1.9,1.8c0,1.1,0.9,1.5,2,1.9s2.2,0.7,2.9,1.7
				c0.5,0.6,0.6,1.2,0.6,1.8c0,2.6-1.9,3.6-3.7,3.6c-1.9,0-3.4-1.1-3.9-3l1.1-0.3c0.4,1.5,1.6,2.3,2.8,2.3c1.4,0,2.5-1,2.5-2.5
				c0-1.3-0.8-1.7-2.5-2.4c-1.1-0.5-2-0.8-2.5-1.5c-0.2-0.3-0.5-0.8-0.5-1.5c0-1.7,1.3-2.9,3-2.9c1.3,0,2.4,0.6,3,1.8L127.7,290.1z"
				/>
			<path class="st1" d="M136.9,290.1c-0.4-0.9-1.2-1.3-2-1.3c-1.3,0-1.9,1-1.9,1.8c0,1.1,0.9,1.5,2,1.9c1.1,0.4,2.2,0.7,2.9,1.7
				c0.5,0.6,0.6,1.2,0.6,1.8c0,2.6-1.9,3.6-3.7,3.6c-1.9,0-3.4-1.1-3.9-3l1.1-0.3c0.4,1.5,1.6,2.3,2.8,2.3c1.4,0,2.5-1,2.5-2.5
				c0-1.3-0.8-1.7-2.5-2.4c-1.1-0.5-2-0.8-2.5-1.5c-0.2-0.3-0.5-0.8-0.5-1.5c0-1.7,1.3-2.9,3-2.9c1.3,0,2.4,0.6,3,1.8L136.9,290.1z"
				/>
			<path class="st1" d="M148.3,280.8h4c3.2,0,5.1,1.9,5.1,4.6c0,2-0.9,3.3-2.2,4c2.4,0.4,3.8,2.2,3.8,4.6c0,3.2-2.4,5.2-5.7,5.2
				h-5.1L148.3,280.8L148.3,280.8z M149.5,289.2h2.9c0.9,0,1.7-0.1,2.5-0.8c0.7-0.6,1.2-1.5,1.2-2.8c0-1.5-0.6-2.4-1.2-2.9
				c-0.9-0.7-2.1-0.8-3.1-0.8h-2.4v7.3H149.5z M149.5,298.2h3.1c1.2,0,2.8,0,4-1.1c1-0.9,1.2-2,1.2-2.8c0-1.7-0.6-2.8-2-3.4
				c-0.5-0.2-1.4-0.5-3.5-0.5h-2.9L149.5,298.2L149.5,298.2z"/>
			<path class="st1" d="M163.7,288v6.8c0,0.8,0,2,0.7,2.8c0.7,0.8,1.7,0.9,2.2,0.9s1.5-0.1,2.2-0.9c0.7-0.8,0.7-2,0.7-2.8V288h1.1
				v7.1c0,0.9-0.1,2.1-0.9,3.1c-0.9,1.1-2.2,1.4-3.2,1.4s-2.4-0.3-3.2-1.4c-0.8-1-0.9-2.2-0.9-3.1V288H163.7z"/>
		</g>
		<text transform="matrix(1 0 0 1 169.6438 299.2836)" class="st1 st4 st3"> </text>
		<text transform="matrix(1 0 0 1 172.9344 299.2836)" class="st1 st4 st3">r</text>
		<text transform="matrix(1 0 0 1 179.4577 299.2836)" class="st1 st4 st3"> </text>
		<g class="st0">
			<path class="st1" d="M182.2,293.8c0,2.9,2.1,4.8,4.5,4.8c1.8,0,3.2-1.1,3.9-2.6l0.9,0.6c-0.7,1.3-2.2,3.1-4.9,3.1
				c-3.5,0-5.6-2.6-5.6-5.9c0-3.9,2.7-5.9,5.5-5.9c3,0,5.3,2.4,5.3,6h-9.6V293.8z M190.7,292.7c-0.3-2.2-1.9-3.9-4.2-3.9
				s-3.9,1.7-4.2,3.9H190.7z"/>
			<path class="st1" d="M204.3,288h1.1v11.3h-1.1v-2c-1.1,1.7-2.9,2.3-4.4,2.3c-3,0-5.5-2.2-5.5-5.9c0-3.5,2.2-5.9,5.5-5.9
				c1.8,0,3.3,0.7,4.4,2.2V288z M195.6,293.6c0,2.5,1.6,5,4.4,5c2.8,0,4.4-2.4,4.4-5c0-3.3-2.5-4.8-4.4-4.8
				C197.8,288.8,195.6,290.5,195.6,293.6z"/>
			<path class="st1" d="M210.5,288v6.8c0,0.8,0,2,0.7,2.8c0.7,0.8,1.7,0.9,2.2,0.9s1.5-0.1,2.2-0.9c0.7-0.8,0.7-2,0.7-2.8V288h1.1
				v7.1c0,0.9-0.1,2.1-0.9,3.1c-0.9,1.1-2.2,1.4-3.2,1.4s-2.4-0.3-3.2-1.4c-0.8-1-0.9-2.2-0.9-3.1V288H210.5z"/>
			<path class="st1" d="M229.7,280.8v18.4h-1.2v-18.4H229.7z"/>
			<path class="st1" d="M234.2,288h1.1v1.8c0.5-0.9,1.5-2,3.5-2s2.9,1.2,3.1,1.6c0.5,0.8,0.6,1.9,0.6,2.8v7.1h-1.1v-7.1
				c0-0.8,0-1.6-0.4-2.3c-0.2-0.4-0.9-1.1-2.2-1.1c-1.5,0-2.4,0.8-2.8,1.6c-0.5,0.9-0.6,1.9-0.6,3v5.9h-1.2V288z"/>
			<path class="st1" d="M247.6,289v10.2h-1.1V289h-1.3v-1.1h1.2v-4h1.1v4h2v1.1H247.6z"/>
			<path class="st1" d="M252.2,293.8c0,2.9,2.1,4.8,4.5,4.8c1.8,0,3.2-1.1,3.9-2.6l0.9,0.6c-0.7,1.3-2.2,3.1-4.9,3.1
				c-3.5,0-5.6-2.6-5.6-5.9c0-3.9,2.7-5.9,5.5-5.9c3,0,5.3,2.4,5.3,6h-9.6V293.8z M260.7,292.7c-0.3-2.2-1.9-3.9-4.2-3.9
				c-2.3,0-3.9,1.7-4.2,3.9H260.7z"/>
			<path class="st1" d="M265.1,288h1.1v1.5c0.4-1,1.3-1.7,2.5-1.7c0.3,0,0.8,0.1,1.2,0.3l-0.6,1c-0.1-0.1-0.3-0.2-0.8-0.2
				c-2.3,0-2.3,3-2.3,4.4v6.1h-1.1L265.1,288L265.1,288z"/>
			<path class="st1" d="M271.8,284.2c0-0.6,0.4-1,1-1s1,0.4,1,1s-0.4,1-1,1C272.3,285.3,271.8,284.8,271.8,284.2z M273.4,288v11.3
				h-1.1V288H273.4z"/>
			<path class="st1" d="M288.5,293.7c0,3.3-2.6,5.9-5.9,5.9s-5.9-2.6-5.9-5.9s2.6-5.9,5.9-5.9S288.5,290.3,288.5,293.7z
				 M287.3,293.7c0-2.7-2-4.9-4.8-4.9c-2.7,0-4.8,2.1-4.8,4.9s2,4.9,4.8,4.9C285.3,298.5,287.3,296.4,287.3,293.7z"/>
			<path class="st1" d="M291.7,288h1.1v1.5c0.4-1,1.3-1.7,2.5-1.7c0.3,0,0.8,0.1,1.2,0.3l-0.6,1c-0.1-0.1-0.3-0.2-0.8-0.2
				c-2.3,0-2.3,3-2.3,4.4v6.1h-1.1L291.7,288L291.7,288z"/>
			<path class="st1" d="M305.9,299.3v-18.4h3.6c1.6,0,4.5,0.2,6.8,2.6c2,2,2.7,4.6,2.7,6.7c0,2.1-0.7,4.7-2.7,6.6
				c-2.3,2.3-5.2,2.6-6.8,2.6h-3.6V299.3z M307.1,298.2h2.4c4.9,0,8.2-3.3,8.2-8.1c0-4.7-3.4-8.1-8.2-8.1h-2.4V298.2z"/>
			<path class="st1" d="M322.9,293.8c0,2.9,2.1,4.8,4.5,4.8c1.8,0,3.2-1.1,3.9-2.6l0.9,0.6c-0.7,1.3-2.2,3.1-4.9,3.1
				c-3.5,0-5.6-2.6-5.6-5.9c0-3.9,2.7-5.9,5.5-5.9c3,0,5.3,2.4,5.3,6h-9.6V293.8z M331.4,292.7c-0.3-2.2-1.9-3.9-4.2-3.9
				c-2.3,0-3.9,1.7-4.2,3.9H331.4z"/>
			<path class="st1" d="M340.6,290.1c-0.4-0.9-1.2-1.3-2-1.3c-1.3,0-1.9,1-1.9,1.8c0,1.1,0.9,1.5,2,1.9s2.2,0.7,2.9,1.7
				c0.5,0.6,0.6,1.2,0.6,1.8c0,2.6-1.9,3.6-3.7,3.6c-1.9,0-3.4-1.1-3.9-3l1.1-0.3c0.4,1.5,1.6,2.3,2.8,2.3c1.4,0,2.5-1,2.5-2.5
				c0-1.3-0.8-1.7-2.5-2.4c-1.1-0.5-2-0.8-2.5-1.5c-0.2-0.3-0.5-0.8-0.5-1.5c0-1.7,1.3-2.9,3-2.9c1.3,0,2.4,0.6,3,1.8L340.6,290.1z"
				/>
			<path class="st1" d="M344.6,284.2c0-0.6,0.4-1,1-1s1,0.4,1,1s-0.4,1-1,1C345,285.3,344.6,284.8,344.6,284.2z M346.1,288v11.3H345
				V288H346.1z"/>
			<path class="st1" d="M360.5,288v10.9c0,4.3-2.1,6.7-5.7,6.7c-2.9,0-5.4-1.7-5.5-4.8h1.2c0.2,2.4,2,3.8,4.4,3.8
				c4.5,0,4.6-4.5,4.6-5.6v-1.6c-1.1,1.6-2.8,2.2-4.5,2.2c-2.8,0-5.6-2-5.6-5.9c0-3.3,2.2-5.9,5.7-5.9c1.9,0,3.3,0.8,4.3,2.2v-2
				L360.5,288L360.5,288z M350.5,293.7c0,2.7,1.7,4.8,4.4,4.8c2.8,0,4.5-2.2,4.5-4.9c0-2.6-1.7-4.8-4.5-4.8
				C352.2,288.8,350.5,291.1,350.5,293.7z"/>
			<path class="st1" d="M364.5,288h1.1v1.8c0.5-0.9,1.5-2,3.5-2s2.9,1.2,3.1,1.6c0.5,0.8,0.6,1.9,0.6,2.8v7.1h-1.1v-7.1
				c0-0.8,0-1.6-0.4-2.3c-0.2-0.4-0.9-1.1-2.2-1.1c-1.5,0-2.3,0.8-2.8,1.6c-0.5,0.9-0.6,1.9-0.6,3v5.9h-1.1V288H364.5z"/>
		</g>
		<g class="st0">
			<path class="st1" d="M162.5,255.2h-4v9.3h-5.3v-26.8h10.7c4.9,0,8.9,4,8.9,8.9c0,3.4-2.1,6.4-5.2,7.8l5.9,10.1h-5.7L162.5,255.2z
				 M158.5,250.5h5.4c2,0,3.6-1.8,3.6-4s-1.6-3.9-3.6-3.9h-5.4V250.5z"/>
			<path class="st1" d="M193.2,259.4v5h-16.5v-26.7H193v5h-11.1v5.7H192v5h-10.1v6H193.2z"/>
		</g>
		<g class="st0">
			<path class="st1" d="M195,237.7h5.7l6.5,20.5l6.5-20.5h5.8l-9,26.7H204L195,237.7z"/>
		</g>
		<g class="st0">
			<path class="st1" d="M218.8,251.1c0-7.8,6.1-13.9,13.9-13.9c7.7,0,13.9,6.1,13.9,13.9s-6.2,13.9-13.9,13.9
				S218.8,258.9,218.8,251.1z M241.3,251.1c0-5.2-3.8-8.8-8.6-8.8s-8.6,3.6-8.6,8.8c0,5.1,3.8,8.7,8.6,8.7S241.3,256.2,241.3,251.1z
				"/>
			<path class="st1" d="M271,237.7v26.7h-4l-11.4-16.3v16.3h-5.4v-26.7h4l11.4,16.3v-16.3H271z"/>
			<path class="st1" d="M281.2,237.7v26.7h-5.3v-26.7H281.2z"/>
			<path class="st1" d="M284.9,251.1c0-7.8,5.8-13.9,13.9-13.9c4.9,0,9.2,2.5,11.5,6.3l-4.5,2.6c-1.3-2.4-3.9-3.8-6.9-3.8
				c-5.2,0-8.7,3.6-8.7,8.8c0,5.1,3.4,8.7,8.7,8.7c3.1,0,5.7-1.5,6.9-3.8l4.5,2.6c-2.3,3.8-6.6,6.3-11.5,6.3
				C290.7,265,284.9,258.9,284.9,251.1z"/>
		</g>
		<polygon id="Fill-3" class="st5" points="131.8,146.3 125.7,158.6 112,160.6 121.9,170.3 119.6,183.9 131.8,177.5 144,183.9 
			141.7,170.3 151.6,160.6 137.9,158.6 		"/>
		<polygon id="Fill-4" class="st5" points="181.2,146.3 175.1,158.6 161.5,160.6 171.4,170.3 169,183.9 181.2,177.5 193.5,183.9 
			191.1,170.3 201,160.6 187.4,158.6 		"/>
		<polygon id="Fill-5" class="st5" points="232.3,146.3 226.2,158.6 212.6,160.6 222.4,170.3 220.1,183.9 232.3,177.5 244.6,183.9 
			242.2,170.3 252.1,160.6 238.4,158.6 		"/>
		<polygon id="Fill-6" class="st5" points="281.8,146.3 275.6,158.6 262,160.6 271.9,170.3 269.5,183.9 281.8,177.5 294,183.9 
			291.6,170.3 301.5,160.6 287.9,158.6 		"/>
		<polygon id="Fill-7" class="st5" points="332.3,146.3 326.2,158.6 312.5,160.6 322.4,170.3 320,183.9 332.3,177.5 344.5,183.9 
			342.2,170.3 352,160.6 338.4,158.6 		"/>
	</g>
</g>
</svg>
