<?xml version="1.0" encoding="UTF-8"?>
<svg width="260px" height="59px" viewBox="0 0 260 59" version="1.1" xmlns="http://www.w3.org/2000/svg" xmlns:xlink="http://www.w3.org/1999/xlink">
    <!-- Generator: Sketch 61.2 (89653) - https://sketch.com -->
    <title>Group 2</title>
    <desc>Created with Sketch.</desc>
    <g id="Page-1" stroke="none" stroke-width="1" fill="none" fill-rule="evenodd">
        <g id="Group-2" transform="translate(0.000000, -2.000000)">
            <g id="Group" transform="translate(0.000000, 1.990831)" fill-rule="nonzero">
                <path d="M27.0021659,54.0985162 C41.6430202,54.2147311 53.9941373,42.5753087 54.0987045,27.2385313 C54.2011232,12.1542703 42.6235177,0.780994322 28.5871482,0.0413798674 C12.0282718,-0.831666485 0.343950367,12.2468118 0.00804582271,26.3346378 C-0.362953227,41.9059971 12.1471634,54.1767102 27.0021659,54.0985162" id="Fill-2" fill="#FFFFFF"></path>
                <path d="M229.967605,24.935214 L231.311234,24.935214 C236.352024,24.935214 241.393785,24.9391174 246.435547,24.9322864 C247.800518,24.9303347 248.280732,24.4697252 248.246779,23.1357146 C248.222524,22.2486514 248.136184,21.3606121 248.019768,20.4803798 C247.692833,17.9870388 246.936133,15.6732573 245.206393,13.7654368 C242.673386,10.9734805 239.458378,10.1352105 235.814573,10.1428571 C231.759434,10.1518002 226.726403,13.5126871 225.232404,17.478612 C224.284589,19.9973255 224.202127,22.5911807 224.264216,25.2328534 C224.376751,29.9765444 227.607281,34.5484827 232.049501,36.1781811 C235.216004,37.3384873 238.501832,37.1843004 241.769226,37.05451 C242.85092,37.0125477 243.974329,36.7031978 244.976472,36.2738162 C246.23473,35.7331857 245.596385,34.6138659 245.414001,33.7248507 C245.244228,32.9051222 244.542825,32.6875039 243.815228,32.7236108 C241.512142,32.8377874 239.211966,33.0963922 236.90985,33.1090785 C232.779039,33.1315235 229.462168,29.2270784 229.967605,24.935214" id="Fill-4" fill="#FFFFFF"></path>
                <path d="M131.112819,24.9424974 L132.503133,24.9424974 C137.763645,24.9424974 143.025169,24.9454241 148.285681,24.9405463 C149.86029,24.9385951 150.284574,24.536656 150.246095,23.0098724 C150.225843,22.2001405 150.08509,21.3943111 150.017245,20.5865304 C149.846114,18.5514696 149.234497,16.6461608 148.042654,14.9623087 C145.552645,11.445341 141.956865,10.2395236 137.661371,10.1448923 C133.073233,10.0444074 126.835552,13.673567 125.759147,19.1358421 C125.380431,21.0587115 125.264993,23.0527979 125.248791,25.0146903 C125.204236,30.6593992 129.494667,35.078779 134.184066,36.4319091 C137.259365,37.3196874 140.398457,37.1713992 143.526411,37.0533539 C144.655472,37.011404 145.831113,36.6962914 146.872077,36.255329 C148.179357,35.7011992 147.495845,34.5802572 147.293322,33.6934547 C147.105989,32.8661624 146.348557,32.7042159 145.591124,32.7422635 C143.346167,32.8544554 141.104247,33.0905458 138.858277,33.1149353 C134.218495,33.1666411 130.813086,29.6008944 131.112819,24.9424974" id="Fill-6" fill="#FFFFFF"></path>
                <path d="M203.236238,23.9408088 C203.087266,22.5878391 203.085306,21.1995489 202.765799,19.8887675 C200.838959,11.9789476 191.632076,7.77581346 184.409857,11.5374419 C178.344134,14.6966605 176.37025,20.7835524 177.593391,27.0244808 C179.009609,34.2534007 186.524872,38.5566096 193.660843,36.7189648 C198.529888,35.4650885 203.528302,31.0392392 203.236238,23.9408088" id="Fill-8" fill="#FFFFFF"></path>
                <path d="M79.3119987,37.1428571 C79.328556,37.0619995 79.3441393,36.9821161 79.3606966,36.9012585 C80.4466586,36.8535231 81.5472301,36.8973616 82.6146867,36.7317496 C83.6704563,36.5680861 84.7184338,36.2641393 85.7245314,35.895896 C89.9105985,34.3634978 92.5714487,28.189092 87.3890238,24.5495245 C85.3534538,23.12039 83.0110874,22.1247695 80.7963091,20.9537951 C79.9460447,20.5046944 79.0159159,20.192954 78.2026619,19.6873503 C76.2946802,18.5027373 75.7648476,16.2952264 77.2433142,15.0102721 C78.0760474,14.2874242 79.3529049,13.9250262 80.4865908,13.7340854 C82.5094995,13.3931194 84.4525436,14.05849 86.3770825,14.6420289 C87.7532837,15.0599558 88.0824811,14.8592728 88.6454283,13.3259004 C89.1246151,12.0185397 88.9824175,11.6298386 87.6539402,11.1232606 C85.1518447,10.168556 82.520213,9.99709884 79.9022167,10.2445428 C77.6426365,10.45789 75.4327282,11.0014871 73.5159809,12.3848346 C70.6116413,14.4793395 69.9201319,18.6284077 72.4056701,21.06193 C73.6455172,22.2757688 75.2954003,23.114545 76.8547053,23.9435792 C78.8250203,24.9918059 80.936559,25.7740792 82.9029782,26.8291251 C84.6220121,27.7516814 85.2385268,29.2568024 84.8138817,30.7999167 C84.4379343,32.1647547 82.970181,33.0386015 81.1634909,33.1145883 C78.1822088,33.2383101 75.323645,32.7210161 72.5283886,31.7127313 C72.1495193,31.5763448 71.389833,31.5558869 71.2914633,31.7400086 C70.822016,32.621649 70.3272459,33.5773278 70.2493293,34.5388516 C70.2162149,34.9470366 71.1229688,35.7156711 71.7044211,35.838419 C74.2201519,36.3703258 76.772893,36.723956 79.3119987,37.1428571" id="Fill-10" fill="#FFFFFF"></path>
                <path d="M114.379753,10.1291821 C114.307774,9.8924205 114.28691,9.85394695 114.28691,9.81645966 C114.273349,8.39786353 114.268133,6.98025417 114.249356,5.5626447 C114.212845,2.95530873 114.209715,2.95530873 111.415043,3.30551842 C108.848827,3.62711947 108.227093,4.23973985 108.249,6.62116589 C108.319936,14.3780644 108.304289,22.136936 108.56091,29.886929 C108.67566,33.3426603 110.222692,35.6254359 113.647443,36.617861 C116.269991,37.3774709 118.969734,37.1584664 121.650699,36.9128264 C121.861421,36.8940829 122.20567,36.6109556 122.215058,36.4373304 C122.269303,35.4350402 122.241138,34.4297902 122.241138,33.3505524 C121.171881,33.3505524 120.297698,33.3831071 119.427688,33.3446333 C115.939303,33.1897519 114.113743,31.8589549 114.222234,28.2335445 C114.350544,23.9008092 114.252486,19.5611683 114.253529,15.2244868 C114.253529,14.8131136 114.253529,14.4007541 114.253529,13.9489342 C115.914267,13.9489342 117.374715,13.9883944 118.828905,13.9183525 C119.155419,13.901582 119.70413,13.5207906 119.731253,13.2702179 C119.835571,12.2699007 119.774023,11.2547856 119.774023,10.1291821 L114.379753,10.1291821 Z" id="Fill-12" fill="#FFFFFF"></path>
                <path d="M167.634331,10.1508199 C161.802635,9.92656151 156.362399,14.4809571 155.072209,18.5322339 C154.260576,21.0809795 154.009812,23.6814019 154.495069,26.2954747 C154.941084,28.6901645 155.706775,30.9834504 157.32717,32.8954971 C160.622514,36.7819925 168.118631,38.0446649 172.779777,36.5041073 C174.172378,36.044865 174.503539,35.3447889 174.070923,34.0489652 C173.558867,32.5201079 172.852517,32.1827453 171.411103,32.5123077 C170.095072,32.8126188 168.740755,33.0671036 167.397924,33.1002547 C163.962842,33.1841078 162.087855,31.7644547 160.873277,28.438605 C159.921906,25.8372077 159.713255,23.1695078 160.226268,20.4667065 C161.052258,16.1102433 163.785776,13.246561 168.856566,14.1299441 C169.858664,14.3054506 170.857891,14.5306841 171.867647,14.6174624 C172.696508,14.687665 173.541639,13.7477297 173.74359,12.7492923 C173.941713,11.7732808 173.360745,11.3871663 172.598882,11.2097097 C170.950731,10.8284704 169.289181,10.499883 167.634331,10.1508199" id="Fill-14" fill="#FFFFFF"></path>
                <path d="M214.433117,37.1428571 L214.433117,35.6267504 C214.432135,30.042407 214.430175,24.4570657 214.432135,18.8717242 C214.433117,15.5121355 216.723728,13.52892 219.99673,14.0479295 C221.302005,14.2555333 222.1048,13.8053923 222.199015,12.8132857 C222.400203,10.6663826 222.02923,10.1094454 220.304892,10.1443788 C218.688512,10.1763178 217.071148,10.2641503 215.45771,10.3629617 C211.988427,10.5735597 209.275809,13.4590533 209.262069,16.9973011 C209.239496,23.381119 209.252255,29.7629404 209.250292,36.146758 L209.250292,37.1428571 L214.433117,37.1428571 Z" id="Fill-28" fill="#FFFFFF"></path>
                <path d="M101.670482,10.1428571 C100.337752,10.4213599 98.9836721,10.7146241 97.6228493,10.9852539 C96.5924,11.1899486 96.2418,11.6888916 96.2485423,12.6493813 C96.2957385,20.4326953 96.2743877,28.2150251 96.2788825,35.9973549 C96.2788825,36.3752526 96.3283262,36.7531502 96.3552956,37.1428571 L101.801957,37.1428571 C102.442476,33.7063503 102.389662,12.0589162 101.670482,10.1428571" id="Fill-46" fill="#FFFFFF"></path>
                <path d="M46.7682503,27.0326382 C47.0490063,16.6414512 38.1693805,6.8428167 26.2838028,7.26248147 C16.0619912,7.62332146 7.04628455,15.9434447 7.26544615,27.5972128 C7.46025645,37.9769217 16.0827613,47.4175859 28.2311897,46.8329247 C38.2517451,46.3494135 46.9222365,37.845642 46.7682503,27.0326382 M27.0021659,54.0985057 C12.1471634,54.177417 -0.362953227,41.9059884 0.00804582272,26.3346316 C0.343950367,12.2475252 12.0282718,-0.831668458 28.5871482,0.0413777597 C42.6235177,0.780992099 54.2011232,12.1549837 54.0987045,27.2385251 C53.9941372,42.5753 41.6430202,54.2154379 27.0021659,54.0985057" id="Fill-75" fill="#8FAAB8"></path>
                <path d="M242.925552,22.0091689 C243.473749,18.4611721 240.911096,14.4049141 237.98046,14.069678 C232.524914,13.4444282 230.225507,17.7739871 230,22.0091689 L242.925552,22.0091689 Z M229.71945,24.8015255 C229.213049,29.0943658 232.530839,32.998811 236.661582,32.9753901 C238.963664,32.9627038 241.263803,32.7040991 243.566853,32.5908986 C244.294439,32.5547914 244.99583,32.7714339 245.165601,33.5911626 C245.347981,34.4801775 245.985347,35.6004732 244.728078,36.1401279 C243.724982,36.5695095 242.60256,36.8788594 241.520883,36.9208217 C238.253539,37.0506121 234.967764,37.2047992 231.800343,36.044493 C227.359163,34.4147944 224.128684,29.842856 224.016151,25.0991652 C223.953093,22.4574922 224.035552,19.8646129 224.984324,17.3458994 C226.478299,13.3789989 231.51028,10.0181117 235.566325,10.0091689 C239.210072,10.001522 242.424059,10.8407679 244.957996,13.6317483 C246.687709,15.5395691 247.443427,17.8533503 247.771326,20.3466913 C247.88677,21.2269236 247.97408,22.114963 247.998331,23.0020262 C248.032287,24.3370127 247.55208,24.7966463 246.18616,24.798598 C241.145449,24.8054292 236.103767,24.8015255 231.063056,24.8015255 L229.71945,24.8015255 Z" id="Fill-76" fill="#8FAAB8"></path>
                <path d="M144.987119,22.0091689 C145.204588,17.896385 142.639673,14.390519 139.464016,14.0637933 C133.792546,13.4786573 131.275393,17.692429 131,22.0091689 L144.987119,22.0091689 Z M130.864372,24.8089434 C130.564639,29.4673824 133.971061,33.0331616 138.610842,32.9814554 C140.8558,32.95609 143.097719,32.7209731 145.342677,32.6087802 C146.10011,32.5707322 146.857542,32.73268 147.045888,33.55998 C147.247397,34.4467906 147.931922,35.5677427 146.623629,36.1218776 C145.582666,36.562844 144.407025,36.8779592 143.277964,36.9199097 C140.15001,37.0379558 137.01193,37.18527 133.935619,36.2984592 C129.247233,34.9453167 124.955789,30.525897 125.000344,24.8811369 C125.016546,22.9182511 125.131983,20.9241466 125.5107,19.0022354 C126.588117,13.5399108 132.824786,9.91071823 137.412924,10.011204 C141.708418,10.1058362 145.304198,11.3116645 147.794207,14.8276886 C148.987062,16.5125316 149.597666,18.4178574 149.768798,20.4529368 C149.837655,21.2607249 149.977395,22.0665616 149.997648,22.8753253 C150.036127,24.4030983 149.611843,24.8050411 148.037234,24.8069922 C142.776722,24.8118701 137.51621,24.8089434 132.254686,24.8089434 L130.864372,24.8089434 Z" id="Fill-77" fill="#8FAAB8"></path>
                <path d="M198,23.7914019 C197.915576,22.8843458 197.84506,21.801352 197.708989,20.7261779 C197.396129,18.2483897 196.308567,16.1557095 194.090734,14.8772297 C191.130974,13.1706349 186.566192,13.957467 184.642349,17.4410317 C182.464245,21.3830116 182.639049,25.5214552 184.0792,29.6344856 C185.021754,32.3243761 187.192906,33.7553353 189.961969,33.9830767 C192.652568,34.2039763 194.854509,33.0124877 196.385043,30.7800349 C197.79937,28.7186325 197.837114,26.3317457 198,23.7914019 M202.987791,23.8062489 C203.279855,30.9056363 198.281456,35.3304893 193.411448,36.5853422 C186.276478,38.4229807 178.761239,34.1188055 177.345026,26.8899104 C176.121888,20.6490033 178.094786,14.5621324 184.16147,11.4039059 C191.383666,7.64229017 200.590519,11.844429 202.516373,19.7542217 C202.836859,21.0649984 202.838819,22.4532839 202.987791,23.8062489" id="Fill-78" fill="#8FAAB8"></path>
                <path d="M79.3119987,37.1428571 C76.772893,36.723956 74.2201519,36.3703258 71.7044211,35.838419 C71.1229688,35.7156711 70.2162149,34.9470366 70.2493293,34.5388516 C70.3272459,33.5773278 70.822016,32.621649 71.2914633,31.7400086 C71.389833,31.5558869 72.1495193,31.5763448 72.5283886,31.7127313 C75.323645,32.7210161 78.1822088,33.2383101 81.1634909,33.1145883 C82.970181,33.0386015 84.4379343,32.1647547 84.8138817,30.7999167 C85.2385268,29.2568024 84.6220121,27.7516814 82.9029782,26.8291251 C80.936559,25.7740792 78.8250203,24.9918059 76.8547053,23.9435792 C75.2954003,23.114545 73.6455172,22.2757688 72.4056701,21.06193 C69.9201319,18.6284077 70.6116413,14.4793395 73.5159809,12.3848346 C75.4327282,11.0014871 77.6426365,10.45789 79.9022167,10.2445428 C82.520213,9.99709884 85.1518447,10.168556 87.6539402,11.1232606 C88.9824175,11.6298386 89.1246151,12.0185397 88.6454283,13.3259004 C88.0824811,14.8592728 87.7532837,15.0599558 86.3770825,14.6420289 C84.4525436,14.05849 82.5094995,13.3931194 80.4865908,13.7340854 C79.3529049,13.9250262 78.0760474,14.2874242 77.2433142,15.0102721 C75.7648476,16.2952264 76.2946802,18.5027373 78.2026619,19.6873503 C79.0159159,20.192954 79.9460447,20.5046944 80.7963091,20.9537951 C83.0110874,22.1247695 85.3534538,23.12039 87.3890238,24.5495245 C92.5714487,28.189092 89.9105985,34.3634978 85.7245314,35.895896 C84.7184338,36.2641393 83.6704563,36.5680861 82.6146867,36.7317496 C81.5472301,36.8973616 80.4466586,36.8535231 79.3606966,36.9012585 C79.3441393,36.9821161 79.328556,37.0619995 79.3119987,37.1428571" id="Fill-79" fill="#8FAAB8"></path>
                <path d="M114.379753,10.1291821 L119.774023,10.1291821 C119.774023,11.2547856 119.835571,12.2699007 119.731253,13.2702179 C119.70413,13.5207906 119.155419,13.901582 118.828905,13.9183525 C117.374715,13.9883944 115.914267,13.9489342 114.253529,13.9489342 C114.253529,14.4007541 114.253529,14.8131136 114.253529,15.2244868 C114.252486,19.5611683 114.350544,23.9008092 114.222234,28.2335445 C114.113743,31.8589549 115.939303,33.1897519 119.427688,33.3446333 C120.297698,33.3831071 121.171881,33.3505524 122.241138,33.3505524 C122.241138,34.4297902 122.269303,35.4350402 122.215058,36.4373304 C122.20567,36.6109556 121.861421,36.8940829 121.650699,36.9128264 C118.969734,37.1584664 116.269991,37.3774709 113.647443,36.617861 C110.222692,35.6254359 108.67566,33.3426603 108.56091,29.886929 C108.304289,22.136936 108.319936,14.3780644 108.249,6.62116589 C108.227093,4.23973985 108.848827,3.62711947 111.415043,3.30551842 C114.209715,2.95530873 114.212845,2.95530873 114.249356,5.5626447 C114.268133,6.98025417 114.273349,8.39786353 114.28691,9.81645966 C114.28691,9.85394695 114.307774,9.8924205 114.379753,10.1291821" id="Fill-80" fill="#8FAAB8"></path>
                <path d="M167.634331,10.1508199 C169.289181,10.499883 170.950731,10.8284704 172.598882,11.2097097 C173.360745,11.3871663 173.941713,11.7732808 173.74359,12.7492923 C173.541639,13.7477297 172.696508,14.687665 171.867647,14.6174624 C170.857891,14.5306841 169.858664,14.3054506 168.856566,14.1299441 C163.785776,13.246561 161.052258,16.1102433 160.226268,20.4667065 C159.713255,23.1695078 159.921906,25.8372077 160.873277,28.438605 C162.087855,31.7644547 163.962842,33.1841078 167.397924,33.1002547 C168.740755,33.0671036 170.095072,32.8126188 171.411103,32.5123077 C172.852517,32.1827453 173.558867,32.5201079 174.070923,34.0489652 C174.503539,35.3447889 174.172378,36.044865 172.779777,36.5041073 C168.118631,38.0446649 160.622514,36.7819925 157.32717,32.8954971 C155.706775,30.9834504 154.941084,28.6901645 154.495069,26.2954747 C154.009812,23.6814019 154.260576,21.0809795 155.072209,18.5322339 C156.362399,14.4809571 161.802635,9.92656151 167.634331,10.1508199" id="Fill-81" fill="#8FAAB8"></path>
                <path d="M214.433117,37.1428571 L209.250292,37.1428571 L209.250292,36.146758 C209.252255,29.7629404 209.239496,23.381119 209.262069,16.9973011 C209.275809,13.4590533 211.988427,10.5735597 215.45771,10.3629617 C217.071148,10.2641503 218.688512,10.1763178 220.304892,10.1443788 C222.02923,10.1094454 222.400203,10.6663826 222.199015,12.8132857 C222.1048,13.8053923 221.302005,14.2555333 219.99673,14.0479295 C216.723728,13.52892 214.433117,15.5121355 214.432135,18.8717242 C214.430175,24.4570657 214.432135,30.042407 214.433117,35.6267504 L214.433117,37.1428571 Z" id="Fill-88" fill="#8FAAB8"></path>
                <path d="M101.670482,10.1428571 C102.389662,12.0589162 102.442476,33.7063503 101.801957,37.1428571 L96.3552956,37.1428571 C96.3283262,36.7531502 96.2788825,36.3752526 96.2788825,35.9973549 C96.2743877,28.2150251 96.2957385,20.4326953 96.2485423,12.6493813 C96.2418,11.6888916 96.5924,11.1899486 97.6228493,10.9852539 C98.9836721,10.7146241 100.337752,10.4213599 101.670482,10.1428571" id="Fill-97" fill="#8FAAB8"></path>
                <path d="M18.7484042,39.8664658 C21.8744911,41.3067878 25.1354035,41.690157 28.4723345,40.9313009 C33.5942691,39.7668615 37.2747183,36.7120891 39.6133668,32.0170695 C41.0139742,32.814621 42.3399974,33.5698942 43.7248274,34.3588466 C45.0142754,31.4868017 45.4481552,28.5932595 45.2308568,25.4954924 L42.4518738,25.4954924 L39.6470732,25.4954924 C39.4484208,33.8364613 30.6575117,42.6797513 18.7484042,39.8664658 M11.7862451,36.7486347 C14.0445722,41.0273224 20.8181191,46.2805562 29.4820914,45.0788547 C35.4947349,44.2454744 39.956885,41.0810657 43.0643258,35.825682 C42.0560031,35.2481201 41.154537,34.7314674 40.2552222,34.2148145 C34.0482294,44.4998597 19.8040592,45.9566629 11.7862451,36.7486347 M34.6606814,19.5787072 C34.887303,20.0294348 35.0816525,20.3733923 35.2372756,20.7338311 C36.1695795,22.8885814 36.619954,25.0927755 36.0462284,27.4417185 C34.9912906,31.7626843 32.144895,34.6246972 28.4221336,36.719255 C26.9835169,37.5289881 25.397883,38.0800367 23.86245,38.7564864 C26.9211241,38.7084757 29.6692694,37.7081327 32.1205116,35.9517997 C36.2032858,33.0274445 38.2486173,29.0275058 38.0456618,23.9125714 L45.0078211,23.9125714 C44.4606303,20.8248365 43.266564,18.1398184 41.3202002,15.7378487 C39.0460958,17.0491865 36.8817162,18.2974656 34.6606814,19.5787072 M46.8258136,27.028253 C46.9800025,37.8292344 38.2981011,46.323551 28.264359,46.8065246 C16.0999438,47.3905358 7.46609204,37.9603681 7.27102536,27.5921998 C7.05085821,15.9513889 16.0791463,7.64051635 26.3144094,7.28007756 C38.2156281,6.86087939 47.1069392,16.6486193 46.8258136,27.028253" id="Fill-116" fill="#FFFFFF"></path>
                <path d="M243.168273,21.1428571 L229.248447,21.1428571 C229.491301,16.9076754 231.967585,12.5781165 237.842789,13.2033663 C240.998858,13.5386023 243.758638,17.5948603 243.168273,21.1428571" id="Fill-117" fill="#FFFFFF"></path>
                <path d="M145.235567,21.1428571 L131.248447,21.1428571 C131.52384,16.8261173 134.040993,12.6123456 139.712463,13.1974816 C142.888121,13.5242073 145.453036,17.0300733 145.235567,21.1428571" id="Fill-118" fill="#FFFFFF"></path>
                <path d="M198.248447,23.4142018 C198.085561,26.0815628 198.047817,28.5877939 196.63349,30.7522665 C195.102957,33.0963419 192.901015,34.3474049 190.210416,34.1154604 C187.441353,33.8763318 185.270202,32.3738247 184.327648,29.5494396 C182.887496,25.2307578 182.712692,20.885392 184.890796,16.7463131 C186.81464,13.0885701 191.379421,12.2623964 194.339181,14.054321 C196.557014,15.3967248 197.644576,17.594039 197.957436,20.1957166 C198.093507,21.3246495 198.164023,22.4617929 198.248447,23.4142018" id="Fill-119" fill="#FFFFFF"></path>
                <path d="M34.1376844,19.1133672 C36.3420856,17.8556472 38.4916617,16.629599 40.749464,15.3416149 C42.6818752,17.7001038 43.8666697,20.3373041 44.4099379,23.3707529 L37.4983994,23.3707529 C37.699188,28.3945946 35.6685186,32.3232981 31.6150121,35.1955731 C29.1813417,36.9206271 26.4528967,37.902451 23.4161491,37.9503106 C24.9412871,37.285204 26.5148422,36.744673 27.9438582,35.9493604 C31.6392207,33.8914011 34.4652117,31.0810621 35.5132991,26.8370488 C36.0821998,24.5292347 35.6350539,22.3642954 34.7101451,20.2479193 C34.5549258,19.8938996 34.3626815,19.5567715 34.1376844,19.1133672" id="Fill-131" fill="#8FAAB8"></path>
                <path d="M12.1118012,36.5079199 C19.9771314,45.9378297 33.950404,44.4451887 40.0393514,33.9130435 C40.9215628,34.4421458 41.8058848,34.9705144 42.7950311,35.5627274 C39.746688,40.9447475 35.3693996,44.1854076 29.4711054,45.0388694 C20.9719057,46.2695277 14.3271791,40.8897091 12.1118012,36.5079199" id="Fill-132" fill="#8FAAB8"></path>
                <path d="M18.5714286,39.7774592 C30.5299209,42.506171 39.3572844,33.92873 39.5567605,25.8385093 L42.3731921,25.8385093 L45.1636991,25.8385093 C45.3818986,28.8431507 44.9462196,31.6497065 43.6514244,34.4354113 C42.2608518,33.6701766 40.9293299,32.9376085 39.5229144,32.1640332 C37.1745679,36.7179101 33.4788566,39.6808492 28.3356822,40.8102829 C24.9849136,41.5463261 21.7104788,41.1744818 18.5714286,39.7774592" id="Fill-133" fill="#8FAAB8"></path>
                <path d="M157.66248,55.0975888 C157.66248,53.7806746 157.70754,52.5088135 157.643678,51.2424625 C157.610612,50.580602 157.889727,50.1576208 158.349085,49.7936299 C158.822383,49.4182948 159.358246,49.1703402 159.959269,49.4461694 C160.521066,49.704496 160.533385,50.2483753 160.532737,50.7757245 C160.531764,51.6437275 160.532413,52.5117306 160.532413,53.3800578 L160.532413,55.0936994 L161.474793,55.0936994 L161.474793,54.6901654 C161.474145,53.3554244 161.471551,52.0210075 161.476414,50.6862664 C161.476738,50.5637477 161.477711,50.3887209 161.551947,50.3274615 C161.934151,50.0117651 162.301443,49.6289751 162.746213,49.4481142 C163.685027,49.0659724 164.349589,49.584246 164.347319,50.6010219 C164.343753,51.9876227 164.344726,53.3738994 164.345698,54.7605002 C164.346023,54.8719988 164.359638,54.9834973 164.366446,55.0859204 L165.287106,55.0859204 C165.287106,54.951409 165.287106,54.8483378 165.287106,54.7459147 C165.284189,53.1907696 165.300722,51.6356245 165.270573,50.0811276 C165.252744,49.1505686 164.537611,48.5266307 163.616302,48.4900047 C162.835361,48.4588888 162.21975,48.7726405 161.665409,49.272115 C161.57237,49.356063 161.481925,49.4429281 161.371381,49.5456754 C161.003117,48.7681028 160.412792,48.4588888 159.588735,48.4896806 C158.791586,48.5195 158.238865,48.9580392 157.660859,49.5641504 L157.660859,48.6789688 L156.748627,48.6789688 L156.748627,55.0975888 L157.66248,55.0975888 Z" id="Fill-16" fill="#FFFFFF"></path>
                <path d="M109.699018,48.4760005 L109.699018,54.9117991 L110.606711,54.9117991 L110.606711,54.4761769 C110.606711,53.2062606 110.603794,51.9363443 110.610926,50.6661038 C110.611898,50.5189517 110.626486,50.3364701 110.710772,50.2308058 C111.056992,49.7948595 111.431092,49.3884085 111.996455,49.2150024 C112.621143,49.0231212 113.202067,49.2577867 113.380364,49.8269478 C113.448117,50.0431382 113.476644,50.2797485 113.478265,50.5072832 C113.487666,51.7253398 113.482803,52.9437205 113.482803,54.161777 L113.482803,54.9027237 L114.403464,54.9027237 C114.409624,54.7873357 114.418052,54.6985257 114.418052,54.6097159 C114.418052,53.2749748 114.416431,51.9402338 114.416431,50.6051686 C114.416431,50.4758433 114.392118,50.3351736 114.433288,50.2191373 C114.673179,49.5397742 115.942329,48.9767715 116.631852,49.2321809 C117.068842,49.3939186 117.291551,49.782867 117.29382,50.4223629 C117.298683,51.8089637 117.296413,53.1958887 117.298359,54.5821654 C117.298683,54.6936639 117.31165,54.8045142 117.318133,54.9075855 L118.217074,54.9075855 C118.221613,54.8113208 118.227772,54.7358 118.227772,54.6606033 C118.229069,53.144353 118.248519,51.6277786 118.225827,50.1118524 C118.204431,48.710666 117.202078,48.0423231 115.902131,48.3871907 C115.318938,48.5417976 114.804794,48.9563517 114.254019,49.2564902 C113.967771,48.5790718 113.365452,48.2828228 112.54561,48.3032426 C111.742949,48.3233383 111.174344,48.7647947 110.584667,49.3854914 L110.584667,48.4760005 L109.699018,48.4760005 Z" id="Fill-18" fill="#FFFFFF"></path>
                <path d="M129.723507,55.1019969 C129.723507,53.6489507 129.721562,52.2386888 129.726749,50.828427 C129.727073,50.691971 129.728046,50.5188889 129.804875,50.4255413 C130.156607,49.9976981 130.520657,49.5834682 131.087965,49.4123309 C131.850752,49.1822031 132.390181,49.4862311 132.525039,50.2644519 C132.564264,50.4913385 132.58955,50.7237351 132.590522,50.9535387 C132.597006,52.1975252 132.593116,53.4408634 132.594412,54.6848498 C132.594412,54.8213058 132.606083,54.9577619 132.612242,55.0945421 L133.53193,55.0945421 L133.53193,54.6936012 C133.531606,53.3591842 133.526095,52.0247673 133.537441,50.6903504 C133.539062,50.5237508 133.577315,50.2913541 133.688832,50.2031926 C134.066497,49.9037023 134.455509,49.5844406 134.894443,49.4045519 C135.525615,49.1459013 136.137011,49.4541428 136.301693,50.0297864 C136.3675,50.2612107 136.399918,50.5101376 136.401539,50.7509614 C136.41094,52.0594485 136.405429,53.3679355 136.406726,54.6767467 C136.406726,54.8132028 136.41872,54.9503071 136.424556,55.0822253 L137.346513,55.0822253 C137.346513,53.4291949 137.416211,51.806308 137.325766,50.1924964 C137.244397,48.7381538 136.268627,48.2821119 135.02152,48.5611823 C134.442542,48.6908317 133.93164,49.1264538 133.361414,49.4385849 C133.065117,48.7621389 132.460852,48.4678347 131.640037,48.4911716 C130.84386,48.513212 130.286277,48.9488341 129.714754,49.5468422 L129.714754,48.6739773 L128.80544,48.6739773 L128.80544,55.1019969 L129.723507,55.1019969 Z" id="Fill-20" fill="#FFFFFF"></path>
                <path d="M139.553894,48.6736532 L139.553894,58.1241255 L140.55333,58.1241255 L140.55333,54.7532399 C140.667116,54.8290848 140.718335,54.8647384 140.770528,54.8984473 C141.827991,55.5787827 143.584702,55.3583787 144.366291,54.2070916 C145.245458,52.9118936 145.258425,51.520755 144.752061,50.1182721 C144.246346,48.7170857 142.85952,48.1232913 141.483067,48.6652259 C141.150787,48.7958478 140.863891,49.0418576 140.529665,49.2515656 L140.529665,48.6736532 L139.553894,48.6736532 Z" id="Fill-22" fill="#FFFFFF"></path>
                <path d="M220.630071,55.2771878 L220.630071,51.6389001 C221.153292,51.6389001 221.632749,51.6576994 222.11026,51.6353348 C223.557708,51.5679171 225.093331,50.8315082 224.989594,48.7503105 C224.940644,47.7714571 224.516297,47.0690812 223.647829,46.6742987 C223.213756,46.4772315 222.722305,46.3410996 222.248359,46.3099837 C221.376974,46.252938 220.499104,46.2937775 219.617669,46.2937775 L219.617669,55.2771878 L220.630071,55.2771878 Z" id="Fill-24" fill="#FFFFFF"></path>
                <path d="M70.2484472,45.8925084 L70.2484472,54.9093034 L71.2378333,54.9093034 L71.2378333,53.1117138 L71.2378333,51.266478 C71.7840704,51.266478 72.2755216,51.2862495 72.7650278,51.2629126 C74.2844422,51.1903089 75.7069278,50.3725451 75.613565,48.3506619 C75.5659111,47.3160593 74.8893552,46.5099639 74.0675682,46.2043153 C72.8288906,45.7440598 71.5454766,45.9508506 70.2484472,45.8925084" id="Fill-26" fill="#FFFFFF"></path>
                <path d="M154.775463,54.6004804 C154.635094,54.3609531 154.503803,54.1373078 154.37316,53.9146349 C153.381505,54.4539766 152.404437,54.8033818 151.424777,54.1097573 C150.670094,53.5756015 150.545286,52.7283424 150.501198,51.8334371 L154.932688,51.8334371 C154.932688,51.5371881 154.947925,51.2675172 154.930095,51.0001153 C154.8591,49.9515754 154.458094,49.077414 153.430455,48.6790661 C152.397305,48.2784492 151.394952,48.4239807 150.554687,49.185023 C149.58929,50.0591844 149.383114,51.2163058 149.507598,52.4398724 C149.576323,53.1176149 149.81978,53.749656 150.260659,54.3042315 C151.292837,55.6023465 153.627555,55.4970063 154.775463,54.6004804" id="Fill-30" fill="#FFFFFF"></path>
                <path d="M254.622226,54.8942033 C254.443605,54.557763 254.319769,54.3240699 254.197879,54.0942662 C253.224702,54.6196706 252.238233,54.9992194 251.226479,54.2786926 C250.477632,53.7451851 250.346989,52.9222352 250.331753,52.0218198 L254.798902,52.0218198 C254.761946,51.5952731 254.748655,51.2115107 254.692248,50.8339067 C254.540858,49.825234 254.040005,49.056737 253.022092,48.781556 C251.926052,48.485307 250.922726,48.7138141 250.141785,49.5879756 C249.457773,50.3542038 249.277531,51.2828179 249.310921,52.2863047 C249.335883,53.0285478 249.514504,53.7101798 249.942417,54.3130497 C250.712336,55.3972432 251.835282,55.5826419 253.037004,55.4115046 C253.562818,55.3366321 254.063346,55.0828433 254.622226,54.8942033" id="Fill-32" fill="#FFFFFF"></path>
                <path d="M171.863088,53.8977804 C170.650992,54.6231691 169.606496,54.6445613 168.91049,54.1240187 C168.16067,53.5632849 168.00539,52.7500587 168.003445,51.8292235 L172.408676,51.8292235 C172.542885,50.7148865 172.169758,49.7243647 171.743467,49.2459583 C170.709668,48.0862439 168.348692,48.1805639 167.391075,49.9797741 C166.936904,50.8331916 166.908701,51.7423583 167.020218,52.6508769 C167.117147,53.4407661 167.45818,54.1460591 168.107829,54.6695187 C168.886177,55.296698 169.794519,55.3485578 170.715828,55.233818 C171.25396,55.1667244 171.786906,54.9939665 172.22811,54.6085835 C172.105247,54.3697044 171.989516,54.1434662 171.863088,53.8977804" id="Fill-34" fill="#FFFFFF"></path>
                <path d="M206.208043,51.8815047 C206.240461,51.2183477 206.065081,50.6076988 205.764894,50.0294622 C204.828025,48.224742 202.144493,47.897053 200.934992,49.472942 C200.090188,50.574314 199.972188,51.8325619 200.345315,53.1604964 C200.987184,55.4442714 203.549798,55.789139 204.967744,54.7017042 C205.878032,54.003542 206.188917,52.9938969 206.208043,51.8815047" id="Fill-36" fill="#FFFFFF"></path>
                <path d="M226.817754,50.2084778 C227.385711,49.6545505 228.033415,49.4834133 228.765081,49.5330042 C229.248428,49.5654165 229.603077,49.7517876 229.715242,50.2259805 C229.813143,50.6408587 229.791748,51.0839357 229.82611,51.5539149 C229.603077,51.5539149 229.450714,51.5574803 229.298675,51.5532667 C228.512872,51.5325228 227.767591,51.6874538 227.074502,52.065382 C226.196308,52.5441126 225.811511,53.5612126 226.173292,54.4340775 C226.501034,55.2252632 227.50825,55.6884358 228.416592,55.3918627 C228.925548,55.2255873 229.391714,54.92869 229.865011,54.6966176 C229.898077,54.8483074 229.945083,55.0664426 229.990792,55.2755024 L230.884222,55.2755024 C230.857315,54.9740674 230.812579,54.6962934 230.810958,54.4185195 C230.803178,53.2270411 230.827167,52.0352385 230.801881,50.8444083 C230.785672,50.0950345 230.63493,49.3735354 229.896132,48.9641672 C228.825702,48.3713452 227.139661,48.6624081 226.308149,49.5735196 C226.468616,49.773828 226.629408,49.9741365 226.817754,50.2084778" id="Fill-38" fill="#FFFFFF"></path>
                <path d="M80.9177701,49.8484696 C81.4750292,49.2994042 82.1376455,49.0974752 82.899784,49.1610034 C83.3455264,49.1986017 83.7254611,49.4154404 83.8230382,49.8471731 C83.9173735,50.2646443 83.9121867,50.7048042 83.9556263,51.1896931 C83.5951422,51.1896931 83.3124604,51.1783488 83.0313996,51.191962 C82.3691075,51.2240502 81.7363153,51.3763883 81.1576606,51.7099115 C80.356621,52.1714636 79.9928951,53.0031647 80.2169009,53.8432932 C80.4678134,54.784224 81.4983699,55.3459303 82.5350857,55.0269926 C83.0446909,54.8701168 83.504697,54.5527998 83.973456,54.314893 C84.0052253,54.4711207 84.0496374,54.6908764 84.0921045,54.9009086 L84.9514959,54.9009086 C84.9206991,53.9084421 84.8843914,52.9441743 84.8633199,51.9795824 C84.848732,51.3190184 84.8756386,50.6568339 84.8458144,49.9969182 C84.8159902,49.3493192 84.5106161,48.8491965 83.920291,48.5451685 C83.3948012,48.2748494 82.8232785,48.2654498 82.2637501,48.3215232 C81.5654744,48.3915339 80.9287921,48.6475916 80.4120551,49.1759131 C80.5848411,49.4057167 80.7466051,49.6206107 80.9177701,49.8484696" id="Fill-40" fill="#FFFFFF"></path>
                <path d="M186.397532,50.0247625 C186.972621,49.4721317 187.618056,49.2899742 188.351991,49.3457235 C188.801948,49.3797565 189.211382,49.6131255 189.304421,50.044534 C189.393894,50.4610328 189.391949,50.8969792 189.434416,51.3692272 C189.146547,51.3692272 188.942316,51.3679307 188.737437,51.3695513 C187.885826,51.3760339 187.083489,51.5594878 186.377109,52.0579899 C185.699905,52.5354241 185.543003,53.2371517 185.684993,53.9823118 C185.809152,54.6357451 186.257812,55.0642365 186.929505,55.2094439 C187.749996,55.3864154 188.484255,55.2081474 189.121586,54.6545442 C189.220784,54.5683274 189.319657,54.4814622 189.431822,54.3832528 C189.484339,54.6639438 189.525834,54.884672 189.565707,55.0979453 L190.459137,55.0979453 C190.418291,54.5060957 190.355725,53.9346657 190.344379,53.3619392 C190.323956,52.3393292 190.339516,51.316071 190.331087,50.2931368 C190.323631,49.4429606 189.812405,48.7642457 188.993536,48.5911637 C188.583453,48.5046227 188.146788,48.4770722 187.728924,48.5094846 C187.025462,48.5639373 186.404988,48.8511109 185.875933,49.3648468 C186.048718,49.5836302 186.206268,49.7832904 186.397532,50.0247625" id="Fill-42" fill="#FFFFFF"></path>
                <path d="M106.403733,48.4752226 C106.403733,48.6654832 106.403733,48.8191178 106.403733,48.9721041 C106.404706,50.2297038 106.409244,51.4873034 106.403409,52.7449031 C106.402761,52.8920552 106.395304,53.0774539 106.311343,53.1795528 C105.965447,53.6002653 105.582919,53.9976409 105.037006,54.1515995 C104.109213,54.4138156 103.344805,54.0783476 103.363608,53.0029055 C103.385976,51.6937702 103.369767,50.3839866 103.370091,49.0745272 C103.370091,48.8836184 103.370091,48.6927096 103.370091,48.4927253 L102.358013,48.4927253 C102.358013,49.257657 102.348288,49.9950383 102.360282,50.7320954 C102.376167,51.6882601 102.388485,52.6453971 102.442623,53.5999412 C102.480551,54.2705529 102.959036,54.8322592 103.602201,54.9959416 C104.526428,55.2309312 105.364748,55.0584974 106.057837,54.3694107 C106.171299,54.2562915 106.243914,54.1020086 106.335332,53.966525 C106.596942,55.0199267 106.596942,55.0199267 107.422295,54.894815 L107.422295,48.4752226 L106.403733,48.4752226 Z" id="Fill-44" fill="#FFFFFF"></path>
                <path d="M95.3048117,48.4752226 L95.3048117,54.9012975 L96.2121812,54.9012975 C96.2121812,53.5782249 96.2501098,52.2820545 96.1956482,50.9900978 C96.1700383,50.3888485 96.4186815,50.0131892 96.8427041,49.6799901 C96.9341218,49.6083588 97.0258637,49.5360792 97.1227924,49.472551 C97.5163425,49.2148727 97.9556014,49.0858715 98.4136625,49.1759779 C99.0561799,49.3023861 99.2912077,49.6861485 99.3106583,50.5901292 C99.3378891,51.8856513 99.3177902,53.1824699 99.3177902,54.4786403 L99.3177902,54.9016216 L100.256605,54.9016216 C100.256605,53.2667421 100.274434,51.6610337 100.249149,50.0556494 C100.236506,49.2579812 99.7421369,48.5773216 99.0879492,48.4013224 C98.4379757,48.2259716 97.7828154,48.2363435 97.1866552,48.596769 C96.8546986,48.7970774 96.5535388,49.0482732 96.1940273,49.3085445 L96.1940273,48.4752226 L95.3048117,48.4752226 Z" id="Fill-48" fill="#FFFFFF"></path>
                <path d="M247.57311,55.2773498 C247.59256,55.2352138 247.611686,55.2128493 247.611686,55.1904847 C247.613307,53.5325924 247.647994,51.8737277 247.596774,50.217456 C247.575379,49.5380929 247.187016,48.9883792 246.488091,48.783209 C245.618975,48.5281237 244.812748,48.6804618 244.108637,49.2726356 C243.947846,49.4077952 243.797428,49.5555956 243.576016,49.7575246 L243.576016,48.8600263 L242.658273,48.8600263 L242.658273,55.2682744 L243.576016,55.2682744 C243.576016,53.8554195 243.574395,52.4707635 243.578933,51.0861073 C243.579582,50.9496513 243.577961,50.7840241 243.64928,50.6819252 C243.995176,50.1860161 244.436055,49.7993365 245.026056,49.6084277 C245.993723,49.2953244 246.681301,49.7866958 246.680328,50.7911548 C246.678707,52.1382126 246.67968,53.4855945 246.67968,54.8326522 L246.67968,55.2773498 L247.57311,55.2773498 Z" id="Fill-50" fill="#FFFFFF"></path>
                <path d="M212.889122,55.0986908 C212.889122,53.3808356 212.915381,51.6983099 212.873886,50.0174049 C212.860595,49.4816285 212.568512,49.0174835 212.068956,48.7283653 C211.282505,48.2736198 210.06652,48.4541567 209.315079,49.1455123 C209.181518,49.2680311 209.047957,49.3902257 208.839512,49.5817827 L208.839512,48.6836362 L207.933439,48.6836362 L207.933439,55.0941531 L208.856369,55.0941531 L208.856369,54.6530209 C208.856369,53.3963936 208.8541,52.1394422 208.859611,50.8828149 C208.860259,50.7473313 208.870633,50.5881866 208.939358,50.4812258 C209.248622,50.0031435 209.680425,49.6517934 210.207861,49.4479197 C211.220587,49.0567025 211.967165,49.5843757 211.964247,50.6620867 C211.960681,52.0224336 211.960681,53.3827804 211.960681,54.7431272 C211.960681,54.8559222 211.973,54.9687173 211.980456,55.0986908 L212.889122,55.0986908 Z" id="Fill-52" fill="#FFFFFF"></path>
                <path d="M179.205811,55.0975888 L179.205811,54.691462 C179.205811,53.2795795 179.223964,51.8673728 179.200948,50.4561386 C179.175662,48.9019658 178.161639,48.2864551 176.758604,48.5496435 C176.12646,48.6682728 175.650569,49.0429596 175.153931,49.5482683 L175.153931,48.6789688 L174.246237,48.6789688 L174.246237,55.0839756 L175.16009,55.0839756 C175.16009,53.6523216 175.156524,52.2543764 175.164953,50.8564313 C175.165925,50.6976107 175.187645,50.5015159 175.28036,50.3874244 C175.640844,49.9424026 176.058059,49.5479442 176.634444,49.4020886 C177.37,49.2160416 178.16099,49.4260738 178.197298,50.3582533 C178.232309,51.2615858 178.248518,52.1655665 178.261485,53.0692232 C178.271534,53.7388626 178.263754,54.4088261 178.263754,55.0975888 L179.205811,55.0975888 Z" id="Fill-54" fill="#FFFFFF"></path>
                <path d="M181.694739,49.3530811 L181.694739,49.835377 C181.694739,51.0657503 181.674316,52.2967718 181.707058,53.5261727 C181.717107,53.8982666 181.803338,54.3053659 181.979366,54.6288413 C182.408575,55.4190546 183.814528,55.5269878 184.655765,54.8657756 C184.546194,54.6450474 184.435325,54.421078 184.341314,54.2314657 C184.106611,54.3076347 183.915347,54.3789419 183.718572,54.4317741 C183.100043,54.5986978 182.706817,54.2972628 182.706817,53.663277 C182.706493,52.8860285 182.706817,52.1087801 182.706817,51.3315317 L182.706817,49.3530811 L184.308573,49.3530811 L184.308573,48.6413057 L182.695147,48.6413057 L182.695147,46.8164897 L181.678206,46.8164897 L181.678206,48.6662631 L180.626254,48.6662631 L180.626254,49.3530811 L181.694739,49.3530811 Z" id="Fill-56" fill="#FFFFFF"></path>
                <path d="M240.819383,54.3853617 C240.754223,54.4168016 240.699437,54.4446762 240.643679,54.4699579 C239.646837,54.9214621 239.142418,54.598635 239.141446,53.507959 C239.140473,52.3158324 239.150523,51.1233815 239.132693,49.9312549 C239.128155,49.6181514 239.224435,49.522535 239.53143,49.5416583 C239.93892,49.5669399 240.349003,49.5478167 240.743201,49.5478167 L240.743201,48.8315034 C240.310102,48.8315034 239.908447,48.8152972 239.508414,48.8366894 C239.216331,48.8522473 239.120699,48.7488519 239.132369,48.4594095 C239.152468,47.9729 239.13788,47.4850939 239.13788,46.9982603 L238.186098,46.9982603 L238.186098,48.8412271 L237.139657,48.8412271 L237.139657,49.5594851 L238.199065,49.5594851 L238.199065,50.0126099 C238.199065,51.3084561 238.194203,52.6043024 238.201335,53.9001486 C238.205549,54.6819348 238.654857,55.3214306 239.340166,55.4283915 C239.966799,55.5259527 240.596998,55.4802512 241.161713,55.0738002 C241.047278,54.8439966 240.934141,54.6164618 240.819383,54.3853617" id="Fill-58" fill="#FFFFFF"></path>
                <path d="M90.0320518,54.0323221 C89.9137274,54.0802924 89.8297657,54.1136771 89.7464524,54.1483584 C88.8578851,54.517211 88.3285053,54.1943839 88.3492526,53.1883042 C88.3745383,51.9702476 88.3547636,50.7508946 88.3563844,49.5325139 C88.3563844,49.4223118 88.3709723,49.3121098 88.381346,49.1675507 L89.9688374,49.1675507 L89.9688374,48.4496169 L88.3424449,48.4496169 L88.3424449,46.6267456 L87.4071962,46.6267456 L87.4071962,48.4729538 L86.3601068,48.4729538 L86.3601068,49.1925082 L87.4188665,49.1925082 C87.4188665,49.3552183 87.4188665,49.4816265 87.4188665,49.6080347 C87.4191907,50.930459 87.4188665,52.2525593 87.4201633,53.5746595 C87.4208116,54.3237092 87.8386749,54.9304686 88.524632,55.0503943 C89.162935,55.162217 89.800914,55.1032265 90.3734094,54.7126576 C90.2592993,54.4847987 90.1497277,54.2669876 90.0320518,54.0323221" id="Fill-60" fill="#FFFFFF"></path>
                <path d="M195.83693,54.8935854 C195.717309,54.6508168 195.611303,54.4359228 195.502704,54.215843 C195.412908,54.2540895 195.35488,54.2780747 195.296852,54.3040046 C194.383648,54.7111039 193.790405,54.4074 193.822823,53.374418 C193.860427,52.1848843 193.832872,50.9927577 193.833521,49.8019275 L193.833521,49.3546369 L195.44338,49.3546369 L195.44338,48.6357307 L193.822499,48.6357307 L193.822499,46.8102665 L192.877849,46.8102665 L192.877849,48.667819 L191.838215,48.667819 L191.838215,49.3747325 L192.897299,49.3747325 L192.897299,49.8317469 C192.897624,51.1522265 192.893409,52.4727061 192.899893,53.7931857 C192.904107,54.5574692 193.360223,55.1541808 194.069197,55.249149 C194.673786,55.330504 195.279671,55.2860991 195.83693,54.8935854" id="Fill-62" fill="#FFFFFF"></path>
                <polygon id="Fill-64" fill="#FFFFFF" points="146.780335 55.0918843 147.748974 55.0918843 147.748974 45.4158219 146.780335 45.4158219"></polygon>
                <polygon id="Fill-66" fill="#FFFFFF" points="125.230391 55.0973944 126.190601 55.0973944 126.190601 46.108474 125.230391 46.108474"></polygon>
                <polygon id="Fill-67" fill="#FFFFFF" points="77.4755365 54.912577 78.3663729 54.912577 78.3663729 45.2173913 77.4755365 45.2173913"></polygon>
                <path d="M233.928756,55.2825682 C233.928756,53.9857497 233.92908,52.7304189 233.928756,51.4750881 C233.928107,50.2596245 234.948614,49.4204685 236.185023,49.6765262 C236.221979,49.3715258 236.258611,49.0694426 236.295243,48.7670352 C235.905259,48.7706006 235.513978,48.7582839 235.125939,48.7871309 C234.998213,48.7965305 234.863356,48.8950641 234.758323,48.9841981 C234.480828,49.2188636 234.218245,49.4707076 233.932646,49.731303 L233.932646,48.8594105 L233.011013,48.8594105 L233.011013,55.2825682 L233.928756,55.2825682 Z" id="Fill-68" fill="#FFFFFF"></path>
                <path d="M257.494849,55.2890507 L257.494849,54.8748207 C257.494849,53.669405 257.494525,52.4646375 257.495174,51.2592218 C257.495498,50.4515057 258.3309,49.5689171 259.128374,49.631797 C259.623715,49.671016 259.816924,49.5209468 259.833133,49.0551811 C259.836051,48.9722055 259.879166,48.8908505 259.909639,48.7903721 C258.83467,48.4289743 258.129587,48.9547029 257.477668,49.8327537 L257.477668,48.8655688 L256.587156,48.8655688 L256.587156,55.2890507 L257.494849,55.2890507 Z" id="Fill-69" fill="#FFFFFF"></path>
                <polygon id="Fill-70" fill="#FFFFFF" points="91.9581128 54.8976673 92.9241582 54.8976673 92.9241582 48.4842333 91.9581128 48.4842333"></polygon>
                <polygon id="Fill-71" fill="#FFFFFF" points="197.436773 55.0811882 198.331499 55.0811882 198.331499 48.6716436 197.436773 48.6716436"></polygon>
                <path d="M198.585493,46.6773434 C198.587728,46.2618169 198.260635,45.9208389 197.87065,45.9315349 C197.509842,45.9412586 197.188907,46.2692717 197.179831,46.6368279 C197.170105,47.0491131 197.49266,47.3981943 197.890425,47.4059733 C198.254151,47.413104 198.583514,47.0679124 198.585493,46.6773434" id="Fill-73" fill="#FFFFFF"></path>
                <path d="M93.1058621,46.4906137 C93.1052107,46.0880522 92.7933531,45.7435088 92.4302756,45.744475 C92.0649289,45.7451294 91.7089833,46.0948588 91.7012031,46.4611185 C91.6927745,46.8675695 92.0279728,47.2205401 92.4202261,47.2186191 C92.7975673,47.2160024 93.1065074,46.8883134 93.1058621,46.4906137" id="Fill-74" fill="#FFFFFF"></path>
                <path d="M157.66248,55.0975888 L156.748627,55.0975888 L156.748627,48.6789688 L157.660859,48.6789688 L157.660859,49.5641504 C158.238865,48.9580392 158.791586,48.5195 159.588735,48.4896806 C160.412792,48.4588888 161.003117,48.7681028 161.371381,49.5456754 C161.481925,49.4429281 161.57237,49.356063 161.665409,49.272115 C162.21975,48.7726405 162.835361,48.4588888 163.616302,48.4900047 C164.537611,48.5266307 165.252744,49.1505686 165.270573,50.0811276 C165.300722,51.6356245 165.284189,53.1907696 165.287106,54.7459147 C165.287106,54.8483378 165.287106,54.951409 165.287106,55.0859204 L164.366446,55.0859204 C164.359638,54.9834973 164.346023,54.8719988 164.345698,54.7605002 C164.344726,53.3738994 164.343753,51.9876227 164.347319,50.6010219 C164.349589,49.584246 163.685027,49.0659724 162.746213,49.4481142 C162.301443,49.6289751 161.934151,50.0117651 161.551947,50.3274615 C161.477711,50.3887209 161.476738,50.5637477 161.476414,50.6862664 C161.471551,52.0210075 161.474145,53.3554244 161.474793,54.6901654 L161.474793,55.0936994 L160.532413,55.0936994 L160.532413,53.3800578 C160.532413,52.5117306 160.531764,51.6437275 160.532737,50.7757245 C160.533385,50.2483753 160.521066,49.704496 159.959269,49.4461694 C159.358246,49.1703402 158.822383,49.4182948 158.349085,49.7936299 C157.889727,50.1576208 157.610612,50.580602 157.643678,51.2424625 C157.70754,52.5088135 157.66248,53.7806746 157.66248,55.0975888" id="Fill-82" fill="#8FAAB8"></path>
                <path d="M109.699018,48.4760005 L110.584667,48.4760005 L110.584667,49.3854914 C111.174344,48.7647947 111.742949,48.3233383 112.54561,48.3032426 C113.365452,48.2828228 113.967771,48.5790718 114.254019,49.2564902 C114.804794,48.9563517 115.318938,48.5417976 115.902131,48.3871907 C117.202078,48.0423231 118.204431,48.710666 118.225827,50.1118524 C118.248519,51.6277786 118.229069,53.144353 118.227772,54.6606033 C118.227772,54.7358 118.221613,54.8113208 118.217074,54.9075855 L117.318133,54.9075855 C117.31165,54.8045142 117.298683,54.6936639 117.298359,54.5821654 C117.296413,53.1958887 117.298683,51.8089637 117.29382,50.4223629 C117.291551,49.782867 117.068842,49.3939186 116.631852,49.2321809 C115.942329,48.9767715 114.673179,49.5397742 114.433288,50.2191373 C114.392118,50.3351736 114.416431,50.4758433 114.416431,50.6051686 C114.416431,51.9402338 114.418052,53.2749748 114.418052,54.6097159 C114.418052,54.6985257 114.409624,54.7873357 114.403464,54.9027237 L113.482803,54.9027237 L113.482803,54.161777 C113.482803,52.9437205 113.487666,51.7253398 113.478265,50.5072832 C113.476644,50.2797485 113.448117,50.0431382 113.380364,49.8269478 C113.202067,49.2577867 112.621143,49.0231212 111.996455,49.2150024 C111.431092,49.3884085 111.056992,49.7948595 110.710772,50.2308058 C110.626486,50.3364701 110.611898,50.5189517 110.610926,50.6661038 C110.603794,51.9363443 110.606711,53.2062606 110.606711,54.4761769 L110.606711,54.9117991 L109.699018,54.9117991 L109.699018,48.4760005 Z" id="Fill-83" fill="#8FAAB8"></path>
                <path d="M129.723507,55.1019969 L128.80544,55.1019969 L128.80544,48.6739773 L129.714754,48.6739773 L129.714754,49.5468422 C130.286277,48.9488341 130.84386,48.513212 131.640037,48.4911716 C132.460852,48.4678347 133.065117,48.7621389 133.361414,49.4385849 C133.93164,49.1264538 134.442542,48.6908317 135.02152,48.5611823 C136.268627,48.2821119 137.244397,48.7381538 137.325766,50.1924964 C137.416211,51.806308 137.346513,53.4291949 137.346513,55.0822253 L136.424556,55.0822253 C136.41872,54.9503071 136.406726,54.8132028 136.406726,54.6767467 C136.405429,53.3679355 136.41094,52.0594485 136.401539,50.7509614 C136.399918,50.5101376 136.3675,50.2612107 136.301693,50.0297864 C136.137011,49.4541428 135.525615,49.1459013 134.894443,49.4045519 C134.455509,49.5844406 134.066497,49.9037023 133.688832,50.2031926 C133.577315,50.2913541 133.539062,50.5237508 133.537441,50.6903504 C133.526095,52.0247673 133.531606,53.3591842 133.53193,54.6936012 L133.53193,55.0945421 L132.612242,55.0945421 C132.606083,54.9577619 132.594412,54.8213058 132.594412,54.6848498 C132.593116,53.4408634 132.597006,52.1975252 132.590522,50.9535387 C132.58955,50.7237351 132.564264,50.4913385 132.525039,50.2644519 C132.390181,49.4862311 131.850752,49.1822031 131.087965,49.4123309 C130.520657,49.5834682 130.156607,49.9976981 129.804875,50.4255413 C129.728046,50.5188889 129.727073,50.691971 129.726749,50.828427 C129.721562,52.2386888 129.723507,53.6489507 129.723507,55.1019969" id="Fill-84" fill="#8FAAB8"></path>
                <path d="M140.537964,52.0302774 C140.537964,52.561516 140.533749,53.0924305 140.54153,53.6236691 C140.543151,53.7312781 140.551903,53.880375 140.619332,53.9387172 C141.424262,54.6378519 142.866522,54.7574535 143.545347,53.7228509 C144.165497,52.7780306 144.160958,51.7340284 143.875683,50.6835437 C143.679881,49.9620445 143.153742,49.247352 142.018477,49.3539887 C141.465108,49.4061726 141.003805,49.6751951 140.68514,50.1072519 C140.547365,50.2942713 140.558063,50.6070506 140.543475,50.8647288 C140.522079,51.2523807 140.537964,51.6416531 140.537964,52.0302774 L140.537964,52.0302774 Z M139.553764,48.6736532 L140.529859,48.6736532 L140.529859,49.2515656 C140.863761,49.0418576 141.150657,48.7958478 141.483262,48.6652259 C142.859714,48.1232913 144.246217,48.7170857 144.752256,50.1182721 C145.258619,51.520755 145.245328,52.9118936 144.366162,54.2070916 C143.584573,55.3583787 141.827861,55.5787827 140.770722,54.8984473 C140.718206,54.8647384 140.666986,54.8290848 140.5532,54.7532399 L140.5532,58.1241255 L139.553764,58.1241255 L139.553764,48.6736532 Z" id="Fill-85" fill="#8FAAB8"></path>
                <path d="M220.614576,50.7837648 C221.180263,50.7837648 221.696028,50.7892749 222.211468,50.7801995 C222.350216,50.7776065 222.489287,50.7364428 222.626414,50.7050028 C223.423888,50.5234936 223.920526,49.9355333 223.961696,49.1278173 C224.007729,48.2241606 223.626174,47.5652173 222.890293,47.3221246 C222.157979,47.0803283 221.402324,47.1111201 220.631433,47.1464496 C220.624301,47.2359077 220.615224,47.2984635 220.615224,47.3603711 C220.614576,48.484756 220.614576,49.6088167 220.614576,50.7837648 L220.614576,50.7837648 Z M220.630136,55.2770905 L219.617734,55.2770905 L219.617734,46.2936803 C220.499169,46.2936803 221.377038,46.2528407 222.248424,46.3098865 C222.72237,46.3410024 223.213821,46.4771343 223.647569,46.6745256 C224.516362,47.0693082 224.940708,47.7713599 224.989659,48.7505373 C225.093396,50.831411 223.557772,51.5678199 222.110325,51.6352376 C221.632813,51.6576021 221.153357,51.638803 220.630136,51.638803 L220.630136,55.2770905 Z" id="Fill-86" fill="#8FAAB8"></path>
                <path d="M71.2524536,50.4503671 C71.966614,50.4082311 72.6499777,50.4461535 73.2970336,50.3106699 C74.1732821,50.1272159 74.4848156,49.6225554 74.5733157,48.7898818 C74.6705686,47.8713155 74.2507603,47.227606 73.5365999,46.9747896 C72.790346,46.7106288 72.0301526,46.7624886 71.2524536,46.7754535 L71.2524536,50.4503671 Z M70.2484796,45.8925408 C71.545509,45.9508831 72.828923,45.7437681 74.0676007,46.2043477 C74.8893876,46.5099963 75.5659435,47.3160917 75.6135974,48.3506943 C75.7069602,50.3725775 74.2844746,51.1903414 72.7650603,51.2629451 C72.2755541,51.286282 71.7841028,51.2665104 71.2378657,51.2665104 L71.2378657,53.1117462 L71.2378657,54.9093358 L70.2484796,54.9093358 L70.2484796,45.8925408 Z" id="Fill-87" fill="#8FAAB8"></path>
                <path d="M153.984311,51.0471456 C153.735019,49.7493546 153.272419,49.2527972 152.349489,49.2839131 C151.306614,49.3189185 150.675767,50.1344135 150.596344,51.0471456 L153.984311,51.0471456 Z M154.775301,54.6005129 C153.627392,55.4970388 151.292999,55.602379 150.260822,54.3042639 C149.819618,53.7493643 149.576161,53.1176473 149.507436,52.4399048 C149.383276,51.216014 149.589452,50.0592168 150.554849,49.1847313 C151.395114,48.4240132 152.397143,48.2784816 153.430293,48.6790985 C154.457932,49.0774464 154.859262,49.9516078 154.929933,51.0001477 C154.948087,51.2675497 154.932526,51.5372205 154.932526,51.8334695 L150.50136,51.8334695 C150.545124,52.7283748 150.670256,53.5756339 151.424614,54.1097897 C152.404275,54.8034143 153.381667,54.454009 154.373322,53.9146673 C154.503965,54.1373402 154.634932,54.3609855 154.775301,54.6005129 L154.775301,54.6005129 Z" id="Fill-89" fill="#8FAAB8"></path>
                <path d="M253.772041,51.2395799 C253.733788,50.5958704 253.601849,50.0335159 253.02676,49.6977238 C252.413094,49.3395672 251.795862,49.3998542 251.211697,49.7755134 C250.689449,50.1113055 250.480355,50.6260139 250.398338,51.2395799 L253.772041,51.2395799 Z M254.622356,54.8940736 C254.063152,55.0827136 253.562947,55.3368265 253.037134,55.4116991 C251.835088,55.5825122 250.712465,55.3974376 249.942547,54.31292 C249.51431,53.7103742 249.335688,53.0284181 249.311051,52.286175 C249.277337,51.2830124 249.457903,50.3540741 250.141591,49.58817 C250.922532,48.7136845 251.925857,48.4851773 253.022221,48.7817505 C254.040135,49.0566073 254.540987,49.8254285 254.692054,50.8341012 C254.748784,51.2113811 254.762076,51.5954676 254.798708,52.0216902 L250.331558,52.0216902 C250.347119,52.9221056 250.477437,53.7450554 251.226609,54.2785629 C252.238363,54.9990897 253.224832,54.6195409 254.197685,54.0944607 C254.319575,54.3242644 254.443735,54.5576333 254.622356,54.8940736 L254.622356,54.8940736 Z" id="Fill-90" fill="#8FAAB8"></path>
                <path d="M168.088995,51.0427051 L171.406291,51.0427051 C171.479879,50.0508868 170.82796,49.2924376 169.879745,49.2859551 C168.998309,49.2801209 168.164852,49.8661364 168.088995,51.0427051 M171.863055,53.8979101 C171.989484,54.1432716 172.105215,54.369834 172.228078,54.6087132 C171.786874,54.9940961 171.253928,55.1665299 170.715795,55.2336235 C169.794486,55.3486874 168.886144,55.2968276 168.107797,54.6693243 C167.458148,54.1458647 167.117114,53.4405717 167.020185,52.6506824 C166.908669,51.742488 166.936872,50.8333213 167.391043,49.9795796 C168.34866,48.1803695 170.709636,48.0863736 171.743434,49.2460879 C172.169726,49.7241702 172.542853,50.7150161 172.408644,51.8293532 L168.003412,51.8293532 C168.005357,52.7501884 168.160638,53.5630904 168.910457,54.1238243 C169.606464,54.6446909 170.65096,54.6232988 171.863055,53.8979101" id="Fill-91" fill="#8FAAB8"></path>
                <path d="M205.240572,51.896544 C205.16828,51.5199123 205.125813,51.1342052 205.017862,50.7685938 C204.748148,49.8610476 203.997679,49.2617431 203.11819,49.2883212 C202.251342,49.3148994 201.642539,49.6717594 201.338137,50.7105757 C201.102785,51.5118093 201.114132,52.3256836 201.380929,53.1233519 C201.850984,54.529076 203.402168,54.888205 204.419757,54.0101541 C205.045741,53.46984 205.181571,52.6987499 205.240572,51.896544 M206.207914,51.8816343 C206.189112,52.9937024 205.878227,54.0033475 204.967615,54.7015098 C203.549668,55.7889445 200.987054,55.4444011 200.345185,53.1606261 C199.972058,51.8323675 200.090058,50.5744437 200.935186,49.4730716 C202.144363,47.8968585 204.828219,48.2248716 205.764764,50.0292678 C206.064952,50.6078285 206.240332,51.2184773 206.207914,51.8816343" id="Fill-92" fill="#8FAAB8"></path>
                <path d="M229.798523,52.1744496 C229.338192,52.2256611 228.916439,52.2376537 228.512191,52.3280842 C228.181856,52.4019844 227.844388,52.5254755 227.559437,52.7053641 C227.169453,52.9513739 227.037837,53.3727347 227.079332,53.819377 C227.112398,54.17332 227.320519,54.4371566 227.657014,54.5742609 C228.391922,54.8731028 229.368665,54.3292235 229.76027,53.7950677 C229.787825,53.7574693 229.796578,53.6984789 229.796902,53.648888 C229.799495,53.174371 229.798523,52.699854 229.798523,52.1744496 M226.817722,50.2086399 C226.629699,49.9739744 226.468584,49.773666 226.308117,49.5736817 C227.139629,48.6625702 228.82567,48.3711831 229.8961,48.9643293 C230.634898,49.3733733 230.78564,50.0948725 230.801848,50.8445704 C230.827134,52.0354006 230.803469,53.2272032 230.810925,54.4183575 C230.812546,54.6964555 230.857283,54.9742294 230.884513,55.2756644 L229.990759,55.2756644 C229.945375,55.0662806 229.898045,54.8484695 229.865303,54.6967797 C229.392006,54.9288521 228.925516,55.2257494 228.416559,55.3920248 C227.508541,55.6885979 226.501326,55.2254253 226.173259,54.4342395 C225.811478,53.5610505 226.1966,52.5442746 227.074793,52.0655441 C227.767558,51.6876159 228.513164,51.5326849 229.298643,51.5531047 C229.450682,51.5573183 229.603044,51.5537529 229.826078,51.5537529 C229.791715,51.0840978 229.813111,50.6410208 229.71521,50.2261425 C229.603044,49.7519497 229.248396,49.5655786 228.765049,49.5328421 C228.033707,49.4835753 227.386003,49.6543885 226.817722,50.2086399" id="Fill-93" fill="#8FAAB8"></path>
                <path d="M83.9206801,51.9039967 C83.1439537,51.8641295 82.4284965,51.849544 81.7785231,52.2527538 C81.0724671,52.6903207 80.9709999,53.6555608 81.5836931,54.1038238 C82.3176283,54.6408966 83.6273005,53.9168044 83.9093339,53.3294924 C83.9252185,53.296756 83.9203559,53.2533234 83.9203559,53.2144285 C83.9210043,52.7895025 83.9206801,52.3645764 83.9206801,51.9039967 M80.917835,49.8484048 C80.7463457,49.6205458 80.5849059,49.4056519 80.41212,49.1758482 C80.9288569,48.6478509 81.5655392,48.3914691 82.263815,48.3214584 C82.8233433,48.265385 83.3948661,48.2747846 83.9203559,48.5451037 C84.5106809,48.8494558 84.816055,49.3492544 84.8458792,49.9971775 C84.8757034,50.6567691 84.8487968,51.3189536 84.8633847,51.9795175 C84.8844562,52.9441094 84.920764,53.9087013 84.9515607,54.9011679 L84.0921693,54.9011679 C84.0497023,54.6908117 84.0052901,54.4710558 83.9735208,54.3148283 C83.5047618,54.5527349 83.0444315,54.870052 82.5351506,55.0269278 C81.4981105,55.3461896 80.4678782,54.7841593 80.2169658,53.8432284 C79.99296,53.003424 80.3566858,52.1713987 81.1577254,51.7098467 C81.7363801,51.3763235 82.3688481,51.2239854 83.0311403,51.1918972 C83.3125253,51.178284 83.5952071,51.1896283 83.9556911,51.1896283 C83.9122515,50.7047394 83.9174383,50.2645795 83.823103,49.8471083 C83.7255259,49.4153756 83.3455913,49.1985369 82.8998489,49.1612627 C82.1377104,49.0974103 81.475094,49.2993393 80.917835,49.8484048" id="Fill-94" fill="#8FAAB8"></path>
                <path d="M189.398043,52.0752333 C189.021675,52.0752333 188.696526,52.0470345 188.37786,52.0817158 C187.835513,52.140058 187.311969,52.2680869 186.930737,52.7124603 C186.383528,53.3506598 186.646111,54.2355172 187.449744,54.4549489 C188.003761,54.6066388 189.152318,54.0640559 189.36984,53.5457822 C189.38929,53.5000807 189.396422,53.4466003 189.396746,53.3970094 C189.399016,52.9720834 189.398043,52.5471573 189.398043,52.0752333 M186.397467,50.0248273 C186.206203,49.7833552 186.048654,49.5836951 185.875868,49.3649116 C186.405248,48.8511757 187.025397,48.5640022 187.729184,48.5095494 C188.147047,48.477137 188.583388,48.5046875 188.993471,48.5912285 C189.812341,48.7643106 190.323567,49.4430254 190.331023,50.2928775 C190.339451,51.3161358 190.323891,52.339394 190.344314,53.3620041 C190.35566,53.9344064 190.418226,54.5061605 190.459072,55.0980102 L189.565966,55.0980102 C189.526093,54.8847368 189.484598,54.6640087 189.431757,54.3833176 C189.319593,54.4815271 189.220719,54.5683922 189.121521,54.6546091 C188.484514,55.2082122 187.749931,55.3864802 186.929441,55.2091846 C186.257747,55.0643014 185.809087,54.6358099 185.684928,53.9823767 C185.542939,53.2368924 185.69984,52.5354889 186.377044,52.0580548 C187.083424,51.5595526 187.885761,51.3760987 188.737372,51.3696162 C188.942251,51.3679956 189.146807,51.3692921 189.434351,51.3692921 C189.391884,50.897044 189.393829,50.4610977 189.304356,50.0445988 C189.211318,49.6131903 188.801883,49.3798213 188.351926,49.3457883 C187.617991,49.2900391 186.97288,49.4721965 186.397467,50.0248273" id="Fill-95" fill="#8FAAB8"></path>
                <path d="M106.403733,48.4752226 L107.422295,48.4752226 L107.422295,54.894815 C106.596942,55.0199267 106.596942,55.0199267 106.335332,53.966525 C106.243914,54.1020086 106.171299,54.2562915 106.057837,54.3694107 C105.364748,55.0584974 104.526428,55.2309312 103.602201,54.9959416 C102.959036,54.8322592 102.480551,54.2705529 102.442623,53.5999412 C102.388485,52.6453971 102.376167,51.6882601 102.360282,50.7320954 C102.348288,49.9950383 102.358013,49.257657 102.358013,48.4927253 L103.370091,48.4927253 C103.370091,48.6927096 103.370091,48.8836184 103.370091,49.0745272 C103.369767,50.3839866 103.385976,51.6937702 103.363608,53.0029055 C103.344805,54.0783476 104.109213,54.4138156 105.037006,54.1515995 C105.582919,53.9976409 105.965447,53.6002653 106.311343,53.1795528 C106.395304,53.0774539 106.402761,52.8920552 106.403409,52.7449031 C106.409244,51.4873034 106.404706,50.2297038 106.403733,48.9721041 C106.403733,48.8191178 106.403733,48.6654832 106.403733,48.4752226" id="Fill-96" fill="#8FAAB8"></path>
                <path d="M95.3048117,48.4752226 L96.1940273,48.4752226 L96.1940273,49.3085445 C96.5535388,49.0482732 96.8546986,48.7970774 97.1866552,48.596769 C97.7828154,48.2363435 98.4379757,48.2259716 99.0879492,48.4013224 C99.7421369,48.5773216 100.236506,49.2579812 100.249149,50.0556494 C100.274434,51.6610337 100.256605,53.2667421 100.256605,54.9016216 L99.3177902,54.9016216 L99.3177902,54.4786403 C99.3177902,53.1824699 99.3378891,51.8856513 99.3106583,50.5901292 C99.2912077,49.6861485 99.0561799,49.3023861 98.4136625,49.1759779 C97.9556014,49.0858715 97.5163425,49.2148727 97.1227924,49.472551 C97.0258637,49.5360792 96.9341218,49.6083588 96.8427041,49.6799901 C96.4186815,50.0131892 96.1700383,50.3888485 96.1956482,50.9900978 C96.2501098,52.2820545 96.2121812,53.5782249 96.2121812,54.9012975 L95.3048117,54.9012975 L95.3048117,48.4752226 Z" id="Fill-98" fill="#8FAAB8"></path>
                <path d="M247.57311,55.2773498 L246.67968,55.2773498 L246.67968,54.8326522 C246.67968,53.4855945 246.678707,52.1382126 246.680328,50.7911548 C246.681301,49.7866958 245.993723,49.2953244 245.026056,49.6084277 C244.436055,49.7993365 243.995176,50.1860161 243.64928,50.6819252 C243.577961,50.7840241 243.579582,50.9496513 243.578933,51.0861073 C243.574395,52.4707635 243.576016,53.8554195 243.576016,55.2682744 L242.658273,55.2682744 L242.658273,48.8600263 L243.576016,48.8600263 L243.576016,49.7575246 C243.797428,49.5555956 243.947846,49.4077952 244.108637,49.2726356 C244.812748,48.6804618 245.618975,48.5281237 246.488091,48.783209 C247.187016,48.9883792 247.575379,49.5380929 247.596774,50.217456 C247.647994,51.8737277 247.613307,53.5325924 247.611686,55.1904847 C247.611686,55.2128493 247.59256,55.2352138 247.57311,55.2773498" id="Fill-99" fill="#8FAAB8"></path>
                <path d="M212.889122,55.0986908 L211.980456,55.0986908 C211.973,54.9687173 211.960681,54.8559222 211.960681,54.7431272 C211.960681,53.3827804 211.960681,52.0224336 211.964247,50.6620867 C211.967165,49.5843757 211.220587,49.0567025 210.207861,49.4479197 C209.680425,49.6517934 209.248622,50.0031435 208.939358,50.4812258 C208.870633,50.5881866 208.860259,50.7473313 208.859611,50.8828149 C208.8541,52.1394422 208.856369,53.3963936 208.856369,54.6530209 L208.856369,55.0941531 L207.933439,55.0941531 L207.933439,48.6836362 L208.839512,48.6836362 L208.839512,49.5817827 C209.047957,49.3902257 209.181518,49.2680311 209.315079,49.1455123 C210.06652,48.4541567 211.282505,48.2736198 212.068956,48.7283653 C212.568512,49.0174835 212.860595,49.4816285 212.873886,50.0174049 C212.915381,51.6983099 212.889122,53.3808356 212.889122,55.0986908" id="Fill-100" fill="#8FAAB8"></path>
                <path d="M179.205811,55.0975888 L178.263754,55.0975888 C178.263754,54.4088261 178.271534,53.7388626 178.261485,53.0692232 C178.248518,52.1655665 178.232309,51.2615858 178.197298,50.3582533 C178.16099,49.4260738 177.37,49.2160416 176.634444,49.4020886 C176.058059,49.5479442 175.640844,49.9424026 175.28036,50.3874244 C175.187645,50.5015159 175.165925,50.6976107 175.164953,50.8564313 C175.156524,52.2543764 175.16009,53.6523216 175.16009,55.0839756 L174.246237,55.0839756 L174.246237,48.6789688 L175.153931,48.6789688 L175.153931,49.5482683 C175.650569,49.0429596 176.12646,48.6682728 176.758604,48.5496435 C178.161639,48.2864551 179.175662,48.9019658 179.200948,50.4561386 C179.223964,51.8673728 179.205811,53.2795795 179.205811,54.691462 L179.205811,55.0975888 Z" id="Fill-101" fill="#8FAAB8"></path>
                <path d="M181.694739,49.3530811 L180.626254,49.3530811 L180.626254,48.6662631 L181.678206,48.6662631 L181.678206,46.8164897 L182.695147,46.8164897 L182.695147,48.6413057 L184.308573,48.6413057 L184.308573,49.3530811 L182.706817,49.3530811 L182.706817,51.3315317 C182.706817,52.1087801 182.706493,52.8860285 182.706817,53.663277 C182.706817,54.2972628 183.100043,54.5986978 183.718572,54.4317741 C183.915347,54.3789419 184.106611,54.3076347 184.341314,54.2314657 C184.435325,54.421078 184.546194,54.6450474 184.655765,54.8657756 C183.814528,55.5269878 182.408575,55.4190546 181.979366,54.6288413 C181.803338,54.3053659 181.717107,53.8982666 181.707058,53.5261727 C181.674316,52.2967718 181.694739,51.0657503 181.694739,49.835377 L181.694739,49.3530811 Z" id="Fill-102" fill="#8FAAB8"></path>
                <path d="M240.819383,54.3853617 C240.934141,54.6164618 241.047278,54.8439966 241.161713,55.0738002 C240.596998,55.4802512 239.966799,55.5259527 239.340166,55.4283915 C238.654857,55.3214306 238.205549,54.6819348 238.201335,53.9001486 C238.194203,52.6043024 238.199065,51.3084561 238.199065,50.0126099 L238.199065,49.5594851 L237.139657,49.5594851 L237.139657,48.8412271 L238.186098,48.8412271 L238.186098,46.9982603 L239.13788,46.9982603 C239.13788,47.4850939 239.152468,47.9729 239.132369,48.4594095 C239.120699,48.7488519 239.216331,48.8522473 239.508414,48.8366894 C239.908447,48.8152972 240.310102,48.8315034 240.743201,48.8315034 L240.743201,49.5478167 C240.349003,49.5478167 239.93892,49.5669399 239.53143,49.5416583 C239.224435,49.522535 239.128155,49.6181514 239.132693,49.9312549 C239.150523,51.1233815 239.140473,52.3158324 239.141446,53.507959 C239.142418,54.598635 239.646837,54.9214621 240.643679,54.4699579 C240.699437,54.4446762 240.754223,54.4168016 240.819383,54.3853617" id="Fill-103" fill="#8FAAB8"></path>
                <path d="M90.0320518,54.0323221 C90.1497277,54.2669876 90.2592993,54.4847987 90.3734094,54.7126576 C89.800914,55.1032265 89.162935,55.162217 88.524632,55.0503943 C87.8386749,54.9304686 87.4208116,54.3237092 87.4201633,53.5746595 C87.4188665,52.2525593 87.4191907,50.930459 87.4188665,49.6080347 C87.4188665,49.4816265 87.4188665,49.3552183 87.4188665,49.1925082 L86.3601068,49.1925082 L86.3601068,48.4729538 L87.4071962,48.4729538 L87.4071962,46.6267456 L88.3424449,46.6267456 L88.3424449,48.4496169 L89.9688374,48.4496169 L89.9688374,49.1675507 L88.381346,49.1675507 C88.3709723,49.3121098 88.3563844,49.4223118 88.3563844,49.5325139 C88.3547636,50.7508946 88.3745383,51.9702476 88.3492526,53.1883042 C88.3285053,54.1943839 88.8578851,54.517211 89.7464524,54.1483584 C89.8297657,54.1136771 89.9137274,54.0802924 90.0320518,54.0323221" id="Fill-104" fill="#8FAAB8"></path>
                <path d="M195.83693,54.8935854 C195.279671,55.2860991 194.673786,55.330504 194.069197,55.249149 C193.360223,55.1541808 192.904107,54.5574692 192.899893,53.7931857 C192.893409,52.4727061 192.897624,51.1522265 192.897299,49.8317469 L192.897299,49.3747325 L191.838215,49.3747325 L191.838215,48.667819 L192.877849,48.667819 L192.877849,46.8102665 L193.822499,46.8102665 L193.822499,48.6357307 L195.44338,48.6357307 L195.44338,49.3546369 L193.833521,49.3546369 L193.833521,49.8019275 C193.832872,50.9927577 193.860427,52.1848843 193.822823,53.374418 C193.790405,54.4074 194.383648,54.7111039 195.296852,54.3040046 C195.35488,54.2780747 195.412908,54.2540895 195.502704,54.215843 C195.611303,54.4359228 195.717309,54.6508168 195.83693,54.8935854" id="Fill-105" fill="#8FAAB8"></path>
                <polygon id="Fill-106" fill="#8FAAB8" points="146.780335 55.0918843 147.748974 55.0918843 147.748974 45.4158219 146.780335 45.4158219"></polygon>
                <polygon id="Fill-107" fill="#8FAAB8" points="125.230391 55.0973944 126.190601 55.0973944 126.190601 46.108474 125.230391 46.108474"></polygon>
                <polygon id="Fill-108" fill="#8FAAB8" points="77.4755365 54.9129011 78.3663729 54.9129011 78.3663729 45.2177154 77.4755365 45.2177154"></polygon>
                <path d="M233.928756,55.2825682 L233.011013,55.2825682 L233.011013,48.8594105 L233.932646,48.8594105 L233.932646,49.731303 C234.218245,49.4707076 234.480828,49.2188636 234.758323,48.9841981 C234.863356,48.8950641 234.998213,48.7965305 235.125939,48.7871309 C235.513978,48.7582839 235.905259,48.7706006 236.295243,48.7670352 C236.258611,49.0694426 236.221979,49.3715258 236.185023,49.6765262 C234.948614,49.4204685 233.928107,50.2596245 233.928756,51.4750881 C233.92908,52.7304189 233.928756,53.9857497 233.928756,55.2825682" id="Fill-109" fill="#8FAAB8"></path>
                <path d="M257.494849,55.2890507 L256.587156,55.2890507 L256.587156,48.8655688 L257.477668,48.8655688 L257.477668,49.8327537 C258.129587,48.9547029 258.83467,48.4289743 259.909639,48.7903721 C259.879166,48.8908505 259.836051,48.9722055 259.833133,49.0551811 C259.816924,49.5209468 259.623715,49.671016 259.128374,49.631797 C258.3309,49.5689171 257.495498,50.4515057 257.495174,51.2592218 C257.494525,52.4646375 257.494849,53.669405 257.494849,54.8748207 L257.494849,55.2890507 Z" id="Fill-110" fill="#8FAAB8"></path>
                <polygon id="Fill-111" fill="#8FAAB8" points="91.9581128 54.8976673 92.9241582 54.8976673 92.9241582 48.4842333 91.9581128 48.4842333"></polygon>
                <polygon id="Fill-112" fill="#8FAAB8" points="197.436773 55.0811882 198.331499 55.0811882 198.331499 48.6716436 197.436773 48.6716436"></polygon>
                <path d="M198.585493,46.6773434 C198.583514,47.0679124 198.254151,47.413104 197.890425,47.4059733 C197.49266,47.3981943 197.170105,47.0491131 197.179831,46.6368279 C197.188907,46.2692717 197.509842,45.9412586 197.87065,45.9315349 C198.260635,45.9208389 198.587728,46.2618169 198.585493,46.6773434" id="Fill-114" fill="#8FAAB8"></path>
                <path d="M93.1058621,46.4906137 C93.1065074,46.8883134 92.7975673,47.2160024 92.4202261,47.2186191 C92.0279728,47.2205401 91.6927745,46.8675695 91.7012031,46.4611185 C91.7089833,46.0948588 92.0649289,45.7451294 92.4302756,45.744475 C92.7933531,45.7435088 93.1052107,46.0880522 93.1058621,46.4906137" id="Fill-115" fill="#8FAAB8"></path>
                <path d="M140.537964,52.0302774 C140.537964,51.6416531 140.522079,51.2523807 140.543475,50.8647288 C140.558063,50.6070506 140.547365,50.2942713 140.68514,50.1072519 C141.003805,49.6751951 141.465108,49.4061726 142.018477,49.3539887 C143.153742,49.247352 143.679881,49.9620445 143.875683,50.6835437 C144.160958,51.7340284 144.165497,52.7780306 143.545347,53.7228509 C142.866522,54.7574535 141.424262,54.6378519 140.619332,53.9387172 C140.551903,53.880375 140.543151,53.7312781 140.54153,53.6236691 C140.533749,53.0924305 140.537964,52.561516 140.537964,52.0302774" id="Fill-120" fill="#FFFFFF"></path>
                <path d="M71.2524536,50.4503671 L71.2524536,46.7754535 C72.0301526,46.7624886 72.790346,46.7106288 73.5365999,46.9747896 C74.2507603,47.227606 74.6705686,47.8713155 74.5733157,48.7898818 C74.4848156,49.6225554 74.1732821,50.1272159 73.2970336,50.3106699 C72.6499777,50.4461535 71.966614,50.4082311 71.2524536,50.4503671" id="Fill-122" fill="#FFFFFF"></path>
                <path d="M153.984311,51.0471456 L150.596344,51.0471456 C150.675767,50.1344135 151.306614,49.3189185 152.349489,49.2839131 C153.272419,49.2527972 153.735019,49.7493546 153.984311,51.0471456" id="Fill-123" fill="#FFFFFF"></path>
                <path d="M168.088833,51.042543 C168.16469,49.8659743 168.998471,49.280283 169.879907,49.2861172 C170.827798,49.2922755 171.480041,50.0507248 171.406453,51.042543 C170.301984,51.042543 169.19557,51.042543 168.088833,51.042543" id="Fill-125" fill="#FFFFFF"></path>
                <path d="M205.240572,51.896544 C205.181571,52.6987499 205.045741,53.46984 204.419757,54.0101541 C203.402168,54.888205 201.850984,54.529076 201.380929,53.1233519 C201.114132,52.3256836 201.102785,51.5118093 201.338137,50.7105757 C201.642539,49.6717594 202.251342,49.3148994 203.11819,49.2883212 C203.997679,49.2617431 204.748148,49.8610476 205.017862,50.7685938 C205.125813,51.1342052 205.16828,51.5199123 205.240572,51.896544" id="Fill-126" fill="#FFFFFF"></path>
                <path d="M83.9206801,51.9039967 C83.9206801,52.3645764 83.9210043,52.7895025 83.9203559,53.2144285 C83.9203559,53.2533234 83.9252185,53.296756 83.9093339,53.3294924 C83.6273005,53.9168044 82.3176283,54.6408966 81.5836931,54.1038238 C80.9709999,53.6555608 81.0724671,52.6903207 81.7785231,52.2527538 C82.4284965,51.849544 83.1439537,51.8641295 83.9206801,51.9039967" id="Fill-128" fill="#FFFFFF"></path>
                <path d="M189.398043,52.0752333 C189.398043,52.5471573 189.399016,52.9720834 189.396746,53.3970094 C189.396422,53.4466003 189.38929,53.5000807 189.36984,53.5457822 C189.152318,54.0640559 188.003761,54.6066388 187.449744,54.4549489 C186.646111,54.2355172 186.383528,53.3506598 186.930737,52.7124603 C187.311969,52.2680869 187.835513,52.140058 188.37786,52.0817158 C188.696526,52.0470345 189.021675,52.0752333 189.398043,52.0752333" id="Fill-129" fill="#FFFFFF"></path>
            </g>
            <text id="" font-family="Cairo-Regular, Cairo" font-size="12" font-weight="normal" letter-spacing="0.06" fill="#8FAAB8">
                <tspan x="247" y="16"> </tspan>
                <tspan x="249.7" y="16" font-family="PingFangSC-Regular, PingFang SC" font-size="10" letter-spacing="0.05"></tspan>
            </text>
        </g>
    </g>
</svg>