<svg width="197" height="89" viewBox="0 0 197 89" fill="none" xmlns="http://www.w3.org/2000/svg">
<path d="M23.4486 56.3405C16.836 56.3405 11.5093 50.3212 11.5093 42.9007C11.5093 35.4802 16.8728 29.4608 23.4486 29.4608C30.0244 29.4608 35.3879 35.4802 35.3879 42.9007C35.3879 50.3212 30.0335 56.3405 23.4486 56.3405ZM39.8972 1.10537e-05C39.3931 -0.00120092 38.8937 0.0972636 38.4274 0.289783C37.9612 0.482302 37.5373 0.765105 37.18 1.12205C36.8227 1.47899 36.5389 1.90307 36.3448 2.3701C36.1508 2.83712 36.0503 3.33792 36.0491 3.84393C36.0491 10.7206 36.0491 15.6522 36.0491 23.3677C35.4338 22.8607 34.9654 22.4459 34.4786 22.0772C27.7834 16.9059 17.681 16.786 10.3337 22.114C2.06803 28.0965 -1.0821 36.5126 0.323059 46.468C1.65475 55.8336 6.66007 62.7932 15.7523 65.9273C31.3652 71.283 46.6016 61.3183 47.7496 45.5647C48.0435 41.518 48.0802 37.4528 48.0435 33.36V30.7513C48.0435 19.2196 48.0435 11.5318 48.0435 1.10537e-05H39.8972ZM75.1916 56.4051C68.5791 56.4051 63.2523 50.3857 63.2523 42.9652C63.2523 35.5447 68.6158 29.5253 75.1916 29.5253C81.7674 29.5253 87.1309 35.5355 87.1309 42.9652C87.1309 50.3949 81.7674 56.4051 75.1916 56.4051ZM98.8682 39.9878C97.7202 24.2157 82.447 14.2603 66.8709 19.6067C57.7786 22.7409 52.7733 29.7466 51.4416 39.066C50.0364 49.0214 53.1958 57.4283 61.4706 63.42C68.8179 68.748 78.9204 68.6189 85.6064 63.42C86.2584 62.913 86.883 62.3691 87.8473 61.5764V62.3415C87.8473 63.3658 88.2527 64.3482 88.9744 65.0726C89.696 65.7969 90.6748 66.2038 91.6954 66.2038H99.1437V66.001V54.0176C99.208 49.3072 99.208 44.6337 98.8682 39.9878ZM193.914 20.3811H194.208C194.704 20.3811 194.906 20.6299 194.906 21.0171C194.906 21.4043 194.704 21.6347 194.208 21.6347H193.914V20.3811ZM193.914 22.1233H194.346L194.823 22.8423H195.475L194.915 21.9205C195.091 21.8389 195.24 21.709 195.346 21.5459C195.452 21.3829 195.509 21.1931 195.512 20.9987C195.515 20.8348 195.483 20.6723 195.417 20.5223C195.351 20.3723 195.254 20.2384 195.132 20.1298C195.01 20.0211 194.865 19.9404 194.709 19.893C194.553 19.8457 194.388 19.833 194.226 19.8556H193.308V22.8423H193.914V22.1233ZM144.945 65.3926V66.2407H136.826C136.32 66.2419 135.819 66.1428 135.352 65.9492C134.884 65.7555 134.46 65.471 134.102 65.1122C133.745 64.7533 133.461 64.327 133.268 63.8578C133.075 63.3887 132.977 62.8859 132.978 62.3784C132.978 56.4973 132.978 45.3803 132.978 39.3333C132.989 38.0704 132.831 36.8118 132.509 35.5908C131.472 31.9036 128.266 29.8019 124.042 29.9494C119.578 30.1061 116.162 32.7148 115.381 36.614C115.161 37.691 115.044 38.7869 115.032 39.8864V40.8082C115.032 40.8082 115.032 48.4223 115.032 52.2293V62.3691C115.032 63.3919 114.628 64.3729 113.908 65.097C113.189 65.821 112.212 66.229 111.193 66.2315H103.093V61.8621C103.093 55.0316 103.029 48.2103 103.093 41.3889C103.093 41.0294 103.093 40.6699 103.093 40.3012C103.093 39.997 103.093 39.6928 103.093 39.3794C103.221 30.8066 106.656 24.0498 114.591 20.1783C121.461 16.8413 133.4 17.3299 139.627 24.2157C142.995 27.8496 144.883 32.619 144.917 37.5819C145.046 46.846 144.917 56.1101 144.917 65.3834L144.945 65.3926ZM194.291 19.1182C194.587 19.1102 194.882 19.1638 195.157 19.2756C195.431 19.3875 195.68 19.5551 195.887 19.7681C196.094 19.9811 196.255 20.2348 196.359 20.5132C196.464 20.7916 196.51 21.0887 196.495 21.3858C196.48 21.8155 196.341 22.2315 196.093 22.582C195.845 22.9326 195.5 23.2023 195.1 23.3576C194.701 23.513 194.265 23.5471 193.846 23.4558C193.427 23.3645 193.045 23.1518 192.746 22.844C192.447 22.5363 192.244 22.1471 192.164 21.7249C192.083 21.3026 192.128 20.8659 192.292 20.469C192.457 20.0721 192.734 19.7324 193.089 19.4923C193.445 19.2521 193.862 19.122 194.291 19.1182ZM194.291 24.0775C194.824 24.0811 195.346 23.9256 195.792 23.6306C196.237 23.3357 196.585 22.9146 196.791 22.4209C196.997 21.9272 197.052 21.3831 196.95 20.8577C196.847 20.3323 196.592 19.8493 196.215 19.4701C195.839 19.0909 195.358 18.8326 194.835 18.7279C194.312 18.6232 193.77 18.677 193.277 18.8822C192.785 19.0875 192.364 19.4351 192.068 19.8809C191.773 20.3266 191.616 20.8505 191.618 21.3858C191.614 21.7395 191.681 22.0904 191.814 22.4181C191.947 22.7457 192.143 23.0435 192.392 23.294C192.641 23.5446 192.937 23.7429 193.263 23.8774C193.589 24.0119 193.938 24.0799 194.291 24.0775ZM184.023 44.7904C183.636 48.2011 181.999 51.3455 179.431 53.612C179.097 53.9055 178.744 54.1765 178.375 54.4232C176.542 55.7071 174.364 56.4015 172.13 56.4143C171.171 56.4129 170.216 56.2827 169.292 56.0271C167.639 55.57 166.11 54.7445 164.819 53.612C163.325 52.277 162.135 50.6355 161.329 48.7986C160.522 46.9618 160.118 44.9724 160.144 42.9652C160.144 42.8269 160.144 42.6887 160.144 42.5504C160.196 40.7559 160.569 38.9854 161.246 37.3238C163.138 32.7148 167.244 29.5806 172.01 29.5253H172.12C174.987 29.547 177.737 30.6683 179.807 32.6595C181.186 33.9712 182.272 35.5608 182.994 37.3238C183.969 39.6828 184.311 42.2573 183.986 44.7904H184.023ZM195.962 40.8451C195.649 34.5737 192.903 28.6743 188.312 24.4093C183.888 20.3873 178.117 18.1855 172.148 18.2425H171.367C168.473 18.3463 165.618 18.9481 162.927 20.0216C159.308 21.5119 156.113 23.8788 153.627 26.9109C151.141 29.943 149.443 33.5458 148.683 37.3975C147.478 42.8383 148.051 48.5238 150.317 53.612C151.192 55.5712 152.316 57.4086 153.66 59.0783C155.47 61.339 157.684 63.2399 160.19 64.6829C161.407 65.3733 162.69 65.9384 164.02 66.3698C164.58 66.5541 165.14 66.72 165.701 66.8491C167.209 67.1791 168.749 67.346 170.293 67.3469C172.152 67.3455 174.004 67.107 175.803 66.6371C178.6 65.8585 181.229 64.5644 183.555 62.8208L184.078 62.4337C184.156 63.0451 184.196 63.6608 184.197 64.2773C184.197 68.4162 182.654 72.2693 179.908 74.583C178.473 75.7834 176.807 76.6745 175.013 77.2009C174.22 77.4367 173.524 77.9227 173.028 78.5868C172.531 79.251 172.262 80.058 172.258 80.8881V89C173.268 89.0006 174.276 88.9452 175.28 88.8341C180.175 88.2607 184.768 86.162 188.413 82.8331C193.001 78.5658 195.747 72.6678 196.063 66.3974C196.201 62.1387 196.293 57.88 196.302 53.6212C196.302 51.7776 196.302 49.8603 196.238 47.9798C196.201 45.6016 196.143 43.2264 196.063 40.8543L195.962 40.8451Z" fill="white"/>
</svg>
