<?xml version="1.0" encoding="UTF-8"?>
<svg width="153px" height="41px" viewBox="0 0 153 41" version="1.1" xmlns="http://www.w3.org/2000/svg" xmlns:xlink="http://www.w3.org/1999/xlink">
    <!-- Generator: Sketch 61 (89581) - https://sketch.com -->
    <title>enbd_white</title>
    <desc>Created with Sketch.</desc>
    <g id="Page-1" stroke="none" stroke-width="1" fill="none" fill-rule="evenodd">
        <g id="enbd_white">
            <path d="M152.886115,0.266086956 L152.886115,40.0232035 L-1.27897692e-14,40.0232035 L-1.27897692e-14,0.266086956 L152.886115,0.266086956 Z M150.524593,2.62920522 L28.5141444,2.62920522 L28.5141444,37.6611495 L150.524593,37.6611495 L150.524593,2.62920522 Z M26.1512922,2.62760869 L2.36152174,2.62760869 L2.36152174,37.6603513 L26.1512922,37.6603513 L26.1512922,2.62760869 Z" id="Combined-Shape" fill="#FFFFFF" fill-rule="nonzero"></path>
            <polygon id="Fill-4" fill="#FFFFFF" fill-rule="nonzero" points="36.1359924 13.4998685 43.9695924 13.4998685 43.9695924 15.591312 38.7979262 15.591312 38.7979262 18.8617867 43.5324114 18.8617867 43.5324114 20.9534964 38.7979262 20.9534964 38.7979262 24.6800442 44.0076427 24.6800442 44.0076427 26.7717538 36.1359924 26.7717538"></polygon>
            <g id="Group-24" transform="translate(6.120000, 2.540160)">
                <path d="M39.2002764,14.4392213 L41.5769651,14.4392213 L41.5769651,15.8082386 L41.6150154,15.8082386 C42.4135425,14.6103152 43.5734154,14.2111847 44.5241442,14.2111847 C45.8931615,14.2111847 46.8627825,14.7244665 47.4143807,15.941282 C48.0034973,14.7625169 49.2775215,14.2111847 50.4754451,14.2111847 C52.8901842,14.2111847 53.5745598,15.8651813 53.5745598,18.0518838 L53.5745598,24.2317534 L51.0267773,24.2317534 L51.0267773,18.3943378 C51.0267773,17.4813934 51.0267773,16.1884769 49.5627667,16.1884769 C47.8704538,16.1884769 47.6613094,18.2040855 47.6613094,19.47811 L47.6613094,24.2317534 L45.1135267,24.2317534 L45.1135267,18.3943378 C45.1135267,17.4813934 45.1135267,16.1884769 43.6495164,16.1884769 C41.9572033,16.1884769 41.7480589,18.2040855 41.7480589,19.47811 L41.7480589,24.2317534 L39.2002764,24.2317534 L39.2002764,14.4392213 Z" id="Fill-5" fill="#FFFFFF" fill-rule="nonzero"></path>
                <path d="M55.0584469,24.2316469 L57.6062295,24.2316469 L57.6062295,14.4391147 L55.0584469,14.4391147 L55.0584469,24.2316469 Z M55.0584469,12.6518087 L57.6062295,12.6518087 L57.6062295,10.2181774 L55.0584469,10.2181774 L55.0584469,12.6518087 Z" id="Fill-7" fill="#FFFFFF" fill-rule="nonzero"></path>
                <path d="M59.0136167,14.4392213 L61.276154,14.4392213 L61.276154,16.6637082 L61.3142046,16.6637082 C61.4283558,15.751296 62.4740775,14.2111847 63.9952967,14.2111847 C64.2422254,14.2111847 64.5085785,14.2111847 64.7746654,14.2870195 L64.7746654,16.8539604 C64.5466288,16.7209169 64.0902898,16.644816 63.6339506,16.644816 C61.5613993,16.644816 61.5613993,19.2311813 61.5613993,20.6379829 L61.5613993,24.2317534 L59.0136167,24.2317534 L59.0136167,14.4392213 Z" id="Fill-9" fill="#FFFFFF" fill-rule="nonzero"></path>
                <path d="M68.7209745,22.5961967 C69.5006093,22.5961967 70.108884,22.2542749 70.5077484,21.7218349 C70.9263031,21.1705027 71.0404545,20.4669689 71.0404545,19.7062262 L69.93779,19.7062262 C68.7970753,19.7062262 67.1047622,19.8964785 67.1047622,21.3985393 C67.1047622,22.2351167 67.8082962,22.5961967 68.7209745,22.5961967 L68.7209745,22.5961967 Z M65.7357449,14.9525827 C66.724524,14.4962436 68.0554909,14.2109985 69.1392632,14.2109985 C72.1242266,14.2109985 73.3599345,15.4469724 73.3599345,18.3372088 L73.3599345,19.5923411 C73.3599345,20.580854 73.3790927,21.3224385 73.3979849,22.0448645 C73.4171432,22.7864488 73.4551935,23.4708245 73.5121362,24.2315672 L71.2687571,24.2315672 C71.173498,23.7182854 71.173498,23.071694 71.1543396,22.7678227 L71.1162893,22.7678227 C70.5271727,23.8513289 69.2531484,24.4598698 68.0935414,24.4598698 C66.363178,24.4598698 64.6708649,23.413882 64.6708649,21.5504749 C64.6708649,20.0864645 65.3743987,19.2312611 66.3442858,18.7554975 C67.3139066,18.2800002 68.5687727,18.1852733 69.6336527,18.1852733 L71.0404545,18.1852733 C71.0404545,16.6068454 70.3369205,16.0744054 68.8351258,16.0744054 C67.7510874,16.0744054 66.6673153,16.492694 65.8118458,17.1392854 L65.7357449,14.9525827 Z" id="Fill-10" fill="#FFFFFF" fill-rule="nonzero"></path>
                <path d="M75.3758891,16.3026015 L73.49359,16.3026015 L73.49359,14.4391946 L75.3758891,14.4391946 L75.3758891,12.4807946 L77.9234055,11.6631094 L77.9234055,14.4391946 L80.1862091,14.4391946 L80.1862091,16.3026015 L77.9234055,16.3026015 L77.9234055,20.8659929 C77.9234055,21.7028364 78.1522404,22.4824712 79.1213291,22.4824712 C79.5776682,22.4824712 80.0153813,22.387212 80.2814682,22.2163842 L80.3573029,24.2317267 C79.8251291,24.3836625 79.2357465,24.4597633 78.4747378,24.4597633 C76.4788194,24.4597633 75.3758891,23.2240554 75.3758891,21.2845476 L75.3758891,16.3026015 Z" id="Fill-11" fill="#FFFFFF" fill-rule="nonzero"></path>
                <path d="M87.1263156,18.3751795 C87.0504809,17.1392055 86.4802566,16.0745916 85.0542966,16.0745916 C83.6283366,16.0745916 82.9053782,17.0631047 82.7914931,18.3751795 L87.1263156,18.3751795 Z M88.8377869,23.6801552 C87.9059505,24.1934369 86.8416026,24.45979 85.4720531,24.45979 C82.2401609,24.45979 80.3578618,22.5961169 80.3578618,19.3828507 C80.3578618,16.5498229 81.8596566,14.2111847 84.9020947,14.2111847 C88.5336495,14.2111847 89.5599469,16.7017586 89.5599469,20.1244352 L82.7914931,20.1244352 C82.9053782,21.7028629 84.0080426,22.5961169 85.5864705,22.5961169 C86.8221782,22.5961169 87.8870582,22.1397778 88.8377869,21.6076038 L88.8377869,23.6801552 Z" id="Fill-12" fill="#FFFFFF" fill-rule="nonzero"></path>
                <path d="M96.4248309,16.492694 C95.645196,16.2266071 95.0747058,16.0744054 94.1434011,16.0744054 C93.4590258,16.0744054 92.6408079,16.3216002 92.6408079,17.1581775 C92.6408079,18.7177133 97.0714224,17.728668 97.0714224,21.2652298 C97.0714224,23.5471914 95.0366556,24.4598698 92.9641041,24.4598698 C91.9944828,24.4598698 91.0059696,24.2885098 90.074133,24.0415811 L90.2263356,21.9498714 C91.0251279,22.349268 91.8614394,22.5961967 92.7360675,22.5961967 C93.3823926,22.5961967 94.4094879,22.349268 94.4094879,21.3985393 C94.4094879,19.4779236 89.9788742,20.7902646 89.9788742,17.2531706 C89.9788742,15.1428349 91.8233892,14.2109985 93.8201058,14.2109985 C95.0180292,14.2109985 95.7976641,14.4012506 96.5959245,14.5723446 L96.4248309,16.492694 Z" id="Fill-13" fill="#FFFFFF" fill-rule="nonzero"></path>
                <polygon id="Fill-14" fill="#FFFFFF" fill-rule="nonzero" points="102.252748 10.9597085 105.523222 10.9597085 110.581003 20.885018 110.618788 20.885018 110.618788 10.9597085 113.16657 10.9597085 113.16657 24.2315938 109.915253 24.2315938 104.838846 14.3062842 104.800796 14.3062842 104.800796 24.2315938 102.252748 24.2315938"></polygon>
                <path d="M117.910821,22.1398842 L119.165421,22.1398842 C120.401128,22.1398842 121.903721,21.8357467 121.903721,20.2956354 C121.903721,18.565272 120.496387,18.2991851 119.165421,18.2991851 L117.910821,18.2991851 L117.910821,22.1398842 Z M117.910821,16.3216267 L118.994326,16.3216267 C120.116416,16.3216267 121.504059,16.074432 121.504059,14.7054146 C121.504059,13.1653033 120.154466,13.051152 118.937118,13.051152 L117.910821,13.051152 L117.910821,16.3216267 Z M115.248886,10.9597085 L119.888379,10.9597085 C121.599051,10.9597085 124.166525,11.454098 124.166525,14.3632268 C124.166525,15.9413885 123.101645,17.0440528 121.523216,17.329298 L121.523216,17.3673485 C123.329681,17.5387085 124.565656,18.7555242 124.565656,20.3908946 C124.565656,23.7372042 121.561267,24.2315938 119.888379,24.2315938 L115.248886,24.2315938 L115.248886,10.9597085 Z" id="Fill-15" fill="#FFFFFF" fill-rule="nonzero"></path>
                <path d="M128.682659,22.1398842 L130.165827,22.1398842 C132.390315,22.1398842 134.539232,20.4856215 134.539232,17.5953851 C134.539232,14.7054146 132.390315,13.051152 130.165827,13.051152 L128.682659,13.051152 L128.682659,22.1398842 Z M126.020725,10.9597085 L129.652546,10.9597085 C133.721547,10.9597085 137.314786,12.328726 137.314786,17.5953851 C137.314786,22.8625764 133.721547,24.2315938 129.652546,24.2315938 L126.020725,24.2315938 L126.020725,10.9597085 Z" id="Fill-16" fill="#FFFFFF" fill-rule="nonzero"></path>
                <path d="M6.04126487,21.4068678 C6.35737618,12.704494 11.0069797,5.07178956 18.0803693,0.0871826082 L13.3996335,0.0871826082 C7.66865269,5.03586782 3.99904747,11.9360348 3.71779356,19.6804956 C3.51397095,25.2925356 5.1187414,30.5908591 8.05527705,35.1199253 L9.3931623,35.1199253 C7.08884922,30.9939809 5.86272053,26.3206956 6.04126487,21.4068678" id="Fill-17" fill="#FFFFFF" fill-rule="nonzero"></path>
                <path d="M6.04126487,21.4068678 C6.35737618,12.704494 11.0069797,5.07178956 18.0803693,0.0871826082 L13.3996335,0.0871826082 C7.66865269,5.03586782 3.99904747,11.9360348 3.71779356,19.6804956 C3.51397095,25.2925356 5.1187414,30.5908591 8.05527705,35.1199253 L9.3931623,35.1199253 C7.08884922,30.9939809 5.86272053,26.3206956 6.04126487,21.4068678 Z" id="Stroke-18" stroke="#FFFFFF" stroke-width="0.5"></path>
                <path d="M11.7734432,0.0872890442 L8.10277356,0.0872890442 C4.08273182,3.86120035 1.27790922,9.34418817 0.63850226,15.6483204 C-0.141132522,23.3313151 2.47822747,30.4581882 7.12783095,35.1216282 L8.3691266,35.1216282 C4.34562574,30.5236455 2.14561878,23.9049986 2.86591618,16.8071291 C3.57796487,9.78722298 6.99265878,3.79574295 11.7734432,0.0872890442" id="Fill-19" fill="#FFFFFF" fill-rule="nonzero"></path>
                <path d="M11.7734432,0.0872890442 L8.10277356,0.0872890442 C4.08273182,3.86120035 1.27790922,9.34418817 0.63850226,15.6483204 C-0.141132522,23.3313151 2.47822747,30.4581882 7.12783095,35.1216282 L8.3691266,35.1216282 C4.34562574,30.5236455 2.14561878,23.9049986 2.86591618,16.8071291 C3.57796487,9.78722298 6.99265878,3.79574295 11.7734432,0.0872890442 Z" id="Stroke-20" stroke="#FFFFFF" stroke-width="0.5"></path>
                <path d="M15.7229186,15.1918747 C15.7229186,12.169127 14.8083777,9.35978085 13.2419238,7.01874782 C13.8539238,8.98326782 14.1162855,11.0787026 14.1886612,13.2542295 C14.3879603,19.2539582 11.6273082,24.3096105 7.74350295,28.2873444 C12.5586125,26.1389582 15.7229186,20.8829426 15.7229186,15.1918747" id="Fill-21" fill="#FFFFFF" fill-rule="nonzero"></path>
                <path d="M12.8398665,18.7358604 C12.737689,16.5951907 12.0083447,14.6362586 10.8420855,13.0320203 C11.333282,14.4026342 11.5860647,15.8778204 11.709529,17.4166013 C12.0506525,21.6596238 10.305122,25.3356152 7.74350295,28.2873178 C11.0131795,26.5997942 13.0317152,22.76761 12.8398665,18.7358604" id="Fill-22" fill="#FFFFFF" fill-rule="nonzero"></path>
                <path d="M12.8398665,18.7358604 C12.737689,16.5951907 12.0083447,14.6362586 10.8420855,13.0320203 C11.333282,14.4026342 11.5860647,15.8778204 11.709529,17.4166013 C12.0506525,21.6596238 10.305122,25.3356152 7.74350295,28.2873178 C11.0131795,26.5997942 13.0317152,22.76761 12.8398665,18.7358604 Z" id="Stroke-23"></path>
            </g>
        </g>
    </g>
</svg>