<?xml version="1.0" encoding="UTF-8"?>
<svg width="179px" height="45px" viewBox="0 0 179 45" version="1.1" xmlns="http://www.w3.org/2000/svg" xmlns:xlink="http://www.w3.org/1999/xlink">
    <!-- Generator: Sketch 58 (84663) - https://sketch.com -->
    <title>XMLID_1__1525346549174</title>
    <desc>Created with Sketch.</desc>
    <g id="C19---Clients" stroke="none" stroke-width="1" fill="none" fill-rule="evenodd">
        <g id="C19---Clients---Dark---Desktop" transform="translate(-1058.000000, -426.000000)" fill="#FFFFFF" fill-rule="nonzero">
            <g id="Meraas">
                <g transform="translate(1020.000000, 342.000000)">
                    <path d="M72.8105528,96.33 L68.6728643,96.33 L68.6728643,116.76 L72.8105528,116.76 L72.8105528,96.33 Z M62.5562814,96.33 L58.418593,96.33 L58.418593,116.76 L62.5562814,116.76 L62.5562814,96.33 Z M52.3020101,96.33 L48.1643216,96.33 L48.1643216,116.76 L52.3020101,116.76 C52.3020101,116.67 52.3020101,96.33 52.3020101,96.33 Z M45.3758794,88.14 L75.598995,88.14 L75.598995,84 L45.3758794,84 L45.3758794,88.14 Z M42.1376884,121.62 L42.1376884,91.38 L38,91.38 L38,121.62 L42.1376884,121.62 Z M78.8371859,91.38 L78.8371859,121.62 L82.9748744,121.62 L82.9748744,91.38 L78.8371859,91.38 Z M75.598995,124.86 L45.3758794,124.86 L45.3758794,129 L75.598995,129 L75.598995,124.86 Z M109.869849,116.67 L113.827638,116.67 L113.827638,96.33 L108.790452,96.33 L103.033668,111.72 L97.3668342,96.33 L92.2396985,96.33 L92.2396985,116.76 L96.1075377,116.76 L96.1075377,102.9 L101.324623,116.76 L104.652764,116.76 L109.869849,102.9 L109.869849,116.67 L109.869849,116.67 Z M117.785427,116.67 L132.807035,116.67 L132.807035,113.07 L122.013065,113.07 L122.013065,108.03 L131.907538,108.03 L131.907538,104.34 L122.013065,104.34 L122.013065,99.84 L132.537186,99.84 L132.537186,96.24 L117.785427,96.24 L117.785427,116.67 Z M149.08794,116.67 L153.765327,116.67 L149.357789,108.03 C150.437186,107.58 151.246734,106.77 151.876382,105.78 C152.41608,104.79 152.68593,103.62 152.68593,102.45 C152.68593,101.64 152.59598,100.83 152.326131,100.11 C152.056281,99.39 151.606533,98.67 150.976884,98.13 C150.257286,97.5 149.357789,97.05 148.458291,96.78 C147.198995,96.42 145.849749,96.24 144.500503,96.24 L136.584925,96.24 L136.584925,116.67 L140.812563,116.67 L140.812563,109.02 L145.220101,109.02 L149.08794,116.67 Z M140.812563,105.51 L140.812563,99.84 L144.410553,99.84 C145.040201,99.84 145.669849,99.93 146.299497,100.02 C146.749246,100.11 147.109045,100.29 147.468844,100.56 C147.738693,100.83 148.008543,101.1 148.098492,101.46 C148.188442,101.82 148.278392,102.18 148.278392,102.54 C148.278392,102.99 148.188442,103.35 148.098492,103.8 C148.008543,104.16 147.738693,104.43 147.468844,104.7 C147.109045,104.97 146.749246,105.15 146.299497,105.33 C145.759799,105.51 145.130151,105.51 144.500503,105.51 L140.812563,105.51 L140.812563,105.51 Z M171.305528,116.67 L175.892965,116.67 L167.797487,96.24 L163.479899,96.24 L155.384422,116.67 L159.79196,116.67 L161.501005,111.99 L169.596482,111.99 L171.305528,116.67 Z M165.458794,100.92 L168.247236,108.48 L162.670352,108.48 L165.458794,100.92 Z M193.253266,116.67 L197.840704,116.67 L189.745226,96.24 L185.427638,96.24 L177.332161,116.67 L181.739698,116.67 L183.448744,111.99 L191.544221,111.99 L193.253266,116.67 Z M187.496482,100.92 L190.284925,108.48 L184.70804,108.48 L187.496482,100.92 Z M216.280402,100.65 C216.100503,100.02 215.830653,99.48 215.470854,98.94 C215.021106,98.31 214.571357,97.77 213.941709,97.41 C213.222111,96.87 212.322613,96.51 211.423116,96.24 C209.084422,95.61 206.745729,95.61 204.407035,96.24 C203.417588,96.51 202.51809,96.87 201.798492,97.5 C201.078894,98.04 200.539196,98.67 200.089447,99.48 C199.639698,100.29 199.459799,101.19 199.459799,102.09 C199.369849,103.62 199.999497,105.15 201.168844,106.14 C202.69799,107.22 204.496985,107.85 206.29598,108.03 L209.174372,108.57 C210.073869,108.66 210.883417,109.02 211.513065,109.56 C211.962814,109.92 212.142714,110.55 212.142714,111.09 C212.142714,111.81 211.782915,112.53 211.243216,112.98 C210.343719,113.52 209.264322,113.79 208.184925,113.7 C207.015578,113.7 205.846231,113.43 204.856784,112.98 C203.687437,112.44 202.69799,111.54 201.978392,110.46 L199.01005,113.25 C199.999497,114.51 201.258794,115.59 202.69799,116.22 C204.407035,116.94 206.20603,117.3 208.094975,117.21 C209.354271,117.21 210.613568,117.03 211.872864,116.67 C212.862312,116.4 213.761809,115.86 214.571357,115.23 C215.290955,114.69 215.830653,113.97 216.190452,113.16 C216.550251,112.35 216.730151,111.45 216.730151,110.55 C216.730151,109.11 216.190452,107.76 215.201005,106.77 C213.761809,105.6 212.052764,104.88 210.163819,104.61 L207.015578,104.07 C206.11608,103.98 205.306533,103.71 204.586935,103.17 C204.137186,102.72 203.867337,102.09 203.957286,101.46 C203.957286,100.83 204.317085,100.2 204.856784,99.84 C205.216583,99.57 205.666332,99.48 206.11608,99.39 C206.745729,99.3 207.375377,99.21 208.005025,99.21 C209.084422,99.12 210.073869,99.39 211.063317,99.93 C211.872864,100.47 212.502513,101.28 212.862312,102.18 L216.280402,100.65 Z" id="XMLID_1__1525346549174"></path>
                </g>
            </g>
        </g>
    </g>
</svg>