<?xml version="1.0" encoding="UTF-8"?>
<svg width="130px" height="89px" viewBox="0 0 130 89" version="1.1" xmlns="http://www.w3.org/2000/svg" xmlns:xlink="http://www.w3.org/1999/xlink">
    <!-- Generator: Sketch 58 (84663) - https://sketch.com -->
    <title>Emirates</title>
    <desc>Created with Sketch.</desc>
    <g id="C19---Clients" stroke="none" stroke-width="1" fill="none" fill-rule="evenodd">
        <g id="C19---Clients---Dark---Desktop" transform="translate(-798.000000, -403.000000)" fill="#FFFFFF" fill-rule="nonzero">
            <g id="Emirates">
                <g transform="translate(798.000000, 403.000000)">
                    <path d="M72.9444444,5.29189189 C71.8611111,6.61486486 71.2592593,8.29864865 71.2592593,9.98243243 C71.2592593,10.5837838 71.2592593,24.4148649 71.2592593,24.8959459 C71.1388889,25.9783784 70.7777778,27.0608108 70.0555556,28.022973 C69.6944444,28.3837838 67.4074074,30.4283784 67.1666667,30.6689189 L68.4907407,30.6689189 C68.9722222,30.3081081 73.3055556,26.3391892 73.787037,25.8581081 C75.1111111,24.4148649 75.8333333,22.6108108 75.8333333,20.6864865 C75.8333333,20.0851351 75.8333333,6.97567568 75.8333333,6.37432432 C75.8333333,4.93108108 76.3148148,3.48783784 77.3981481,2.40540541 C78,1.80405405 79.6851852,0.360810811 79.9259259,0 L78.6018519,0 C78.2407407,0.481081081 73.3055556,4.93108108 72.9444444,5.29189189 L72.9444444,5.29189189 L72.9444444,5.29189189 Z" id="Path"></path>
                    <path d="M61.9907407,59.4135135 L67.4074074,64.1040541 L71.0185185,64.1040541 C74.5092593,64.1040541 77.8796296,62.7810811 80.287037,60.2554054 C82.4537037,58.0905405 83.2962963,55.0837838 83.2962963,52.1972973 L83.2962963,44.5 C83.2962963,42.6959459 82.5740741,41.1324324 81.25,39.9297297 C81.0092593,39.6891892 79.4444444,38.1256757 79.4444444,38.1256757 L79.4444444,44.0189189 C79.4444444,44.0189189 81.25,45.822973 81.4907407,46.1837838 C83.0555556,47.8675676 83.0555556,50.9945946 78,55.9256757 C77.1574074,56.7675676 74.6296296,59.172973 71.1388889,59.172973 L61.9907407,59.4135135 L61.9907407,59.4135135 Z" id="Path"></path>
                    <path d="M77.037037,27.6621622 C76.4351852,28.2635135 75.8333333,29.827027 75.8333333,31.2702703 L75.8333333,34.1567568 L78.8425926,34.1567568 C80.0462963,34.1567568 81.4907407,33.0743243 81.8518519,32.5932432 C81.8518519,32.5932432 81.8518519,29.7067568 81.8518519,29.7067568 C82.3333333,30.3081081 82.8148148,30.9094595 83.4166667,31.3905405 C83.7777778,31.0297297 86.4259259,27.7824324 88.712963,27.6621622 C92.4444444,27.6621622 91.6018519,32.3527027 90.1574074,33.9162162 C89.6759259,34.3972973 87.3888889,36.4418919 86.787037,37.0432432 C84.9814815,38.727027 81.9722222,37.8851351 81.9722222,33.5554054 C81.9722222,33.5554054 78.7222222,36.6824324 78.2407407,37.0432432 C77.7592593,37.4040541 75.8333333,39.3283784 75.8333333,39.3283784 L75.8333333,47.0256757 C75.8333333,50.7540541 74.6296296,51.9567568 73.6666667,53.0391892 C73.3055556,53.5202703 69.0925926,57.2486486 68.4907407,57.7297297 L67.1666667,57.7297297 C67.1666667,57.7297297 69.5740741,55.5648649 70.0555556,54.9635135 C70.6574074,54.3621622 71.2592593,53.1594595 71.2592593,51.2351351 C71.2592593,50.7540541 71.1388889,39.0878378 71.1388889,39.0878378 L52.2407407,39.0878378 C45.6203704,39.0878378 44.1759259,31.7513514 44.1759259,29.827027 C44.1759259,29.2256757 44.1759259,23.4527027 44.1759259,22.4905405 C44.1759259,21.2878378 43.4537037,19.2432432 42.25,18.6418919 L44.1759259,18.6418919 C44.4166667,18.7621622 45.6203704,19.2432432 45.6203704,23.6932432 C45.6203704,23.6932432 45.5,28.8648649 45.5,29.2256757 C45.5,31.5108108 47.3055556,34.1567568 49.9537037,34.1567568 L71.3796296,34.1567568 C71.3796296,33.5554054 71.9814815,31.3905405 73.0648148,30.1878378 C73.6666667,29.5864865 78.2407407,25.377027 78.7222222,24.8959459 L80.0462963,24.8959459 C79.8055556,25.2567568 77.5185185,27.3013514 77.037037,27.6621622 L77.037037,27.6621622 L77.037037,27.6621622 Z M84.0185185,32.1121622 C84.6203704,32.8337838 85.2222222,33.5554054 85.8240741,34.277027 C88.1111111,36.2013514 89.1944444,34.1567568 87.75,31.9918919 C87.1481481,31.15 84.7407407,31.3905405 84.0185185,32.1121622 L84.0185185,32.1121622 Z" id="Shape"></path>
                    <path d="M61.0277778,45.9432432 C61.0277778,47.0256757 57.7777778,49.7918919 57.537037,49.9121622 C57.2962963,48.8297297 56.4537037,47.627027 54.0462963,45.1013514 L57.6574074,41.4932432 C60.0648148,43.8986486 61.0277778,44.5 61.0277778,45.9432432 L61.0277778,45.9432432 L61.0277778,45.9432432 Z" id="Path"></path>
                    <path d="M67.287037,4.45 C68.0092593,5.17162162 69.5740741,7.09594595 68.6111111,8.05810811 C67.7685185,8.9 66.5648148,10.222973 66.5648148,10.222973 C66.4444444,9.74189189 65.2407407,8.53918919 65.2407407,8.53918919 C65.2407407,8.53918919 65.2407407,12.027027 65.2407407,12.5081081 C65.2407407,14.0716216 64.6388889,14.5527027 64.6388889,14.5527027 C64.6388889,14.5527027 67.5277778,17.4391892 67.5277778,21.1675676 C67.5277778,22.9716216 67.5277778,24.6554054 67.5277778,25.0162162 C67.5277778,25.7378378 67.287037,26.4594595 66.8055556,26.9405405 C66.5648148,27.3013514 63.7962963,29.9472973 63.4351852,30.3081081 C62.8333333,30.9094595 61.9907407,31.15 61.2685185,31.15 L51.1574074,31.15 C49.5925926,31.15 47.9074074,29.9472973 47.9074074,28.6243243 C47.9074074,28.2635135 47.9074074,24.8959459 47.9074074,24.8959459 C48.3888889,25.4972973 48.9907407,26.2189189 50.1944444,26.2189189 C51.1574074,26.2189189 52.2407407,25.4972973 52.4814815,25.1364865 C52.7222222,24.7756757 60.0648148,17.1986486 60.0648148,17.1986486 C60.0648148,17.1986486 56.6944444,14.0716216 54.4074074,12.5081081 C53.3240741,11.7864865 51.8796296,12.7486486 51.6388889,13.7108108 C50.9166667,16.7175676 51.6388889,21.2878378 51.6388889,21.2878378 L48.8703704,18.5216216 C47.787037,17.4391892 47.787037,14.9135135 49.1111111,13.5905405 C49.3518519,13.35 51.3981481,11.0648649 53.9259259,11.0648649 L57.8981481,11.0648649 C60.5462963,11.0648649 63.5555556,13.7108108 63.5555556,13.7108108 C63.7962963,13.4702703 63.9166667,13.1094595 64.037037,12.7486486 C64.037037,11.3054054 64.037037,7.6972973 64.037037,7.6972973 C61.9907407,5.6527027 61.75,3.60810811 62.712963,2.64594595 C64.5185185,0.841891892 65.2407407,0.240540541 65.2407407,0.240540541 C65.2407407,0.240540541 65.2407407,2.28513514 67.287037,4.45 L67.287037,4.45 L67.287037,4.45 Z M54.6481481,24.6554054 C53.6851852,25.7378378 53.4444444,25.9783784 52.6018519,26.5797297 L63.9166667,26.5797297 C67.0462963,26.5797297 66.3240741,24.6554054 65.8425926,23.6932432 C64.7592593,21.7689189 61.1481481,18.0405405 61.1481481,18.0405405 C61.1481481,18.0405405 54.8888889,24.4148649 54.6481481,24.6554054 L54.6481481,24.6554054 L54.6481481,24.6554054 Z" id="Shape"></path>
                    <path d="M41.7685185,34.9986486 L39.8425926,34.9986486 C39.8425926,34.9986486 41.7685185,36.0810811 41.7685185,38.9675676 L41.7685185,47.9878378 C41.7685185,53.8810811 46.5833333,59.2932432 52.4814815,59.2932432 L57.4166667,59.2932432 C60.4259259,59.2932432 61.3888889,58.5716216 63.1944444,57.0081081 C63.7962963,56.4067568 64.7592593,55.4445946 65,55.0837838 C65.962963,53.8810811 67.1666667,53.0391892 67.1666667,49.9121622 L67.1666667,46.9054054 C67.1666667,44.3797297 65.7222222,43.2972973 65,42.5756757 C64.6388889,42.0945946 63.4351852,40.8918919 63.4351852,40.8918919 L63.4351852,46.9054054 C63.4351852,46.9054054 64.6388889,48.2283784 65.2407407,48.7094595 C67.7685185,50.7540541 65.8425926,54.2418919 63.3148148,54.2418919 C62.8333333,54.2418919 53.2037037,54.2418919 52.4814815,54.2418919 C48.5092593,54.3621622 43.0925926,50.7540541 43.0925926,44.8608108 L43.0925926,39.9297297 C43.0925926,34.9986486 41.7685185,34.9986486 41.7685185,34.9986486 L41.7685185,34.9986486 L41.7685185,34.9986486 Z" id="Path"></path>
                    <path d="M53.6851852,45.9432432 C53.6851852,47.0256757 50.4351852,49.7918919 50.1944444,49.9121622 C49.9537037,48.8297297 49.1111111,47.627027 46.7037037,45.1013514 L50.3148148,41.4932432 C52.6018519,43.8986486 53.6851852,44.5 53.6851852,45.9432432 L53.6851852,45.9432432 L53.6851852,45.9432432 Z" id="Path"></path>
                    <path d="M15.7685185,86.2337838 L9.99074074,86.2337838 C8.18518519,86.2337838 8.30555556,84.6702703 8.06481481,83.4675676 L8.06481481,75.1689189 C8.06481481,75.1689189 9.38888889,75.1689189 10.8333333,75.1689189 C12.3981481,75.1689189 14.4444444,74.9283784 16.3703704,76.0108108 C15.4074074,73.8459459 13.2407407,72.522973 10.8333333,72.6432432 L8.06481481,72.6432432 L8.06481481,69.9972973 C8.06481481,69.9972973 8.06481481,67.7121622 7.46296296,66.9905405 L11.3148148,66.9905405 C14.5648148,66.9905405 17.212963,66.9905405 19.8611111,68.6743243 C19.8611111,68.6743243 19.3796296,64.2243243 13,64.2243243 L0.481481481,64.2243243 C0.481481481,64.2243243 2.64814815,66.1486486 2.52777778,69.877027 L2.64814815,85.0310811 C2.64814815,88.8797297 4.21296296,89 4.21296296,89 L16.4907407,89 C19.2592593,89 20.2222222,87.0756757 20.2222222,85.872973 L20.2222222,84.4297297 C20.3425926,84.3094595 19.3796296,86.2337838 15.7685185,86.2337838 L15.7685185,86.2337838 L15.7685185,86.2337838 Z" id="Path"></path>
                    <path d="M48.5092593,84.9108108 L48.5092593,74.327027 C48.5092593,70.2378378 45.1388889,69.1554054 42.6111111,69.1554054 C39.3611111,69.1554054 38.2777778,71.9216216 37.9166667,72.8837838 C37.1944444,70.3581081 34.5462963,69.1554054 32.5,69.1554054 C28.5277778,69.1554054 27.4444444,73.0040541 27.4444444,73.0040541 C27.4444444,73.0040541 27.3240741,69.2756757 24.1944444,69.2756757 L21.0648148,69.2756757 C21.0648148,69.2756757 22.8703704,69.9972973 22.8703704,73.2445946 L22.8703704,85.0310811 C22.8703704,88.8797297 24.4351852,89 24.4351852,89 L29.6111111,89 C28.4074074,88.0378378 27.6851852,86.5945946 27.6851852,85.0310811 L27.6851852,74.5675676 C27.8055556,74.0864865 28.5277778,72.522973 30.8148148,72.522973 C32.1388889,72.522973 33.462963,73.8459459 33.462963,75.2891892 L33.462963,85.0310811 C33.462963,89 35.0277778,89 35.0277778,89 L40.2037037,89 C39,88.0378378 38.2777778,86.5945946 38.2777778,85.0310811 L38.2777778,74.5675676 C38.7592593,73.0040541 40.4444444,72.1621622 42.0092593,72.6432432 C43.212963,73.0040541 43.9351852,74.0864865 44.0555556,75.2891892 C44.0555556,75.2891892 44.0555556,84.1891892 44.0555556,84.9108108 C44.0555556,88.8797297 45.6203704,88.8797297 45.6203704,88.8797297 C48.3888889,88.8797297 50.7962963,88.8797297 50.7962963,88.8797297 C49.3518519,87.9175676 48.6296296,86.4743243 48.5092593,84.9108108 L48.5092593,84.9108108 Z" id="Path"></path>
                    <path d="M57.6574074,84.9108108 C57.6574074,86.4743243 58.3796296,87.9175676 59.5833333,88.8797297 C59.5833333,88.8797297 57.0555556,88.8797297 54.4074074,88.8797297 C54.4074074,88.8797297 52.8425926,88.8797297 52.8425926,84.9108108 L52.8425926,73.0040541 C52.8425926,69.877027 51.037037,69.0351351 51.037037,69.0351351 L54.1666667,69.0351351 C55.25,69.0351351 57.537037,69.0351351 57.537037,73.4851351 L57.6574074,84.9108108 L57.6574074,84.9108108 L57.6574074,84.9108108 L57.6574074,84.9108108 Z" id="Path"></path>
                    <path d="M73.6666667,70.7189189 C73.6666667,70.7189189 73.1851852,69.2756757 71.0185185,69.2756757 C67.7685185,69.2756757 66.9259259,73.1243243 66.9259259,73.1243243 C66.6851852,69.9972973 65.8425926,69.1554054 63.5555556,69.1554054 L60.4259259,69.1554054 C60.4259259,69.1554054 62.2314815,69.877027 62.2314815,73.1243243 L62.2314815,84.9108108 C62.2314815,88.7594595 63.7962963,88.8797297 63.7962963,88.8797297 L68.9722222,88.8797297 C67.7685185,87.9175676 67.0462963,86.4743243 67.0462963,84.9108108 L67.0462963,75.2891892 C67.1666667,74.4472973 67.6481481,73.7256757 68.3703704,73.3648649 C70.1759259,72.1621622 72.462963,72.522973 73.787037,74.0864865 L73.6666667,70.7189189 L73.6666667,70.7189189 L73.6666667,70.7189189 Z" id="Path"></path>
                    <path d="M97.8611111,71.4405405 C98.9444444,71.4405405 100.027778,71.6810811 100.990741,72.1621622 L100.990741,69.1554054 L96.6574074,69.1554054 L96.6574074,64.7054054 C95.6944444,66.1486486 94.4907407,67.4716216 93.1666667,68.6743243 C91.7222222,69.877027 88.5925926,71.4405405 88.5925926,71.4405405 L91.8425926,71.4405405 L91.8425926,85.1513514 C91.8425926,89 93.4074074,89 93.4074074,89 C96.2962963,89 98.5833333,89 98.5833333,89 C97.3796296,88.1581081 96.6574074,86.7148649 96.537037,85.1513514 L96.537037,71.4405405 C97.9814815,71.4405405 97.0185185,71.4405405 97.8611111,71.4405405 L97.8611111,71.4405405 L97.8611111,71.4405405 Z" id="Path"></path>
                    <path d="M113.62963,77.3337838 C110.740741,80.3405405 108.453704,79.8594595 106.648148,82.1445946 C106.648148,82.1445946 107.009259,85.1513514 109.296296,86.2337838 C110.018519,86.5945946 113.268519,87.7972973 115.314815,84.1891892 L115.314815,87.3162162 C115.314815,87.3162162 113.990741,88.8797297 109.777778,88.8797297 C104.722222,88.8797297 101.231481,84.9108108 101.231481,79.4986486 C101.231481,74.0864865 104.12037,69.1554054 109.416667,69.1554054 C114.592593,69.0351351 117.481481,73.3648649 113.62963,77.3337838 L113.62963,77.3337838 L113.62963,77.3337838 Z M110.5,76.1310811 C111.342593,74.5675676 112.064815,70.4783784 109.055556,70.7189189 C105.685185,70.9594595 106.287037,80.1 106.287037,80.1 C107.490741,78.777027 109.175926,78.5364865 110.5,76.1310811 L110.5,76.1310811 L110.5,76.1310811 Z" id="Shape"></path>
                    <path d="M55.25,67.5918919 C56.5740741,67.5918919 57.537037,66.5094595 57.537037,65.1864865 C57.537037,63.8635135 56.4537037,62.9013514 55.1296296,62.9013514 C53.8055556,62.9013514 52.8425926,63.9837838 52.8425926,65.3067568 C52.8425926,66.5094595 53.9259259,67.5918919 55.25,67.5918919 L55.25,67.5918919 Z" id="Path"></path>
                    <path d="M79.0833333,86.5945946 C77.8796296,86.5945946 77.037037,85.3918919 77.037037,84.0689189 C77.037037,79.1378378 81.0092593,78.4162162 82.0925926,77.2135135 L82.0925926,85.5121622 C81.6111111,85.872973 81.1296296,86.5945946 79.0833333,86.5945946 L79.0833333,86.5945946 L79.0833333,86.5945946 Z M82.0925926,75.2891892 C80.8888889,77.3337838 71.5,77.8148649 72.9444444,85.1513514 C73.5462963,88.0378378 75.4722222,88.8797297 77.8796296,88.8797297 C80.1666667,88.8797297 81.6111111,87.677027 82.212963,86.4743243 C82.5740741,88.6391892 83.6574074,88.7594595 83.6574074,88.7594595 C86.4259259,88.7594595 88.8333333,88.7594595 88.8333333,88.7594595 C87.6296296,87.7972973 86.787037,86.3540541 86.787037,84.7905405 L86.787037,73.7256757 C86.787037,71.0797297 83.8981481,69.0351351 80.7685185,69.0351351 C78.962963,69.0351351 77.3981481,69.5162162 75.9537037,70.4783784 L75.9537037,73.8459459 C75.9537037,73.8459459 77.037037,71.0797297 79.6851852,71.0797297 C82.3333333,71.0797297 82.5740741,72.4027027 82.5740741,73.0040541 C82.6944444,73.9662162 82.5740741,74.6878378 82.0925926,75.2891892 L82.0925926,75.2891892 L82.0925926,75.2891892 Z" id="Shape"></path>
                    <path d="M125.185185,83.4675676 C125.185185,84.9108108 123.981481,86.7148649 121.333333,86.7148649 C118.564815,86.7148649 117.481481,83.9486486 117.481481,83.9486486 L117.481481,87.4364865 C118.925926,88.3986486 120.611111,88.8797297 122.416667,88.8797297 C125.907407,88.8797297 129.518519,86.2337838 129.518519,82.3851351 C129.518519,81.1824324 129.037037,79.9797297 128.314815,79.0175676 C127.111111,77.4540541 124.944444,76.2513514 123.259259,75.2891892 C122.296296,74.6878378 121.814815,73.6054054 121.814815,73.2445946 C121.814815,72.6432432 122.175926,71.3202703 124.703704,71.3202703 C127.231481,71.3202703 128.435185,74.0864865 128.435185,74.0864865 L128.435185,70.8391892 C126.990741,69.877027 125.305556,69.2756757 123.5,69.2756757 C120.37037,69.2756757 117.601852,71.3202703 117.601852,73.9662162 C117.601852,76.2513514 118.564815,77.8148649 120.490741,79.2581081 C121.333333,79.8594595 122.296296,80.4608108 123.138889,80.9418919 C124.583333,81.5432432 125.185185,82.5054054 125.185185,83.4675676 L125.185185,83.4675676 L125.185185,83.4675676 Z" id="Path"></path>
                </g>
            </g>
        </g>
    </g>
</svg>