<?xml version="1.0" encoding="UTF-8"?>
<svg width="100px" height="58px" viewBox="0 0 100 58" version="1.1" xmlns="http://www.w3.org/2000/svg" xmlns:xlink="http://www.w3.org/1999/xlink">
    <!-- Generator: Sketch 58 (84663) - https://sketch.com -->
    <title>Group 2</title>
    <desc>Created with Sketch.</desc>
    <defs>
        <polygon id="path-1" points="5.89390963e-05 0.0942082324 99.9734774 0.0942082324 99.9734774 11.5918367 5.89390963e-05 11.5918367"></polygon>
    </defs>
    <g id="Page-1" stroke="none" stroke-width="1" fill="none" fill-rule="evenodd">
        <g id="Group-2">
            <g id="Group" transform="translate(0.000000, 46.000000)">
                <g id="Group-3" transform="translate(0.000000, 0.198971)">
                    <mask id="mask-2" fill="white">
                        <use xlink:href="#path-1"></use>
                    </mask>
                    <g id="Clip-2"></g>
                    <path d="M93.6778585,11.3917302 L98.1914145,3.96372051 L96.1430845,3.96372051 C95.0603733,3.96372051 94.794165,4.19712902 94.1947544,5.69581598 L93.8613556,5.69581598 L94.2442633,3.53069664 L99.9735363,3.53069664 L99.9735363,3.53089312 L95.4436739,10.9587063 L97.3920039,10.9587063 C98.5248134,10.9587063 98.9904322,10.5089824 99.4902358,8.9935953 L99.840334,8.9935953 L99.4073281,11.3917302 L93.6778585,11.3917302 Z M84.7866994,4.01382082 L84.7866994,3.73070495 C85.7527112,3.59749706 86.3193124,3.4640927 86.9853242,3.23107714 C87.0686248,3.61400069 87.1181336,4.04702456 87.1519253,4.67986026 C87.751336,3.78060879 88.4342436,3.38098513 89.4000589,3.38098513 C90.399666,3.38098513 91.2650884,3.89711657 91.5984872,4.71326046 C91.7648919,5.11288412 91.8481925,5.5793082 91.8481925,6.21214389 L91.8481925,10.2091664 C91.8481925,10.9253061 92.0149902,11.0587105 93.0309037,11.1086143 L93.0309037,11.4418305 C92.148389,11.35833 91.8149902,11.3416299 91.2153831,11.3416299 C90.5990766,11.3416299 90.2660707,11.35833 89.4000589,11.4418305 L89.4000589,11.1086143 C90.2994695,11.0754106 90.516169,10.908606 90.516169,10.2425666 L90.516169,6.16243653 C90.516169,4.71326046 90.0827701,4.13032861 89.0171513,4.13032861 C87.8847348,4.13032861 87.2853242,4.84666482 87.2853242,6.21214389 L87.2853242,10.2425666 C87.2853242,10.908606 87.5016306,11.0754106 88.3676424,11.1086143 L88.3676424,11.4418305 C87.5016306,11.35833 87.1684283,11.3416299 86.5690177,11.3416299 C85.9863065,11.3416299 85.6362083,11.35833 84.7701965,11.4418305 L84.7701965,11.1086143 C85.7865029,11.0587105 85.9525147,10.9253061 85.9525147,10.2091664 L85.9525147,5.06298028 L85.9525147,4.81346109 C85.9360118,4.13032861 85.8364047,4.03032446 85.0035953,4.03032446 C84.9534971,4.03032446 84.8701965,4.01382082 84.7866994,4.01382082 L84.7866994,4.01382082 Z M81.1409234,11.0255067 C79.6254028,11.0255067 78.9591945,9.85944656 78.9422986,7.26149983 L83.905167,7.26149983 C83.8717682,4.69656036 82.8228487,3.33088481 80.8578193,3.33088481 C78.8591945,3.33088481 77.610275,4.9464725 77.610275,7.5112155 C77.610275,10.0759585 78.8591945,11.5752349 81.0079175,11.5752349 C82.6395481,11.5752349 83.7057564,10.5590827 83.9220629,8.84349083 L83.2558546,8.84349083 C83.0560511,10.2592667 82.3232417,11.0255067 81.1409234,11.0255067 L81.1409234,11.0255067 Z M78.9756974,6.66186787 C79.1424951,4.74666067 79.7751081,3.76390868 80.8411198,3.76390868 C81.9234381,3.76390868 82.4733399,4.69656036 82.5731434,6.66186787 L78.9756974,6.66186787 Z M75.7409234,2.9978651 C75.7409234,2.13162089 75.3745187,1.36577378 74.7421022,0.882649602 C74.175501,0.466522311 73.5261886,0.283017641 72.4436739,0.283017641 L68.0637132,0.283017641 L68.0637132,0.699537876 C69.2627308,0.766338291 69.429332,0.899546178 69.429332,1.79879765 L69.429332,9.87614666 C69.429332,10.7753981 69.2959332,10.8921024 68.0637132,10.9921065 L68.0637132,11.3917302 L72.2768762,11.3917302 C73.5094892,11.3917302 74.175501,11.2418222 74.8749116,10.8087983 C75.7079175,10.2757703 76.2574263,9.2598146 76.2574263,8.21085161 C76.2574263,7.31120719 75.8747151,6.49525977 75.2246169,5.99563196 C74.8749116,5.72941266 74.5087033,5.5793082 73.9090963,5.46260394 C75.1083104,5.01287997 75.7409234,4.16372881 75.7409234,2.9978651 L75.7409234,2.9978651 Z M70.8281532,0.799542027 L72.2436739,0.799542027 C73.6426916,0.799542027 74.2588016,1.48228156 74.2588016,3.03126531 C74.2588016,3.79730889 74.0758939,4.34703701 73.7092927,4.78006088 C73.342888,5.19638464 72.8933792,5.32959253 71.9605697,5.32959253 L70.8281532,5.32959253 L70.8281532,0.799542027 Z M72.4104715,5.84572397 C73.2929862,5.84572397 73.7925933,5.99563196 74.175501,6.37875199 C74.5588016,6.76187202 74.7751081,7.47781529 74.7751081,8.27725908 C74.7751081,9.94275061 73.9424951,10.8755988 72.4601768,10.8755988 L71.8607662,10.8755988 C70.978055,10.8755988 70.8281532,10.7421944 70.8281532,10.009551 L70.8281532,5.84572397 L72.4104715,5.84572397 Z M57.7705894,11.591935 L57.7705894,8.8102871 L58.1367976,8.79358699 C58.4367976,10.3091705 59.1364047,11.0420104 60.3020236,11.0420104 C61.2845383,11.0420104 62.0175442,10.3924746 62.0175442,9.54312695 C62.0175442,8.97669872 61.7010413,8.59377516 60.8849312,8.22735524 L60.2517289,7.94404289 L59.4859136,7.59451954 C58.27,7.02828779 57.8868959,6.56186371 57.8868959,5.5960083 C57.8868959,4.2802366 58.9197053,3.38078865 60.3851277,3.38078865 C61.0350295,3.38078865 61.5177407,3.53089312 62.0841454,3.9136202 L62.367053,3.23088066 L62.6668566,3.23088066 L62.6668566,5.81252024 L62.283556,5.81252024 C62.1336542,4.48004843 61.5843418,3.84721273 60.5350295,3.84721273 C59.6527112,3.84721273 58.9698035,4.44684469 58.9698035,5.22978485 C58.9698035,5.89562781 59.2193124,6.11233622 60.7350295,6.77837565 L61.4342436,7.0783881 C62.7000589,7.62791975 63.1495678,8.1607513 63.1495678,9.14350329 C63.1495678,10.5423826 62.0342436,11.5416382 60.4684283,11.5416382 C59.7024165,11.5416382 59.1028094,11.3416299 58.47,10.8421985 L58.0701965,11.591935 L57.7705894,11.591935 Z M53.5927898,11.0255067 C52.0770727,11.0255067 51.4108644,9.85944656 51.394165,7.26149983 L56.3572299,7.26149983 C56.323831,4.69656036 55.2745187,3.33088481 53.3094892,3.33088481 C51.3110609,3.33088481 50.061945,4.9464725 50.061945,7.5112155 C50.061945,10.0759585 51.3110609,11.5752349 53.4591945,11.5752349 C55.0914145,11.5752349 56.1572299,10.5590827 56.3737328,8.84349083 L55.7075246,8.84349083 C55.5079175,10.2592667 54.7749116,11.0255067 53.5927898,11.0255067 L53.5927898,11.0255067 Z M51.4275639,6.66186787 C51.594165,4.74666067 52.2269745,3.76390868 53.2925933,3.76390868 C54.3753045,3.76390868 54.9248134,4.69656036 55.0248134,6.66186787 L51.4275639,6.66186787 Z M48.215776,9.70953857 L48.215776,0.0942082324 C47.3827701,0.316417848 46.6332613,0.449822207 45.7008448,0.549629886 L45.7008448,0.832745763 C46.7499607,0.832745763 46.8831631,0.949450017 46.8831631,1.81549775 L46.8831631,4.72996057 C46.267053,3.73070495 45.7839489,3.43069249 44.8847348,3.43069249 C43.1028094,3.43069249 41.85389,5.11288412 41.85389,7.5112155 C41.85389,9.90954687 43.1195088,11.591935 44.9346365,11.591935 C45.8839489,11.591935 46.5334578,11.1587146 46.999666,10.2258665 C47.0664637,10.8588987 47.0664637,10.9253061 47.2330648,11.5585348 C47.915776,11.3416299 48.1990766,11.2750259 49.1813949,11.1587146 L49.4312967,11.1253144 L49.4312967,10.8421985 C48.3151866,10.8087983 48.215776,10.7254943 48.215776,9.70953857 L48.215776,9.70953857 Z M45.0847348,11.1253144 C43.8855206,11.1253144 43.2527112,9.87614666 43.2527112,7.49451539 C43.2527112,5.07968039 43.8356189,3.89711657 45.0346365,3.89711657 C46.267053,3.89711657 46.8998625,5.16278796 46.8998625,7.61141612 C46.8998625,9.9260505 46.283556,11.1253144 45.0847348,11.1253144 L45.0847348,11.1253144 Z M37.7079175,11.0255067 C36.1925933,11.0255067 35.5261886,9.85944656 35.5094892,7.26149983 L40.472554,7.26149983 C40.4389587,4.69656036 39.3900393,3.33088481 37.4250098,3.33088481 C35.4263851,3.33088481 34.1774656,4.9464725 34.1774656,7.5112155 C34.1774656,10.0759585 35.4263851,11.5752349 37.5749116,11.5752349 C39.2067387,11.5752349 40.2727505,10.5590827 40.489057,8.84349083 L39.8230452,8.84349083 C39.6232417,10.2592667 38.8904322,11.0255067 37.7079175,11.0255067 L37.7079175,11.0255067 Z M35.542888,6.66186787 C35.7094892,4.74666067 36.3422986,3.76390868 37.4083104,3.76390868 C38.4906287,3.76390868 39.040334,4.69656036 39.140334,6.66186787 L35.542888,6.66186787 Z M32.8081139,3.1811733 L32.8081139,5.92902802 L32.4415128,5.92902802 C32.1419057,4.4802449 31.5257957,3.78060879 30.5096857,3.78060879 C29.2607662,3.78060879 28.5279568,5.12958423 28.5279568,7.5112155 C28.5279568,9.84294293 29.1776621,11.0255067 30.4595874,11.0255067 C31.4923969,11.0255067 32.1085069,10.2924704 32.3083104,8.82679073 L32.9910216,8.82679073 C32.7745187,10.6089865 31.8252063,11.5752349 30.3265815,11.5752349 C28.3947544,11.5752349 27.0788409,9.94275061 27.0788409,7.5112155 C27.0788409,5.02958008 28.4112574,3.33088481 30.3764833,3.33088481 C31.0925933,3.33088481 31.5422986,3.51399654 32.0753045,4.03032446 L32.5248134,3.1811733 L32.8081139,3.1811733 Z M20.6918075,3.94702041 L20.6918075,3.6474009 C21.6411198,3.56409685 22.2071316,3.4640927 22.8900393,3.26447734 C22.9733399,3.88061294 23.0067387,4.14702871 23.0399411,4.64665652 L23.0399411,4.82996472 C23.4063458,3.88061294 24.1224558,3.33088481 24.9882711,3.33088481 C25.8210806,3.33088481 26.437387,3.88061294 26.437387,4.68005673 C26.437387,5.16278796 26.1542829,5.47930405 25.7381729,5.47930405 C25.3548723,5.47930405 25.0552652,5.24628848 25.0552652,4.91307229 C25.0552652,4.87967209 25.0717682,4.81346109 25.0882711,4.74666067 L25.1216699,4.58005258 L25.1216699,4.43014459 C25.1216699,4.19712902 24.9218664,4.03032446 24.6220629,4.03032446 C23.7560511,4.03032446 23.2065422,5.07968039 23.2065422,6.72847181 L23.2065422,10.2091664 C23.2065422,10.9253061 23.372947,11.058907 24.388664,11.1086143 L24.388664,11.4418305 C23.472947,11.3585265 23.1232417,11.3416299 22.5405305,11.3416299 C21.9407269,11.3416299 21.5910216,11.3585265 20.6751081,11.4418305 L20.6751081,11.1086143 C21.6910216,11.058907 21.8743222,10.9253061 21.8743222,10.2091664 L21.8743222,5.02958008 L21.8743222,4.76336077 C21.8576228,4.04702456 21.7741257,3.96372051 20.9083104,3.94702041 L20.6918075,3.94702041 Z M16.9356189,11.0255067 C15.4202947,11.0255067 14.7540864,9.85944656 14.737387,7.26149983 L19.7002554,7.26149983 C19.6668566,4.69656036 18.6177407,3.33088481 16.6527112,3.33088481 C14.6540864,3.33088481 13.405167,4.9464725 13.405167,7.5112155 C13.405167,10.0759585 14.6540864,11.5752349 16.802613,11.5752349 C18.4344401,11.5752349 19.5002554,10.5590827 19.7169548,8.84349083 L19.0507466,8.84349083 C18.8507466,10.2592667 18.1181336,11.0255067 16.9356189,11.0255067 L16.9356189,11.0255067 Z M14.7705894,6.66186787 C14.937387,4.74666067 15.5701965,3.76390868 16.6360118,3.76390868 C17.7183301,3.76390868 18.2680354,4.69656036 18.3680354,6.66186787 L14.7705894,6.66186787 Z M2.26489194,1.28246973 L1.93188605,9.9260505 L1.93188605,10.076155 C1.93188605,10.8087983 2.148389,10.9587063 3.31400786,11.0420104 L3.31400786,11.4418305 C2.46469548,11.3750301 2.13168959,11.3585265 1.66528487,11.3585265 C1.19907662,11.3585265 0.866070727,11.3750301 5.89390963e-05,11.4418305 L5.89390963e-05,11.0420104 C1.1656778,10.9587063 1.33227898,10.8254984 1.36548134,9.9260505 L1.7153831,1.74889381 L1.7153831,1.64888966 C1.7153831,0.882649602 1.48218075,0.716041508 0.333064833,0.649634037 L0.333064833,0.233113801 C0.98237721,0.283017641 1.23227898,0.299914217 1.69868369,0.299914217 C2.31479371,0.299914217 2.64799607,0.283017641 3.2808055,0.216413698 L6.37844794,8.64387548 L9.52599214,0.216413698 C10.2753045,0.283017641 10.6252063,0.299914217 11.1248134,0.299914217 C11.5411198,0.299914217 11.8075246,0.283017641 12.440334,0.233113801 L12.440334,0.649634037 C11.3079175,0.716041508 11.0580157,0.882649602 11.0580157,1.63218955 L11.0580157,1.74889381 L11.2413163,9.9260505 C11.2580157,10.8254984 11.4079175,10.9587063 12.6071316,11.0420104 L12.6071316,11.4418305 C11.5578193,11.3418264 11.1582122,11.3084262 10.5252063,11.3084262 C9.89239686,11.3084262 9.49278978,11.3418264 8.44347741,11.4418305 L8.44347741,11.0420104 C9.57589391,10.9754064 9.82579568,10.7920982 9.82579568,10.009551 L9.82579568,9.9260505 L9.67589391,1.29916984 L6.92795678,8.72698305 L6.72815324,9.2765147 L6.49495088,9.89284677 L6.27844794,10.5256825 L6.09514735,11.0754106 L5.84544204,11.0754106 L5.66233792,10.5423826 L5.42913556,9.89284677 L5.1959332,9.24350744 L4.99612967,8.66057558 L2.26489194,1.28246973 Z M64.1495678,7.36739813 L67.8707859,7.36739813 L67.8707859,6.50626219 L64.1495678,6.50626219 L64.1495678,7.36739813 Z" id="Fill-1" fill="#FFFFFF" mask="url(#mask-2)"></path>
                </g>
            </g>
            <path d="M50.5,-2.13162821e-14 C47.9256019,-2.13162821e-14 45.5345667,0.478298482 43.2912279,1.43443818 C41.0474319,2.39057788 39.0615329,3.71481536 37.4066934,5.37011222 C35.7143581,7.0249518 34.427159,8.97426961 33.4339809,11.2180656 C32.4778412,13.4614044 32,15.8519823 32,18.3532182 C32,20.8910351 32.4778412,23.281613 33.4339809,25.5249518 C34.427159,27.7687478 35.7143581,29.6810272 37.4066934,31.3729052 C39.0615329,33.0282021 41.0474319,34.3154012 43.2912279,35.3085793 C45.5345667,36.264719 47.9256019,36.7430175 50.5,36.7430175 C53.037817,36.7430175 55.464976,36.264719 57.7087721,35.3085793 C59.9521108,34.3154012 61.9014286,33.0282021 63.5933066,31.3729052 C65.2486035,29.6810272 66.572841,27.7687478 67.5655618,25.5249518 C68.5217015,23.281613 69,20.8910351 69,18.3532182 C69,15.8519823 68.5217015,13.4614044 67.5655618,11.2180656 C66.572841,8.97426961 65.2486035,7.0249518 63.5933066,5.37011222 C61.9014286,3.71481536 59.9521108,2.39057788 57.7087721,1.43443818 C55.464976,0.478298482 53.037817,-2.13162821e-14 50.5,-2.13162821e-14 Z M65.2115651,26.2972712 L53.6263162,16.91878 L52.5229374,17.6174799 L64.4392456,26.2972712 L50.7574398,18.8310594 L50.7574398,21.5161155 L64.6966855,27.1066291 C63.9614044,28.2836275 63.1154654,29.3504251 62.0857062,30.3065648 C61.0925281,31.2992857 59.9521108,32.1086435 58.7385313,32.8073434 C57.5249518,33.5065006 56.2007143,34.0209229 54.8033145,34.4256019 C53.4424959,34.7936996 51.9710193,34.9775199 50.5,34.9775199 C48.9919423,34.9775199 47.5209229,34.7936996 46.1230659,34.3890207 C44.6886277,33.9843418 43.4014286,33.4694622 42.1508107,32.7337239 C40.9372312,32.035024 39.8338524,31.189085 38.8040931,30.2329453 C37.7743339,29.2397672 36.8913565,28.1363884 36.1560754,26.95939 L50.205979,21.589735 L50.205979,18.7944782 L36.523716,26.3708908 L48.4400242,17.5072792 L47.5945425,17.0289807 L35.8250161,26.3343097 C35.1628973,25.1573113 34.6845988,23.9066934 34.3169583,22.5458747 C33.9493178,21.1850561 33.7650403,19.7876563 33.7650403,18.3532182 C33.7650403,16.1094221 34.1697192,14.0133225 35.0526966,11.9903851 C35.8986356,10.0040289 37.075634,8.23898858 38.5466533,6.76751199 C40.0176726,5.25945425 41.7461318,4.04587473 43.732488,3.16335459 C45.7554254,2.28037718 47.8519823,1.80253596 50.1319022,1.76549755 L47.9256019,16.4404815 L48.8447031,17.1026002 L50.3527609,2.83229522 L50.5365811,2.83229522 L50.7204014,17.9485392 L53.2216373,16.4404815 L50.8676405,1.76549755 C53.1114366,1.80253596 55.2445746,2.28037718 57.2304736,3.16335459 C59.2534109,4.04587473 60.9818701,5.25945425 62.4533467,6.76751199 C63.924366,8.23898858 65.1013644,10.0040289 65.9473034,11.9903851 C66.7932424,14.0133225 67.2345024,16.1094221 67.2345024,18.3532182 C67.2345024,19.7876563 67.0506822,21.1850561 66.7196228,22.5092936 C66.3519823,23.8701122 65.8736838,25.1207301 65.2115651,26.2972712 Z M68.4485392,15.8519823 C68.1174799,14.0499036 67.4553611,12.2478249 66.4256019,10.4823274 C65.4324237,8.7168298 64.1452247,7.1351525 62.5635474,5.73775273 C61.0189085,4.33989569 59.2168298,3.23651688 57.156854,2.35399674 C55.0607544,1.50805774 52.8169583,1.06679767 50.3527609,1.06679767 C48.1094221,1.06679767 45.9022072,1.50805774 43.8426887,2.35399674 C41.7461318,3.23651688 39.9074719,4.41351525 38.3257947,5.9586114 C36.7075362,7.50325028 35.4203371,9.34191013 34.5007786,11.5120866 C33.5446389,13.6452247 33.0663404,15.9626403 33.0663404,18.5370384 C33.0663404,19.8608186 33.1765411,21.0382743 33.3973998,22.1046147 C33.6182584,23.1709551 33.8756983,24.127552 34.2433388,25.0471106 C34.6109793,25.9662119 35.0156582,26.8126081 35.4939567,27.5844703 C35.9717979,28.357247 36.4500964,29.1295665 37.0020144,29.8648475 C36.5973355,29.497207 36.119037,28.9457462 35.6041574,28.2100079 C35.0526966,27.4742696 34.5743981,26.5917495 34.0960997,25.5619902 C33.6182584,24.532231 33.2135795,23.3918137 32.8825201,22.1046147 C32.5514608,20.8174156 32.4042217,19.456597 32.4042217,18.0221588 C32.4042217,15.8519823 32.845939,13.6822631 33.7650403,11.5857062 C34.6845988,9.48914924 35.9352168,7.6504894 37.5534752,5.99519255 C39.1351525,4.33989569 41.0474319,3.01611548 43.2912279,2.02293737 C45.4979856,0.993178111 47.9256019,0.478298482 50.5365811,0.478298482 C52.5229374,0.478298482 54.3250161,0.772319442 55.9803129,1.32423748 C57.6351525,1.87569825 59.1432102,2.57485541 60.4674477,3.45737555 C61.7912279,4.33989569 62.9682263,5.3330738 63.9614044,6.43645262 C64.9541253,7.57686984 65.8000643,8.68024865 66.462183,9.82020861 C67.1243017,10.9601686 67.6026002,12.0640046 67.9702407,13.130345 C68.3013001,14.1601043 68.4485392,15.0796629 68.4485392,15.8519823 Z M67.6757625,18.3532182 C67.6757625,16.91878 67.4919423,15.5579613 67.1613402,14.3443818 C66.8668619,13.1669262 66.462183,12.1005858 66.0575041,11.1444461 C65.6532824,10.2248875 65.2115651,9.4525681 64.7337239,8.8270305 C64.2924638,8.16536902 63.9614044,7.72365169 63.7039646,7.39259232 C64.035024,7.61345099 64.476284,8.09174947 64.9911637,8.8270305 C65.5060433,9.52618765 66.0209229,10.4087078 66.5358026,11.4018859 C67.014101,12.4316452 67.4553611,13.535024 67.8230016,14.7486035 C68.154061,15.9626403 68.3378813,17.1762198 68.3378813,18.3532182 C68.3378813,20.9641974 67.8230016,23.3181942 66.8302808,25.4883707 C65.8000643,27.6580899 64.476284,29.5337881 62.8209872,31.0788843 C61.2027288,32.6601043 59.3270305,33.8741411 57.1938924,34.7566612 C55.0973355,35.6396386 52.927159,36.0808987 50.7204014,36.0808987 C48.5506822,36.0808987 46.6379455,35.7864205 44.9460675,35.1979213 C43.2912279,34.6094221 41.8197513,33.8371027 40.5695907,32.9545825 C39.3189728,32.035024 38.2521751,31.0052647 37.4066934,29.9018859 C36.5973355,28.7985071 35.8986356,27.7317094 35.3467176,26.7019502 C34.831838,25.7087721 34.427159,24.7896708 34.2067576,24.0168941 C33.985899,23.2445746 33.8756983,22.6931138 33.8756983,22.3620545 C34.3535395,24.2377527 35.1263162,25.9662119 36.1560754,27.5478892 C37.1487963,29.1295665 38.3994142,30.4903851 39.8704335,31.6673835 C41.3419101,32.8443818 42.9601686,33.7639404 44.7622473,34.4256019 C46.564326,35.0877206 48.4770626,35.41878 50.5,35.41878 C52.8539967,35.41878 55.0973355,34.9404815 57.156854,34.0579613 C59.2534109,33.1384028 61.0554896,31.9248233 62.6371669,30.3801844 C64.1818058,28.8350882 65.3958426,27.0330095 66.3149439,24.973491 C67.1979213,22.9139725 67.6757625,20.7072149 67.6757625,18.3532182 Z M46.2332666,20.4863562 L49.948082,18.3532182 L49.2864205,18.0221588 L46.2332666,20.4863562 Z M49.6174799,17.6174799 L50.2791413,17.9485392 L50.2791413,5.62755203 L49.6174799,17.6174799 Z M51.0884992,18.5004573 L62.9682263,25.3777127 L52.0080577,17.9119581 L51.0884992,18.5004573 L51.0884992,18.5004573 Z" id="Fill-4" fill="#FFFFFF"></path>
        </g>
    </g>
</svg>