<?xml version="1.0" encoding="utf-8"?>
<!-- Generator: Adobe Illustrator 24.0.1, SVG Export Plug-In . SVG Version: 6.00 Build 0)  -->
<svg version="1.1" id="Layer_1" xmlns="http://www.w3.org/2000/svg" xmlns:xlink="http://www.w3.org/1999/xlink" x="0px" y="0px"
	 width="193px" height="83px" viewBox="0 0 193 83" style="enable-background:new 0 0 193 83;" xml:space="preserve">
<style type="text/css">
	.st0{fill:#FFFFFF;}
</style>
<title>Shape</title>
<desc>Created with Sketch.</desc>
<g id="C19---Clients">
	<g id="C19---Clients---Dark---Desktop" transform="translate(-1051.000000, -604.000000)">
		<g id="The_Red_Sea">
			<g transform="translate(1051.000000, 604.000000)">
				<path id="Shape" class="st0" d="M53.6,63c0.1,1.3,1.3,2,3.4,3.1c1.9,0.9,3.6,2.1,5.1,3.5c1.4,1.5,2.5,3.3,3.1,5.2
					c0.7,1.8,1.2,2.8,2.5,3h0.4c1.5-0.3,1.9-1.7,2.2-4v-0.1c0.2-1.5,0.4-3.1,1.3-3.9c0.4-0.4,0.8-0.8,1.3-1.2
					c1.6-1.5,3.2-3.1,3.3-4.8c0-1.4-1-2.4-2.3-2.4c-0.1,0-0.2,0-0.3,0c-1.4,0.1-2,1.3-2.5,3.2c-0.5,1.7-1.2,3.7-3.4,3.6
					c-1.1,0-1.7-0.4-3.2-1.9c-2-2-2.9-4.6-3.7-6.9c-1.1-3.1-1.8-4.9-3.9-5c-0.9-0.1-1.7,0.6-1.8,1.6c0,0.1,0,0.2,0,0.2
					c0.1,0.9,0.4,1.7,1,2.4c0.4,0.4,0.5,0.9,0.5,1.4c-0.2,0.6-0.7,1.2-1.4,1.3C54.2,61.7,53.6,62,53.6,63L53.6,63z M67.8,78.9h-0.3
					c-2.1-0.2-2.7-1.9-3.3-3.6c-0.5-1.8-1.5-3.5-2.9-4.9c-1.4-1.4-3.1-2.5-4.9-3.4c-2.1-1.1-3.9-2-4-4c0-1.3,0.8-2.3,2.1-2.6
					c0.2-0.1,0.3-0.1,0.5-0.2c0.2-0.1,0.3-0.2,0.3-0.3s-0.1-0.2-0.2-0.3c-0.1-0.1-0.2-0.3-0.3-0.4c-0.6-0.9-1.1-2-1.1-3.1
					c-0.1-1.5,1.2-2.8,2.7-2.9c0.1,0,0.1,0,0.2,0c3,0.1,3.9,2.8,4.9,5.7c0.7,2.2,1.6,4.7,3.4,6.5c1.4,1.4,1.8,1.5,2.4,1.5
					c1.3,0.1,1.8-1.1,2.4-2.9c0.6-1.8,1.3-3.8,3.5-4c1.9-0.1,3.6,1.3,3.7,3.2c0,0.1,0,0.2,0,0.3c0,2.2-1.9,3.9-3.6,5.6
					c-0.4,0.4-0.8,0.8-1.2,1.2c-0.6,0.5-0.8,1.9-0.9,3.2v0.1c-0.3,2-0.5,4.5-3.1,5L67.8,78.9L67.8,78.9z M28.8,38.2
					c-1.2,0-2.2,1-2.2,2.2v0.1c0.1,2.1,2.3,3.4,5.5,5.4c3.1,1.8,6.1,4,8.7,6.7c0.6,0.6,1.2,1.3,1.6,2c1.4,1.9,3.2,4.2,5,4.2
					c1.4,0.1,2.4-1,2.5-2.2c0-0.2,0-0.3,0-0.5c-0.1-1.5-1.3-2.2-2.5-2.7c-1.2-0.5-2.2-1.1-2.2-2.3v-0.2c0.2-0.4,0.5-0.8,0.8-1.1
					c0.5-0.4,1-0.9,1.1-1.5c0-0.8-0.6-1.3-1.6-1.3h-0.4c-2,0-3.2,0-5-1.9c-1.1-1.2-1.6-2.7-1.5-4.2c0-0.8,0.1-1.6,0.2-2.4
					c0.1-0.7,0.2-1.4,0.2-1.9c0-1.4-0.6-2.2-1.9-2.2c-1.1-0.1-2.1,0.6-2.2,1.8c0,0.1,0,0.1,0,0.2c0,0.8,0.2,1.6,0.5,2.3
					c0.3,0.6,0.5,1.3,0.5,2c0,0.5-0.2,1.1-0.5,1.5c-0.6,0.5-1.4,0.7-2.2,0.5c-0.6-0.4-1.3-0.9-1.5-1.6c-0.1-0.2-0.2-0.4-0.3-0.5
					C30.8,39.4,30.1,38.3,28.8,38.2L28.8,38.2z M47.5,59.9c-2.3-0.1-4.3-2.6-5.8-4.7c-0.5-0.6-1-1.3-1.5-1.9
					c-2.5-2.5-5.4-4.7-8.6-6.5c-3.4-2.2-5.9-3.7-5.9-6.3c-0.1-1.8,1.3-3.3,3.1-3.4c0.1,0,0.2,0,0.2,0c1.9,0.1,2.8,1.6,3.5,2.8
					c0.3,0.6,0.6,1.2,1.2,1.5c0.3,0.2,0.6,0.3,1,0.1c0.9-0.5,0.4-1.9,0.1-2.5c-0.5-0.9-0.6-1.8-0.6-2.8c0-1.7,1.4-3.1,3.1-3.1
					c0.1,0,0.1,0,0.2,0c1.9,0,3,1.2,3,3.2c0,0.7-0.1,1.4-0.2,2.1C40.1,39.3,40,40,40,40.8c-0.1,1.3,0.4,2.5,1.2,3.5
					c1.5,1.5,2.4,1.5,4.3,1.5h0.2c1.3-0.2,2.5,0.8,2.7,2.2c0,0.1,0,0.2,0,0.3c-0.1,1-0.6,1.8-1.4,2.3c-0.3,0.2-0.4,0.4-0.4,0.5
					c0,0.4,0.3,0.6,1.5,1.3c1.3,0.6,3.1,1.4,3.2,3.7S49.7,59.9,47.5,59.9L47.5,59.9z M68.1,36.3h-0.4c-1,0.2-1.6,1-1.6,2
					c0,0.1,0,0.2,0,0.3c0.3,1,0.7,2,1.3,2.8c0.4,0.5,0.7,1.2,1.1,1.8c0.7,1.4,1.3,2.8,1.7,4.3c0.3,1.4,1,2.7,2.1,3.7
					c1.1,0.8,2.2,1.4,3.6,1.8c1,0.3,2,0.7,2.8,1.4c1.3,1.1,1.4,3.3,1.4,5.1c0,0.4,0,0.8,0.1,1.2c0.1,1,0.8,1.8,1.8,1.9h0.2
					c0.9-0.1,1.6-0.9,1.5-1.8l0,0v-0.4c0-0.2,0-0.5,0-0.6c0-2.3,1.3-3,2.4-3.4c0.7-0.4,1.4-0.6,1.4-1.3c0-0.1,0-0.1,0-0.2
					c-0.3-0.7-1.3-1-2.9-1.3c-2.2-0.4-4.4-1.3-6.2-2.7c-1.8-1.4-1.9-4.6-2-6.5v-0.8c-0.1-0.9-0.5-1.4-1.4-1.4c-0.1,0-0.3,0-0.4,0
					c-0.5,0.1-1,0.2-1.5,0.4c-0.4,0.2-0.7,0.3-1.1,0.3s-0.7-0.2-1-0.4c-0.8-0.7-0.8-1.9-0.8-2.7v-0.3c0-0.4,0-0.7,0-1
					c-0.2-1.1-1.1-1.8-2.2-1.8L68.1,36.3z M82,63.5c-1.4-0.1-2.5-1.2-2.8-2.6c-0.2-1-0.2-2.1-0.2-3.1s-0.4-2-1.1-2.8
					c-0.6-0.5-1.3-0.8-2-1c-2-0.6-4-1.4-5.3-3.1c-0.8-1.3-1.4-2.8-1.8-4.3c-0.7-1.8-1.5-3.5-2.6-5.1c-0.7-1-1.2-2.2-1.3-3.3
					c0.1-1.7,1.4-3,3.2-3c1.1,0,2.1,0.6,2.5,1.5c0.4,1.1,0.6,2.3,0.5,3.5c0,0.4,0.1,0.7,0.4,1c0.4,0.2,0.7,0.1,1.1-0.1
					c1.1-0.5,2.4-0.7,3.4-0.2c0.6,0.5,1.1,1.2,1.2,2c0.1,0.8,0.2,1.5,0.1,2.3c0,1.3,0.3,2.4,0.9,3.6c0.9,1.3,2.2,2.2,3.6,2.6
					c1.4,0.5,2.9,0.7,4.3,1.2c0.5,0.2,1.1,0.4,1.6,0.8c0.4,0.4,0.7,1,0.7,1.5c-0.1,0.9-0.9,1.5-1.7,1.9c-0.9,0.3-1.6,0.9-2.1,1.6
					c-0.4,0.8,0,1.7-0.1,2.5c-0.2,1.3-1.2,2.3-2.4,2.4H82L82,63.5z M52.8,42.1c0.5,0.6,1,1.3,1.2,2.2c0.4,1.3,0.8,2.2,2.6,2.2
					c1.1,0,2-0.8,2-2c0-0.1,0-0.2,0-0.2c-0.1-0.6-0.3-1.3-0.7-1.8c-0.3-0.4-0.5-0.7-0.5-1.1c0-0.5,0.1-0.9,0.3-1.3
					c0.2-0.4,0.4-0.7,0.4-1.2c0.1-0.8-0.5-1.5-1.4-1.6h-0.1c-0.4,0-1,0-1.4,0.1c-0.5,0.1-1.1,0.1-1.6,0.1c-0.5-0.1-1.1-0.3-1.6-0.6
					c-0.6-0.5-1.4-0.7-2.2-0.7c-0.9,0.1-1.5,0.8-1.5,1.7V38c0,1.6,1.2,2.1,2.5,2.6C51.5,41,52.2,41.4,52.8,42.1L52.8,42.1z
					 M56.7,47.6c-2.5,0-3.1-1.7-3.6-3c-0.2-0.6-0.5-1.3-1-1.8c-0.5-0.5-1.2-0.8-1.8-1.1c-1.4-0.5-3.1-1.3-3.2-3.6
					c-0.1-1.5,1-2.8,2.5-2.9h0.1c1,0,2,0.4,2.8,0.9c0.4,0.3,0.8,0.4,1.3,0.4c0.4,0,0.9-0.1,1.3-0.1c0.5-0.1,1.1-0.1,1.6-0.1
					c1.4,0,2.6,1.2,2.6,2.6v0.1c0,0.5-0.2,1.2-0.5,1.6c-0.1,0.2-0.2,0.4-0.2,0.6s0.2,0.5,0.3,0.6c0.5,0.7,0.8,1.5,0.9,2.4
					c0.1,1.7-1.2,3.2-2.9,3.2C56.9,47.6,56.8,47.6,56.7,47.6L56.7,47.6z M16.1,8.1c-0.2,0-0.4,0-0.5,0c-1.6,0.2-1.8,1.6-1.8,2.5
					c0.1,1.3,0.3,2.5,0.5,3.8c0.2,0.9,0.4,1.8,0.4,2.7c0.1,0.5,0.1,1.1,0.1,1.6c0.1,2.1-0.5,4.1-1.8,5.9c-0.2,0.3-0.4,0.5-0.6,0.8
					c-0.9,1.1-1.8,2.2-1.8,3.7c0,0.2,0,0.4,0,0.5c0.2,1.3,0.9,1.6,2.2,2.1c1,0.3,2,0.8,2.9,1.4c0.6,0.5,1.3,1.1,1.8,1.6
					c1.4,1.3,2.4,2.4,4.1,2.4c0.2,0,0.4,0,0.5,0c1-0.2,1.7-1.1,1.7-2.1c0-0.1,0-0.2,0-0.3c-0.2-1.3-1.3-1.4-2.6-1.5
					c-0.9,0-2.3,0-2.6-1.1c-0.2-0.6,0.1-1.4,0.7-1.5c0.1,0,0.2-0.1,0.3-0.1c0.2,0,0.5,0,0.6,0c1.6,0,2.5-0.3,2.5-1.5
					c0-0.1,0-0.2,0-0.4c-0.1-0.6-0.6-1.2-1.4-1.1c0,0,0,0-0.1,0h-0.1c-0.7,0-1.4,0.2-2.1,0.4h-0.1c-0.5,0.2-1.2,0.3-1.7,0.3l0,0
					c-1,0-2.1-0.4-2.3-1.4C15,26.6,15,26.5,15,26.3c0-0.9,0.7-1.9,2-2.8c3.8-2.7,5.7-5.1,5.7-7.1c0-0.1,0-0.3,0-0.4
					c-0.1-0.6-0.7-1.2-1.3-1.1h-0.2c-0.5,0.2-1,0.5-1.3,1v0.1c-0.4,0.5-1,0.9-1.6,0.9c-0.5,0-0.8-0.3-1-0.6
					c-0.2-0.7-0.1-1.4,0.1-2.2l0,0c0.3-1.2,0.5-2.3,0.5-3.5c0-0.2,0-0.4,0-0.4C17.8,8.8,17.3,8.1,16.1,8.1L16.1,8.1z M21.8,38.2
					c-2.1,0-3.5-1.4-4.9-2.7c-0.6-0.5-1.2-1.1-1.8-1.6c-0.7-0.5-1.5-0.9-2.4-1.2c-1.4-0.4-2.7-0.9-3-2.9c0-0.3,0-0.5,0-0.7
					c0-1.9,1.1-3.2,2-4.4c0.2-0.3,0.5-0.5,0.6-0.8c1.1-1.5,1.6-3.3,1.6-5.2c0-0.5,0-1-0.1-1.4c-0.1-0.8-0.3-1.7-0.4-2.6
					c-0.3-1.3-0.4-2.7-0.5-4.1c0-2.1,1-3.4,2.7-3.6c0.2,0,0.4,0,0.6-0.1c1.7,0,2.7,1.1,2.9,3c0,0.2,0,0.4,0,0.6
					c-0.1,1.3-0.3,2.5-0.5,3.7v0.1c-0.1,0.4-0.2,0.8-0.3,1.2c0,0.1,0.1,0.2,0.1,0.2c0.2,0.1,0.4-0.1,0.5-0.3l0.3-0.4l0,0
					c0.4-0.6,1.2-1.2,1.9-1.3c0.1,0,0.3,0,0.4,0c1.2,0,2.2,0.8,2.4,2c0,0.2,0,0.4,0,0.5c0,2.3-2.1,5-6.1,8c-0.5,0.4-1.6,1.2-1.5,2
					c0.1,0.6,0.8,0.7,1.4,0.7c0.5,0,1-0.1,1.5-0.3h0.1c0.7-0.2,1.5-0.4,2.3-0.4h0.1c1.3-0.1,2.3,0.8,2.4,2c0,0.2,0,0.3,0,0.4
					c-0.1,2.5-2.5,2.6-3.6,2.6h-0.5c-0.1,0-0.2,0.1-0.2,0.3c0.1,0.1,0.1,0.1,0.2,0.1c0.3,0.1,0.5,0.1,0.7,0.1l0.8,0.4
					c1.1,0.1,3.2,0.2,3.6,2.4c0,0.2,0,0.3,0,0.4c0,1.5-1.1,2.9-2.6,3.2C22.2,38.1,21.9,38.1,21.8,38.2L21.8,38.2z M97,36.8
					c0,3.3-2.1,5.6-5.6,5.6c-0.4,0-1.5,0-2.2,0s-1.4,0-1.9,0V42c1.1,0,1.3-0.2,1.3-1.3V33c0-1.1-0.2-1.3-1.3-1.4v-0.3
					c0.4,0,0.9,0.1,1.5,0.1h0.4c0.7,0,1.7,0,2.3,0C95.2,31.4,97,33.3,97,36.8z M90,33v7.7c0,1.1,0.2,1.3,1.2,1.3
					c3.3,0,4.2-1.9,4.2-5.2c0-3.3-1.1-5.1-4.3-5.1C90.3,31.6,90,31.9,90,33z M105.6,40.5c-0.4,1.3-1.6,2.1-2.9,2.1
					c-2.2,0-3.5-1.6-3.5-4c0-2.7,1.4-4.3,3.5-4.3c1.8,0,2.9,1.1,2.9,3.4h-4.8c0,0.4-0.1,0.6-0.1,1c0,2.1,1.2,3.3,2.3,3.3
					c1,0,1.9-0.6,2.2-1.5H105.6z M100.7,37.2h3.3c0-1.5-0.4-2.8-1.4-2.8C101.6,34.4,100.8,35.3,100.7,37.2z M114.3,34.3v0.3
					c-0.4,0-0.7,0.3-1,1.1l-2.5,6.6h-0.3l-2.8-6.8c-0.4-0.8-0.7-0.9-0.9-0.9v-0.4c0.4,0,0.8,0.1,1.3,0.1c0.5,0,1.4,0,2-0.1v0.4
					c-0.6,0-1.1,0-1.1,0.5c0,0.3,0.1,0.5,0.2,0.7l1.9,4.7l1.7-4.5c0.1-0.2,0.2-0.5,0.2-0.7c0-0.5-0.4-0.7-1.2-0.7v-0.3h1.3
					C113.7,34.2,114.1,34.4,114.3,34.3z M121.8,40.5c-0.5,1.3-1.5,2.1-2.9,2.1c-2.2,0-3.5-1.6-3.5-4c0-2.7,1.3-4.3,3.5-4.3
					c1.8,0,2.9,1.1,2.9,3.4H117c0,0.4-0.1,0.6-0.1,1c0,2.1,1.2,3.3,2.3,3.3c1,0,1.9-0.6,2.2-1.5H121.8z M116.9,37.2h3.3
					c0.1-1.5-0.5-2.8-1.4-2.8C117.8,34.4,117,35.3,116.9,37.2z M125.8,41c0,0.8,0.4,1,1.2,1v0.3c-0.4,0-1.2-0.1-1.9-0.1
					s-1.5,0-1.9,0.1V42c0.8,0,1.2-0.2,1.2-1v-7.9c0-0.8-0.3-1.2-1.2-1.2v-0.3c0.4,0,0.6,0,1,0c0.5,0,1.1-0.1,1.6-0.2V41L125.8,41z
					 M135.4,38.4c0,3-1.5,4.1-3.5,4.1c-2,0-3.4-1.3-3.4-4.1s1.5-4.2,3.5-4.2C133.9,34.2,135.4,35.4,135.4,38.4z M129.9,38.4
					c0,2.7,0.8,3.9,2,3.9c1.2,0,2-1.2,2-3.9c0-2.7-0.8-3.9-2-3.9C130.7,34.5,129.9,35.6,129.9,38.4z M144.7,37.9
					c0,2.2-1,4.5-3.5,4.5c-0.7,0-1.4-0.3-1.8-0.8v2c0,0.9,0.5,1.1,1.4,1.1V45c-0.4,0-1.3-0.1-2.2-0.1c-0.6,0-1.3,0.1-1.7,0.1v-0.4
					c0.7,0,1-0.2,1-1V36c0-0.9-0.3-1.4-1.2-1.4v-0.4h1c0.5,0,1.1-0.1,1.6-0.2v1.6c0.4-1,1.3-1.7,2.4-1.6
					C143.5,34.2,144.7,35.5,144.7,37.9z M143.2,38.2c0-2.4-0.6-3.6-1.8-3.6c-0.9,0-1.7,0.6-2.1,2v4.5c0.3,0.6,0.9,1,1.6,1
					C142.8,42.2,143.2,40.4,143.2,38.2L143.2,38.2z M158.1,40.9c0,0.9,0.4,1.1,1.2,1.1v0.4c-0.4,0-1.2-0.1-1.9-0.1
					c-0.7,0-1.4,0-1.7,0.1V42c0.7,0,1-0.3,1-1.1v-4.5c0-1-0.1-1.8-1.2-1.8s-2.1,1.2-2.1,2.8v3.4c0,0.9,0.4,1.1,1.2,1.1v0.4
					c-0.4,0-1.2-0.1-1.8-0.1c-0.6,0-1.4,0-1.7,0.1V42c0.7,0,1-0.3,1-1.1v-4.5c0-1-0.1-1.8-1.2-1.8s-2.1,1.3-2.1,2.8v3.4
					c0,0.9,0.3,1.1,1,1.1v0.4c-0.4,0-1.1-0.1-1.7-0.1c-0.6,0-1.5,0-1.9,0.1V42c0.8,0,1.2-0.3,1.2-1.1V36c0-0.9-0.3-1.3-1.2-1.3v-0.4
					h1c0.5,0,1.1-0.1,1.6-0.2V36c0.4-1.1,1.3-1.9,2.5-1.9c1-0.2,1.9,0.5,2.1,1.5c0,0.1,0,0.2,0,0.3c0.4-1.1,1.4-1.8,2.5-1.8
					c0.6,0,1.2,0.2,1.6,0.5c0.4,0.6,0.6,1.4,0.5,2V40.9z M167.1,40.5c-0.4,1.3-1.5,2.1-2.9,2.1c-2.2,0-3.5-1.6-3.5-4
					c0-2.7,1.4-4.3,3.5-4.3c1.8,0,2.9,1.1,2.9,3.4h-4.9c0,0.4-0.1,0.6-0.1,1c0,2.1,1.2,3.3,2.3,3.3c1,0,1.9-0.6,2.2-1.5H167.1z
					 M162.1,37.2h3.3c0.1-1.5-0.4-2.8-1.4-2.8S162.3,35.3,162.1,37.2z M175.3,34.7c0.4,0.5,0.6,1.3,0.5,2v4.1c0,0.9,0.4,1.1,1.2,1.1
					v0.4c-0.4,0-1.2-0.1-1.9-0.1c-0.7,0-1.4,0-1.7,0.1V42c0.7,0,1-0.3,1-1.1v-4.5c0-1-0.1-1.8-1.3-1.8c-1.3,0-2.2,1.3-2.2,2.8v3.4
					c0,0.9,0.3,1.1,1,1.1v0.4c-0.4,0-1.1-0.1-1.7-0.1c-0.6,0-1.5,0-1.9,0.1V42c0.8,0,1.2-0.3,1.2-1.1V36c0-0.9-0.3-1.3-1.2-1.3v-0.4
					h1c0.5,0,1.1-0.1,1.6-0.2V36c0.4-1.2,1.4-1.9,2.6-1.9C174.4,34.1,174.9,34.3,175.3,34.7z M182.9,34.3v0.3h-2.2v5.9
					c0,1,0.4,1.3,1,1.3s1.1-0.4,1.4-1.6l0.3,0.1c-0.2,1.2-0.7,2.2-2,2.2c-0.5,0.1-1.1-0.1-1.4-0.5c-0.5-0.6-0.7-1.3-0.6-2.2v-5.1
					h-1.4v-0.3h1.4v-2.3c0.4,0,0.9-0.1,1.4-0.2v2.6L182.9,34.3z M121.8,47.6c0.1,0.1,0.2,0.1,0.3,0.2c0.2,0,0.4-0.3,0.4-0.9h0.4
					c0,0.7-0.1,1.8-0.1,3.5h-0.4c0-0.8-0.3-1.6-0.8-2.2c-0.6-0.8-1.6-1.3-2.7-1.2c-2,0-3.3,2.1-3.3,5.4c0,3.3,1.5,5.3,3.5,5.3
					c1,0,2-0.4,2.6-1.2c0.4-0.7,0.7-1.6,0.7-2.4h0.4c0,1.9,0,2.9,0.1,3.7h-0.4c-0.1-0.6-0.2-0.9-0.4-0.9c-0.1,0-0.2,0.1-0.3,0.1
					c-0.8,0.6-1.8,1-2.9,1c-2.9,0-4.9-2.1-4.9-5.6c0-3.5,2-5.8,4.9-5.8C120.1,46.6,121.1,46.9,121.8,47.6z M132.1,53.7
					c0,3-1.5,4.1-3.5,4.1c-2,0-3.5-1.3-3.5-4.1s1.5-4.2,3.5-4.2C130.6,49.5,132.1,50.8,132.1,53.7z M126.7,53.7c0,2.8,0.8,3.9,2,3.9
					c1.2,0,2-1.1,2-3.9c0-2.8-0.8-3.9-2-3.9C127.5,49.8,126.7,51,126.7,53.7L126.7,53.7z M145.6,56.3c0,0.9,0.4,1.1,1.2,1.1v0.4
					c-0.4,0-1.2-0.1-1.9-0.1s-1.4,0-1.7,0.1v-0.4c0.7,0,1-0.3,1-1.1v-4.5c0-1-0.1-1.8-1.2-1.8s-2.1,1.3-2.1,2.8v3.4
					c0,0.9,0.4,1.1,1.2,1.1v0.4c-0.4,0-1.2-0.1-1.8-0.1c-0.6,0-1.4,0-1.7,0.1v-0.4c0.7,0,1-0.3,1-1.1v-4.5c0-1-0.1-1.8-1.2-1.8
					c-1.1,0-2.1,1.3-2.1,2.8v3.4c0,0.9,0.3,1.1,1,1.1v0.4c-0.4,0-1.1-0.1-1.7-0.1s-1.5,0-1.8,0.1v-0.4c0.8,0,1.2-0.3,1.2-1.1v-4.7
					c0-0.9-0.3-1.4-1.2-1.4v-0.4c0.4,0,0.6,0,1,0c0.5,0,1.1-0.1,1.6-0.2v1.8c0.4-1.1,1.4-1.8,2.5-1.9c1-0.2,1.9,0.5,2.1,1.5
					c0,0.1,0,0.2,0,0.3c0.4-1.1,1.4-1.8,2.6-1.8c0.6,0,1.2,0.2,1.6,0.5c0.4,0.6,0.6,1.3,0.5,2L145.6,56.3z M155.6,53.3
					c0,2.2-1,4.5-3.5,4.5c-0.7,0-1.3-0.3-1.8-0.8v2.1c0,0.9,0.5,1.1,1.4,1.1v0.4c-0.4,0-1.4-0.1-2.2-0.1c-0.6,0-1.4,0-1.6,0.1v-0.4
					c0.7,0,1-0.2,1-1v-7.8c0-0.9-0.3-1.3-1.2-1.3v-0.4c0.4,0,0.6,0,1,0c0.5,0,1.1-0.1,1.6-0.2v1.6c0.4-1,1.3-1.6,2.4-1.6
					C154.4,49.5,155.6,50.9,155.6,53.3z M154.1,53.6c0-2.4-0.6-3.6-1.8-3.6c-0.9,0-1.7,0.6-2.1,2v4.6c0.3,0.6,0.9,1,1.6,1
					C153.6,57.6,154.1,55.8,154.1,53.6z M162.6,50.1c0.5,0.6,0.7,1.4,0.6,2.2v4.3c0,0.5,0.1,0.7,0.4,0.7c0.3,0,0.5-0.1,0.7-0.4
					l0.2,0.3c-0.4,0.4-0.9,0.5-1.4,0.5c-1.1,0-1.4-0.6-1.4-1.3c-0.4,0.8-1.4,1.3-2.3,1.3c-1,0.1-1.8-0.5-2-1.5c0-0.1,0-0.2,0-0.3
					c0-1.2,0.9-1.8,2.5-2.4c1-0.5,1.9-0.7,1.9-1.4v-0.9c0-1.3-0.6-1.5-1.4-1.5c-0.5-0.1-1.1,0.2-1.5,0.5c0.5,0.1,0.7,0.4,0.7,0.9
					s-0.4,0.8-0.8,0.8h-0.1c-0.4,0-0.8-0.4-0.8-0.8v-0.1c0-0.5,0.3-0.9,0.7-1.1c0.6-0.4,1.4-0.6,2.2-0.5
					C161.4,49.5,162,49.6,162.6,50.1L162.6,50.1z M161.8,53c-0.2,0.3-0.5,0.5-1.4,0.9c-0.9,0.3-1.4,1.1-1.5,2
					c-0.1,0.6,0.4,1.3,1,1.4c0.1,0,0.2,0,0.3,0c0.7,0,1.4-0.5,1.7-1.2V53z M173,50.1c0.4,0.5,0.6,1.4,0.5,2v4.1
					c0,0.9,0.4,1.1,1.2,1.1v0.4c-0.4,0-1.2-0.1-1.9-0.1s-1.4,0-1.7,0.1v-0.4c0.7,0,1-0.3,1-1.1v-4.5c0-1-0.1-1.8-1.3-1.8
					c-1.3,0-2.2,1.3-2.2,2.8v3.4c0,0.9,0.3,1.1,1,1.1v0.4c-0.4,0-1.1-0.1-1.7-0.1c-0.6,0-1.5,0-1.9,0.1v-0.3c0.9,0,1.2-0.3,1.2-1.1
					v-4.7c0-0.9-0.3-1.3-1.2-1.3v-0.4c0.4,0,0.6,0,1,0c0.5,0,1.1-0.1,1.6-0.2v1.8c0.4-1.2,1.4-1.9,2.6-1.9
					C171.9,49.5,172.6,49.6,173,50.1L173,50.1z M183,49.7v0.4c-0.4,0-0.7,0.3-1,1.1l-2.5,6.6l-0.5,1.3c-0.1,0.5-0.4,0.8-0.6,1.1
					c-0.4,0.3-0.8,0.5-1.2,0.4c-0.4,0.1-1-0.3-1-0.7c0-0.1,0-0.1,0-0.2c0-0.5,0.3-0.8,0.7-0.8h0.1c0.4,0,0.7,0.3,0.8,0.6v0.1
					c0,0.3-0.2,0.5-0.4,0.7h0.1c0.5,0,1-0.4,1.3-1.2l0.5-1.4l-2.8-6.7c-0.4-0.8-0.8-0.9-1.1-0.9v-0.4c0.5,0.1,1,0.1,1.5,0.1
					c0.6,0,1.4-0.1,2-0.1v0.4c-0.5,0-1.1,0-1.1,0.5c0,0.3,0.1,0.5,0.2,0.7l1.9,4.6l1.7-4.5c0.1-0.3,0.2-0.5,0.2-0.7
					c0-0.4-0.4-0.7-1.2-0.7v-0.3h1.3C182.3,49.8,182.6,49.8,183,49.7L183,49.7z M49.6,10.5c0,0.9,0,1.7,0.1,2.3h-0.6
					c-0.5-4-0.8-5.3-4.3-5.3h-1.5v16.1c0,2.2,0.5,2.6,2.9,2.7v0.5c-1-0.1-2.6-0.1-4.1-0.1c-1.7,0-3.3,0-4.2,0.1v-0.5
					c2.4-0.1,2.9-0.4,2.9-2.7V7.5h-1.5c-3.5,0-4,1.3-4.3,5.3H34c0.1-0.6,0.1-1.4,0.1-2.3c0-0.7-0.1-2.2-0.2-3.6
					C36.2,7,39.5,7,41.9,7c2.3,0,5.7,0,7.9-0.1C49.6,8.3,49.6,9.8,49.6,10.5z M54.8,15.3c0.6-2.1,2.6-3.4,4.8-3.4
					c1.1-0.1,2.2,0.3,3,1.1c0.7,0.8,1,1.8,1,3.7v7.6c0,1.6,0.6,2.1,2.2,2.1V27c-0.6,0-2.2-0.1-3.4-0.1S59.7,27,59.2,27v-0.6
					c1.3,0,1.9-0.4,1.9-2.1v-8.2c0-1.8-0.3-3.2-2.2-3.2c-2.3,0-4,2.2-4,5.1v6.3c0,1.6,0.5,2.1,1.9,2.1V27c-0.6,0-1.9-0.1-3.1-0.1
					c-1.3,0-2.7,0.1-3.4,0.1v-0.6c1.5,0,2.2-0.4,2.2-2.1V8.1c0-1.7-0.5-2.5-2.2-2.5V5.1c0.6,0.1,1.2,0.1,1.8,0.1c1,0,2-0.1,3-0.4
					L54.8,15.3z M78.1,23.5c-0.7,2.2-2.9,3.8-5.3,3.8c-4.1,0-6.5-3-6.5-7.4c0-5,2.5-8,6.4-8c3.3,0,5.3,2,5.3,6.2h-8.8
					c-0.1,0.6-0.1,1.2-0.1,1.8c0,3.9,2.2,6.1,4.3,6.1c1.9,0.1,3.5-1.1,4.1-2.8L78.1,23.5z M69.1,17.7h6.2c0.1-2.8-0.8-5.1-2.7-5.1
					C70.9,12.5,69.4,14.1,69.1,17.7z M104.8,25.5c-0.8,1.2-1.5,1.8-3.1,1.8c-1.5,0-2.4-0.6-3-3.1l-0.6-2.8c-0.5-2.4-1-4.1-3.2-4.1
					h-2.7V24c0,2.1,0.4,2.3,2.3,2.4V27c-0.9-0.1-2.3-0.1-3.6-0.1c-1.4,0-2.9,0-3.6,0.1v-0.5c1.9-0.1,2.3-0.4,2.3-2.4V9.9
					c0-2.1-0.4-2.3-2.3-2.4V6.9C88.1,7,89.6,7,90.7,7c1.8,0,3.6-0.1,4.3-0.1c4.6,0,6.8,2.2,6.8,5c0,2-1.3,4.8-5.5,5.5l0.4,0.1
					c2.5,0.5,3.4,1.4,4,3.7l0.7,2.9c0.4,1.6,0.6,2.3,1.4,2.3c0.8,0,1-0.4,1.5-1.1L104.8,25.5z M92.2,9.9v7h1.9c4,0,4.9-2.1,4.9-4.7
					c0-3-1.3-4.7-4.7-4.7C92.5,7.4,92.2,8,92.2,9.9L92.2,9.9z M117,23.5c-0.7,2.2-2.9,3.8-5.3,3.8c-4.1,0-6.5-3-6.5-7.4
					c0-5,2.5-8,6.4-8c3.3,0,5.3,2,5.3,6.2h-8.8c-0.1,0.6-0.1,1.2-0.1,1.8c0,3.9,2.2,6.1,4.3,6.1c1.9,0.1,3.5-1.1,4.1-2.8L117,23.5z
					 M108,17.7h6.1c0.1-2.8-0.8-5.1-2.7-5.1C109.8,12.5,108.4,14.1,108,17.7L108,17.7z M131.2,23.9c0,1.7,0.5,2.5,2.2,2.5V27
					c-0.5-0.1-1.2-0.1-1.7-0.1c-1,0-2,0.1-3,0.4v-2.5c-0.6,1.6-2.2,2.7-4,2.6c-3.5,0-5.8-2.5-5.8-7.6s3-7.7,6.4-7.7
					c1.3-0.1,2.6,0.5,3.4,1.7V8.1c0-1.7-0.5-2.5-2.2-2.5V5.1c0.6,0.1,1.2,0.1,1.8,0.1c1,0,2-0.1,3-0.4L131.2,23.9z M128.6,23.2v-8.5
					c-0.4-1.4-1.7-2.2-3.1-2.2c-2.2,0-3.9,2.2-3.9,7c0,4.6,1.3,6.8,3.9,6.8C126.9,26.5,128.3,25.3,128.6,23.2z M151.4,7.6
					c0.3,0.3,0.6,0.4,1,0.4s0.5-0.4,0.6-1.3h0.7c-0.1,1-0.1,2.2-0.1,5.8H153c-0.2-2.7-1.5-5.4-4.7-5.4c-1.8-0.1-3.3,1.3-3.4,3
					c0,0.1,0,0.2,0,0.3c0,2.6,2.2,3.6,4.8,5.2c3,1.8,5.1,3.3,5.1,6.4c0,3.6-2.7,5.4-6,5.4c-1.4,0.1-2.7-0.3-3.9-1.1
					c-0.3-0.2-0.6-0.4-1-0.4c-0.4,0-0.5,0.4-0.6,1.3h-0.6c0.1-1.2,0.1-2.8,0.1-6.8h0.6c0.3,3.4,1.5,6.4,5.1,6.4
					c1.9,0.1,3.6-1.4,3.7-3.3c0-0.2,0-0.4,0-0.4c0-2.2-1.8-3.6-4.4-5.2c-2.6-1.6-5-3.2-5-6.3c0-3.3,2.5-4.9,5.3-4.9
					C149.1,6.5,150.4,6.9,151.4,7.6L151.4,7.6z M168.4,23.5c-0.7,2.2-2.9,3.8-5.3,3.8c-4.1,0-6.5-3-6.5-7.4c0-5,2.5-8,6.4-8
					c3.3,0,5.3,2,5.3,6.2h-8.8c-0.1,0.6-0.1,1.2-0.1,1.8c0,3.9,2.2,6.1,4.3,6.1c1.9,0.1,3.5-1.1,4.1-2.8L168.4,23.5z M159.4,17.7
					h6.2c0.1-2.8-0.8-5.1-2.7-5.1C161.2,12.5,159.7,14.1,159.4,17.7L159.4,17.7z M179.6,13c0.9,0.9,1.2,2,1.2,4v7.9
					c0,0.9,0.2,1.4,0.9,1.4c0.5,0,0.9-0.3,1.3-0.6l0.4,0.5c-0.7,0.6-1.6,1-2.6,1c-2,0-2.4-1.2-2.4-2.5c-0.9,1.5-2.5,2.5-4.3,2.5
					c-1.9,0-3.6-1-3.6-3.1s1.7-3.2,4.6-4.4c1.9-0.8,3.4-1.3,3.4-2.4v-1.8c0-2.3-1.2-2.9-2.6-2.9c-1.1-0.1-2.1,0.3-2.8,1
					c0.8,0.2,1.4,0.9,1.4,1.7c0,0.8-0.6,1.5-1.4,1.5c-0.1,0-0.2,0-0.3,0c-0.9,0-1.5-0.7-1.5-1.5c0-0.1,0-0.1,0-0.2
					c0.1-0.9,0.5-1.6,1.3-2.1c1.2-0.7,2.6-1.1,4-1.1C177.4,11.8,178.6,12.3,179.6,13L179.6,13z M178.1,18.3
					c-0.3,0.5-0.9,0.7-2.7,1.6c-1.3,0.6-2.8,1.4-2.8,3.6c0,1.7,1,2.5,2.2,2.5c1.2,0,2.2-0.6,3.2-2.2V18.3z"/>
			</g>
		</g>
	</g>
</g>
</svg>
