<?xml version="1.0" encoding="UTF-8"?>
<svg width="128px" height="38px" viewBox="0 0 128 38" version="1.1" xmlns="http://www.w3.org/2000/svg" xmlns:xlink="http://www.w3.org/1999/xlink">
    <!-- Generator: Sketch 61 (89581) - https://sketch.com -->
    <title>logo-umbraco-partner</title>
    <desc>Created with Sketch.</desc>
    <defs>
        <polygon id="path-1" points="0 0.0361737913 37.1139718 0.0361737913 37.1139718 37.1501287 0 37.1501287"></polygon>
        <polygon id="path-3" points="0.0354883167 0.00679130501 9.22496798 0.00679130501 9.22496798 10.8639934 0.0354883167 10.8639934"></polygon>
        <polygon id="path-5" points="0 37.1518742 127.141198 37.1518742 127.141198 0.0379193332 0 0.0379193332"></polygon>
        <polygon id="path-7" points="0 37.1518742 127.141198 37.1518742 127.141198 0.0379193332 0 0.0379193332"></polygon>
        <polygon id="path-9" points="0 37.1518742 127.141198 37.1518742 127.141198 0.0379193332 0 0.0379193332"></polygon>
        <polygon id="path-11" points="0 37.1518742 127.141198 37.1518742 127.141198 0.0379193332 0 0.0379193332"></polygon>
        <polygon id="path-13" points="0 37.1518742 127.141198 37.1518742 127.141198 0.0379193332 0 0.0379193332"></polygon>
        <polygon id="path-15" points="0 37.1518742 127.141198 37.1518742 127.141198 0.0379193332 0 0.0379193332"></polygon>
        <polygon id="path-17" points="0 37.1518742 127.141198 37.1518742 127.141198 0.0379193332 0 0.0379193332"></polygon>
        <polygon id="path-19" points="0 37.1518742 127.141198 37.1518742 127.141198 0.0379193332 0 0.0379193332"></polygon>
        <polygon id="path-21" points="0 37.1518742 127.141198 37.1518742 127.141198 0.0379193332 0 0.0379193332"></polygon>
        <polygon id="path-23" points="0 37.1518742 127.141198 37.1518742 127.141198 0.0379193332 0 0.0379193332"></polygon>
        <polygon id="path-25" points="0 37.1518742 127.141198 37.1518742 127.141198 0.0379193332 0 0.0379193332"></polygon>
        <polygon id="path-27" points="0 37.1518742 127.141198 37.1518742 127.141198 0.0379193332 0 0.0379193332"></polygon>
    </defs>
    <g id="Page-1" stroke="none" stroke-width="1" fill="none" fill-rule="evenodd">
        <g id="logo-umbraco-partner" transform="translate(-30.000000, -55.000000)">
            <g transform="translate(30.332324, 55.360883)">
                <g id="Group-3">
                    <g id="Fill-1-Clipped">
                        <g>
                            <mask id="mask-2" fill="white">
                                <use xlink:href="#path-1"></use>
                            </mask>
                            <g id="path-1"></g>
                            <path d="M18.1810266,24.9236167 C16.7414932,24.9658684 15.3016623,24.8367329 13.8924788,24.5391857 C12.8528488,24.3273321 11.9798454,23.6257158 11.5495921,22.6554144 C11.1300506,21.6877909 10.9271234,20.1952941 10.9408105,18.1782217 C10.9485468,17.1243095 11.0146022,16.0715875 11.1386794,15.0248164 C11.2594836,14.0054197 11.3802878,13.1651464 11.5010919,12.5048892 L11.6281446,11.847905 C11.6296323,11.8285644 11.6296323,11.8092238 11.6281446,11.7898833 C11.6275495,11.6068918 11.4969263,11.4503819 11.3169102,11.4167591 L8.92314298,11.04423 L8.87107222,11.04423 C8.69700711,11.0457177 8.54615068,11.1656293 8.50508916,11.3346361 C8.46402765,11.4869802 8.44052142,11.602131 8.36881254,11.9672214 C8.23194083,12.6721107 8.10548327,13.3594448 7.96474345,14.3618813 C7.81716004,15.4506065 7.72730078,16.5464728 7.69516568,17.6447195 C7.64279738,18.4097134 7.64279738,19.1773852 7.69516568,19.9426766 C7.75169965,21.9725436 8.10012742,23.5947709 8.74104409,24.8093586 C9.38196076,26.0242438 10.4674129,26.8975448 11.9974006,27.4295592 C13.5270908,27.9627638 15.6584214,28.2240102 18.3910949,28.2127034 L18.7350594,28.2127034 C21.4707084,28.2237127 23.602039,27.9627638 25.1287537,27.4295592 C26.6554684,26.8960571 27.7409205,26.022756 28.3848127,24.8093586 C29.0260269,23.5947709 29.3747522,21.9725436 29.4315837,19.9426766 C29.4833569,19.1773852 29.4833569,18.4097134 29.4315837,17.6447195 C29.3994486,16.5464728 29.3092918,15.4506065 29.1614109,14.3618813 C29.0212661,13.3725368 28.8942135,12.6872856 28.7579369,11.9672214 C28.6820623,11.602131 28.6621267,11.4887655 28.6210652,11.3346361 C28.5814914,11.1647366 28.4297423,11.04423 28.2547846,11.04423 L28.1931923,11.04423 L25.7994251,11.4167591 C25.6173262,11.4471089 25.484025,11.6051065 25.4849177,11.7898833 C25.4834299,11.8092238 25.4834299,11.8285644 25.4849177,11.847905 L25.6113752,12.5048892 C25.7321794,13.1672293 25.8541737,14.007205 25.9776558,15.0248164 C26.0999477,16.0715875 26.1651106,17.1243095 26.1722517,18.1782217 C26.1924849,20.1920211 25.9895577,21.6827326 25.5634701,22.6515463 C25.1367874,23.6200624 24.2688423,24.3231664 23.2327829,24.5391857 C21.8247896,24.8376255 20.3861489,24.9670586 18.9475081,24.9259971 L18.1810266,24.9236167 Z M-7.75663252e-06,18.5697938 C0.0107116992,8.32048293 8.33221424,0.0230817145 18.5830128,0.0361274855 C28.8332163,0.0489683208 37.1276421,8.36838803 37.1140055,18.6176989 C37.1002677,28.8664146 28.7969156,37.1501287 18.5571262,37.1501287 C8.30275707,37.1447728 -0.0053558496,28.8268409 -7.75663252e-06,18.5724717 L-7.75663252e-06,18.5697938 Z" id="Fill-1" fill="#F37021" fill-rule="nonzero" mask="url(#mask-2)"></path>
                        </g>
                    </g>
                </g>
                <g id="Group-6" transform="translate(117.914323, 8.784076)">
                    <g id="Fill-4-Clipped">
                        <g>
                            <mask id="mask-4" fill="white">
                                <use xlink:href="#path-3"></use>
                            </mask>
                            <g id="path-3"></g>
                            <path d="M6.88140913,5.43613689 C6.88140913,3.21716624 6.59424254,1.95475628 4.63015383,1.95475628 C2.66576785,1.95475628 2.37295305,3.22014432 2.37295305,5.43613689 C2.37295305,7.65183165 2.66428148,8.91721969 4.63015383,8.91721969 C6.59602618,8.91721969 6.88140913,7.64766233 6.88140913,5.43613689 M0.0354883167,5.43613689 C0.0354883167,2.24511951 0.942173734,0.00679130501 4.63015383,0.00679130501 C8.3184312,0.00679130501 9.22511662,2.24511951 9.22511662,5.43613689 C9.22511662,8.62685647 8.3184312,10.8639934 4.63461294,10.8639934 C0.951091952,10.8639934 0.0354883167,8.62834551 0.0354883167,5.43613689" id="Fill-4" fill="#F37021" fill-rule="nonzero" mask="url(#mask-4)"></path>
                        </g>
                    </g>
                </g>
                <path d="M54.2582773,19.2410459 C54.3131325,19.3360476 54.4150917,19.3941207 54.5251003,19.3926316 L55.3872812,19.3926316 C55.55453,19.3926316 55.6901774,19.2571277 55.6901774,19.089758 L55.6901774,9.34627986 C55.6901774,9.17920797 55.55453,9.04370402 55.3872812,9.04370402 L53.6703725,9.04370402 C53.5031237,9.04370402 53.3674762,9.17920797 53.3674762,9.34627986 L53.3674762,17.0795346 C52.6349802,17.4928961 51.8049969,17.7019593 50.964281,17.6849841 C49.865686,17.6849841 49.3275682,17.2084867 49.3275682,16.1518538 L49.3275682,9.34627986 C49.3275682,9.17920797 49.1919208,9.04370402 49.024672,9.04370402 L47.2958382,9.04370402 C47.1282913,9.04370402 46.9926439,9.17920797 46.9926439,9.34627986 L46.9926439,16.3531739 C46.9926439,18.3419549 47.926077,19.6451752 50.5594256,19.6451752 C51.762663,19.632965 52.9342989,19.2583189 53.9205003,18.5691846 L54.2233965,19.2547452 L54.2582773,19.2410459 Z" id="Fill-7" fill="#F37021" fill-rule="nonzero"></path>
                <path d="M73.5612289,12.0774106 C73.5612289,10.1109343 72.589933,8.78407616 70.1382134,8.78407616 C68.9570843,8.78735015 67.8041905,9.14510776 66.8284364,9.81121553 C66.3948009,9.17129966 65.5655734,8.78407616 64.1802582,8.78407616 C63.0538165,8.8063988 61.9633377,9.18231217 61.0621843,9.85973008 L60.7602148,9.17427602 C60.7052301,9.07903273 60.6026912,9.02069621 60.492722,9.02307729 L59.6272344,9.02307729 C59.4602,9.02307729 59.3249675,9.15850135 59.3249675,9.32577238 L59.3249675,19.0676729 C59.3249675,19.2349439 59.4602,19.370368 59.6272344,19.370368 L61.3385935,19.370368 C61.5056279,19.370368 61.6408603,19.2349439 61.6408603,19.0676729 L61.6408603,11.3526687 C62.2947315,10.9556232 63.0451973,10.7463856 63.8099293,10.7475761 C64.7422902,10.7475761 65.2784645,11.0910473 65.2784645,12.0741366 L65.2784645,19.0828523 C65.2784645,19.2501233 65.413697,19.3855474 65.5804341,19.3855474 L67.2920905,19.3855474 C67.4588276,19.3855474 67.5940601,19.2501233 67.5940601,19.0828523 L67.5940601,11.3526687 C68.2464452,10.9478847 69.0007747,10.7380518 69.7678845,10.7475761 C70.6743877,10.7475761 71.2364197,11.0910473 71.2364197,12.0741366 L71.2364197,19.0771972 C71.2364197,19.243873 71.3716521,19.379297 71.5383893,19.379297 L73.2500457,19.379297 C73.4167828,19.379297 73.5520153,19.243873 73.5520153,19.0771972 L73.5612289,12.0774106 Z" id="Fill-9" fill="#F37021" fill-rule="nonzero"></path>
                <path d="M81.6743957,17.682037 C80.8879983,17.682333 80.1159045,17.4741514 79.4373797,17.0785766 L79.4373797,11.3774889 C80.1159045,10.9816172 80.8879983,10.7731386 81.6743957,10.7734346 C83.7052023,10.7734346 84.0189865,12.323661 84.0189865,14.2255085 C84.0189865,16.1276529 83.7159299,17.6760965 81.6773756,17.6760965 L81.6743957,17.682037 Z M78.8571918,18.5711883 C79.8298334,19.2895782 81.0137504,19.6673343 82.2241886,19.64417 C85.2532639,19.64417 86.369537,17.6202646 86.369537,14.231745 C86.369537,10.8429285 85.2428342,8.8113016 82.2241886,8.8113016 C81.2399253,8.81575627 80.2771174,9.0955096 79.4448294,9.61878493 L79.4448294,6.49873351 C79.4498953,6.33212882 79.3184814,6.19284612 79.1513086,6.18809447 C79.1480307,6.18779749 79.1450508,6.18779749 79.1417729,6.18779749 L77.412235,6.18779749 C77.2450622,6.18779749 77.1094764,6.3229225 77.1094764,6.48952719 L77.1094764,19.0903059 C77.1094764,19.2572076 77.2450622,19.3923326 77.412235,19.3923326 L78.274024,19.3923326 C78.3839826,19.3941145 78.4858954,19.3359068 78.5407257,19.2414678 L78.8571918,18.5711883 Z" id="Fill-11" fill="#F37021" fill-rule="nonzero"></path>
                <path d="M94.9178152,10.8458331 C94.6511327,10.809902 94.3820691,10.7926788 94.1130056,10.7944605 C93.188546,10.755263 92.270932,10.9693646 91.4595743,11.4133062 L91.4595743,19.0835483 C91.4595743,19.2504347 91.3241496,19.3855474 91.1568778,19.3855474 L89.4415974,19.3855474 C89.2746232,19.3855474 89.1389009,19.2504347 89.1389009,19.0835483 L89.1389009,9.36820532 C89.1389009,9.20161586 89.2746232,9.06650319 89.4415974,9.06650319 L90.3023628,9.06650319 C90.4124884,9.06442453 90.515173,9.12203301 90.5702358,9.21735425 L90.8726347,9.90093525 C91.8119762,9.18676831 92.9650208,8.8087498 94.1463409,8.82805161 C94.4183808,8.82775466 94.6901231,8.85061988 94.9585915,8.89605337 C95.1100885,8.89605337 95.2401558,9.15261896 95.2401558,9.31712976 L95.2401558,10.5548212 C95.2401558,10.7214106 95.1044334,10.8565233 94.9374592,10.8565233 L94.9133507,10.8565233" id="Fill-13" fill="#F37021" fill-rule="nonzero"></path>
                <path d="M103.61761,18.5708197 C102.726322,19.2707264 101.624495,19.6495204 100.490507,19.6451752 C97.8160472,19.6451752 96.9277369,17.9922223 96.9277369,16.3343295 C96.9277369,14.099326 98.3776809,13.1472864 100.7207,12.962944 L103.042278,12.7771149 L103.042278,12.2597667 C103.042278,11.2021763 102.544371,10.791271 101.011344,10.791271 C100.048586,10.791271 99.0926769,10.9512327 98.18233,11.2643175 C98.1507642,11.2684801 98.1186028,11.2684801 98.087037,11.2643175 C97.9199763,11.2643175 97.7844814,11.1290339 97.7844814,10.9619364 L97.7844814,9.59274773 C97.7809079,9.46311337 97.8607159,9.34596671 97.9825123,9.30107041 C99.0134645,8.954685 100.094446,8.779857 101.182276,8.78407616 C104.58007,8.78407616 105.365643,10.2727335 105.365643,12.4687873 L105.365643,19.0697336 C105.365643,19.2362365 105.230148,19.3715201 105.063087,19.3715201 L104.203365,19.3715201 C104.093182,19.3738987 103.990444,19.31592 103.935353,19.2207755 L103.61761,18.5708197 Z M100.874956,14.6190528 C99.8457901,14.7430379 99.2359143,15.132833 99.2359143,16.211831 C99.2359143,16.9991517 99.5777783,17.7427653 100.829691,17.7427653 C101.622709,17.7499011 102.398156,17.510256 103.048531,17.0565357 L103.048531,14.3802996 L100.874956,14.6190528 Z" id="Fill-15" fill="#F37021" fill-rule="nonzero"></path>
                <path d="M115.39898,17.2893655 C115.429659,17.2846008 115.460637,17.2846008 115.491615,17.2893655 C115.658418,17.2893655 115.794068,17.4248619 115.794068,17.5922223 L115.794068,18.9662447 C115.79603,19.0907227 115.721565,19.2035867 115.606292,19.250936 C114.750533,19.557664 113.846222,19.70537 112.937146,19.6869067 C109.26748,19.6869067 108.135006,17.4891855 108.135006,14.2575227 C108.135006,11.0261577 109.257055,8.82992544 112.937146,8.82992544 C113.839074,8.80610191 114.737427,8.94755416 115.58842,9.24773072 C115.706076,9.29388882 115.782924,9.40853959 115.780541,9.53539993 L115.780541,10.9079334 C115.780541,11.0752938 115.645014,11.2107901 115.477913,11.2107901 C115.44485,11.2137681 115.412085,11.2137681 115.379321,11.2107901 C114.631686,10.9752349 113.849797,10.8647533 113.06612,10.8838121 C111.055548,10.8838121 110.472631,12.2551544 110.472631,14.2622874 C110.472631,16.2691226 111.055548,17.638976 113.06612,17.638976 C113.850392,17.6535679 114.631388,17.5380237 115.377831,17.2968104" id="Fill-17" fill="#F37021" fill-rule="nonzero"></path>
                <path d="M51.0601471,30.4179892 C50.7920458,30.5586812 50.4363707,30.6793596 49.95337,30.6793596 C49.1681948,30.6793596 48.6920684,30.4114177 48.3163679,30.0556553 C47.7998918,29.5597984 47.5984422,29.0033036 47.5984422,28.3458452 C47.5984422,27.5348504 47.9340919,26.9517705 48.3163679,26.5963069 C48.7658934,26.1739324 49.3227192,26.006058 49.9599455,26.006058 C50.2752708,26.006058 50.6509713,26.0598256 51.0601471,26.2808702 L51.0601471,27.3000652 C50.6509713,26.8307934 50.1410708,26.797338 49.9802697,26.797338 C49.0812188,26.797338 48.4974932,27.5348504 48.4974932,28.3592871 C48.4974932,29.351897 49.2623441,29.8883783 50.013745,29.8883783 C50.4294963,29.8883783 50.7986213,29.7070619 51.0601471,29.3987943 L51.0601471,30.4179892 Z" id="Fill-19" fill="#000000" fill-rule="nonzero"></path>
                <polygon id="Fill-21" fill="#000000" fill-rule="nonzero" points="55.6469061 26.8410316 54.0470451 26.8410316 54.0470451 27.8368556 55.5800844 27.8368556 55.5800844 28.5849888 54.0470451 28.5849888 54.0470451 29.8011147 55.6469061 29.8011147 55.6469061 30.5495457 53.1804414 30.5495457 53.1804414 26.0926006 55.6469061 26.0926006"></polygon>
                <path d="M58.6786351,28.1440874 L58.9255767,28.1440874 C59.0927829,28.1440874 59.7803517,28.1241411 59.7803517,27.4688919 C59.7803517,26.8076886 59.0993284,26.8008414 58.9389651,26.8008414 L58.6786351,26.8008414 L58.6786351,28.1440874 Z M59.0993284,26.0926006 C59.7137072,26.0926006 60.0275908,26.252766 60.2343672,26.4266259 C60.5753252,26.7139114 60.6752919,27.0949741 60.6752919,27.4292971 C60.6752919,27.863649 60.5015402,28.244414 60.1543343,28.4781126 C60.0409792,28.5584931 59.8806159,28.6320262 59.6669966,28.6719187 L61.05582,30.5495457 L59.9740372,30.5495457 L58.7854447,28.758551 L58.6786351,28.758551 L58.6786351,30.5495457 L57.8104717,30.5495457 L57.8104717,26.0926006 L59.0993284,26.0926006 Z" id="Fill-23" fill="#000000" fill-rule="nonzero"></path>
                <polygon id="Fill-25" fill="#000000" fill-rule="nonzero" points="64.3866978 26.8410316 64.3866978 30.5495457 63.5232979 30.5495457 63.5232979 26.8410316 62.5270446 26.8410316 62.5270446 26.0926006 65.3829511 26.0926006 65.3829511 26.8410316"></polygon>
                <g id="Fill-27-Clipped">
                    <g>
                        <mask id="mask-6" fill="white">
                            <use xlink:href="#path-5"></use>
                        </mask>
                        <g id="path-5"></g>
                        <polygon id="Fill-27" fill="#000000" fill-rule="nonzero" mask="url(#mask-6)" points="67.2803457 30.5731056 68.1485368 30.5731056 68.1485368 26.1185265 67.2803457 26.1185265"></polygon>
                    </g>
                </g>
                <g id="Fill-29-Clipped">
                    <g>
                        <mask id="mask-8" fill="white">
                            <use xlink:href="#path-7"></use>
                        </mask>
                        <g id="path-7"></g>
                        <polygon id="Fill-29" fill="#000000" fill-rule="nonzero" mask="url(#mask-8)" points="72.8636356 26.8666792 71.3676572 26.8666792 71.3676572 27.8619746 72.7702113 27.8619746 72.7702113 28.6097107 71.3676572 28.6097107 71.3676572 30.5732246 70.4994662 30.5732246 70.4994662 26.1186455 72.8636356 26.1186455"></polygon>
                    </g>
                </g>
                <g id="Fill-30-Clipped">
                    <g>
                        <mask id="mask-10" fill="white">
                            <use xlink:href="#path-9"></use>
                        </mask>
                        <g id="path-9"></g>
                        <polygon id="Fill-30" fill="#000000" fill-rule="nonzero" mask="url(#mask-10)" points="74.9473834 30.5731056 75.8155745 30.5731056 75.8155745 26.1185265 74.9473834 26.1185265"></polygon>
                    </g>
                </g>
                <g id="Fill-31-Clipped">
                    <g>
                        <mask id="mask-12" fill="white">
                            <use xlink:href="#path-11"></use>
                        </mask>
                        <g id="path-11"></g>
                        <polygon id="Fill-31" fill="#000000" fill-rule="nonzero" mask="url(#mask-12)" points="80.6374566 26.8666792 79.0346652 26.8666792 79.0346652 27.8619746 80.5705124 27.8619746 80.5705124 28.6097107 79.0346652 28.6097107 79.0346652 29.825191 80.6374566 29.825191 80.6374566 30.5732246 78.1664741 30.5732246 78.1664741 26.1186455 80.6374566 26.1186455"></polygon>
                    </g>
                </g>
                <g id="Fill-32-Clipped">
                    <g>
                        <mask id="mask-14" fill="white">
                            <use xlink:href="#path-13"></use>
                        </mask>
                        <g id="path-13"></g>
                        <path d="M83.6830876,29.82531 L83.9499715,29.82531 C84.1704409,29.82531 84.6512485,29.8119204 85.038632,29.5316309 C85.3926921,29.2775256 85.5929294,28.8234686 85.5929294,28.3491783 C85.5929294,27.8820292 85.3995352,27.4276747 85.0454751,27.1604773 C84.6848694,26.8932799 84.2439307,26.8667982 83.9499715,26.8667982 L83.6830876,26.8667982 L83.6830876,29.82531 Z M83.9767492,26.1187645 C84.5979908,26.1187645 85.1388994,26.1857127 85.6330959,26.5528859 C86.1740045,26.960228 86.4878981,27.6079883 86.4878981,28.3491783 C86.4878981,29.090666 86.1808477,29.7318802 85.5929294,30.1457683 C85.0719553,30.5132391 84.5846019,30.5733437 83.9633603,30.5733437 L82.8148965,30.5733437 L82.8148965,26.1187645 L83.9767492,26.1187645 Z" id="Fill-32" fill="#000000" fill-rule="nonzero" mask="url(#mask-14)"></path>
                    </g>
                </g>
                <g id="Fill-33-Clipped">
                    <g>
                        <mask id="mask-16" fill="white">
                            <use xlink:href="#path-15"></use>
                        </mask>
                        <g id="path-15"></g>
                        <path d="M92.3853791,28.1757083 L92.7391417,28.1757083 C92.9060557,28.1757083 93.1199795,28.1757083 93.306828,28.0352661 C93.4671964,27.9085109 93.5472318,27.7082617 93.5472318,27.5142609 C93.5472318,27.2672967 93.4270299,27.1003727 93.3002823,27.0069429 C93.1199795,26.8801878 92.8929644,26.8667982 92.6858839,26.8667982 L92.3853791,26.8667982 L92.3853791,28.1757083 Z M92.812929,26.1187645 C93.3136712,26.1187645 93.6608881,26.172323 93.9881705,26.4591585 C94.3487763,26.7799144 94.4422006,27.2140358 94.4422006,27.5344941 C94.4422006,27.7082617 94.4154229,28.189098 94.0750491,28.5294919 C93.8278021,28.7767537 93.4606507,28.923742 92.9462222,28.923742 L92.3853791,28.923742 L92.3853791,30.5733437 L91.517188,30.5733437 L91.517188,26.1187645 L92.812929,26.1187645 Z" id="Fill-33" fill="#000000" fill-rule="nonzero" mask="url(#mask-16)"></path>
                    </g>
                </g>
                <g id="Fill-34-Clipped">
                    <g>
                        <mask id="mask-18" fill="white">
                            <use xlink:href="#path-17"></use>
                        </mask>
                        <g id="path-17"></g>
                        <path d="M98.4026455,28.9303475 L97.7683126,27.3274608 L97.1336822,28.9303475 L98.4026455,28.9303475 Z M98.6564381,29.6382123 L96.859955,29.6382123 L96.466026,30.5731056 L95.5243451,30.5731056 L97.4410301,26.118824 L98.1223727,26.118824 L99.9855024,30.5731056 L99.0503672,30.5731056 L98.6564381,29.6382123 Z" id="Fill-34" fill="#000000" fill-rule="nonzero" mask="url(#mask-18)"></path>
                    </g>
                </g>
                <g id="Fill-35-Clipped">
                    <g>
                        <mask id="mask-20" fill="white">
                            <use xlink:href="#path-19"></use>
                        </mask>
                        <g id="path-19"></g>
                        <path d="M102.710724,28.1690433 L102.957673,28.1690433 C103.124885,28.1690433 103.812476,28.1491076 103.812476,27.4942062 C103.812476,26.8333539 103.131431,26.8265103 102.971062,26.8265103 L102.710724,26.8265103 L102.710724,28.1690433 Z M103.131431,26.1186455 C103.745829,26.1186455 104.059723,26.2787259 104.266506,26.4524935 C104.607177,26.7396265 104.707444,27.1204869 104.707444,27.4546324 C104.707444,27.8887538 104.533985,28.2693167 104.18647,28.5028912 C104.073111,28.583229 103.912743,28.6567231 103.698819,28.6965945 L105.087985,30.5732246 L104.006167,30.5732246 L102.817537,28.7831807 L102.710724,28.7831807 L102.710724,30.5732246 L101.842533,30.5732246 L101.842533,26.1186455 L103.131431,26.1186455 Z" id="Fill-35" fill="#000000" fill-rule="nonzero" mask="url(#mask-20)"></path>
                    </g>
                </g>
                <g id="Fill-36-Clipped">
                    <g>
                        <mask id="mask-22" fill="white">
                            <use xlink:href="#path-21"></use>
                        </mask>
                        <g id="path-21"></g>
                        <polygon id="Fill-36" fill="#000000" fill-rule="nonzero" mask="url(#mask-22)" points="108.414335 26.8666792 108.414335 30.5732246 107.546144 30.5732246 107.546144 26.8666792 106.544362 26.8666792 106.544362 26.1186455 109.415819 26.1186455 109.415819 26.8666792"></polygon>
                    </g>
                </g>
                <g id="Fill-37-Clipped">
                    <g>
                        <mask id="mask-24" fill="white">
                            <use xlink:href="#path-23"></use>
                        </mask>
                        <g id="path-23"></g>
                        <polygon id="Fill-37" fill="#000000" fill-rule="nonzero" mask="url(#mask-24)" points="111.29927 30.5732246 111.29927 26.1186455 111.900279 26.1186455 114.611666 29.0908445 114.611666 26.1186455 115.479857 26.1186455 115.479857 30.5732246 114.87855 30.5732246 112.167461 27.5944796 112.167461 30.5732246"></polygon>
                    </g>
                </g>
                <g id="Fill-38-Clipped">
                    <g>
                        <mask id="mask-26" fill="white">
                            <use xlink:href="#path-25"></use>
                        </mask>
                        <g id="path-25"></g>
                        <polygon id="Fill-38" fill="#000000" fill-rule="nonzero" mask="url(#mask-26)" points="120.302156 26.8666792 118.699364 26.8666792 118.699364 27.8619746 120.235211 27.8619746 120.235211 28.6097107 118.699364 28.6097107 118.699364 29.825191 120.302156 29.825191 120.302156 30.5732246 117.831173 30.5732246 117.831173 26.1186455 120.302156 26.1186455"></polygon>
                    </g>
                </g>
                <g id="Fill-39-Clipped">
                    <g>
                        <mask id="mask-28" fill="white">
                            <use xlink:href="#path-27"></use>
                        </mask>
                        <g id="path-27"></g>
                        <path d="M123.347757,28.1690433 L123.594706,28.1690433 C123.761918,28.1690433 124.449508,28.1491076 124.449508,27.4942062 C124.449508,26.8333539 123.768463,26.8265103 123.608095,26.8265103 L123.347757,26.8265103 L123.347757,28.1690433 Z M123.768463,26.1186455 C124.382862,26.1186455 124.696755,26.2787259 124.903538,26.4524935 C125.24421,26.7396265 125.344477,27.1204869 125.344477,27.4546324 C125.344477,27.8887538 125.171018,28.2693167 124.823503,28.5028912 C124.710144,28.583229 124.549776,28.6567231 124.335852,28.6965945 L125.725017,30.5732246 L124.6432,30.5732246 L123.45457,28.7831807 L123.347757,28.7831807 L123.347757,30.5732246 L122.479566,30.5732246 L122.479566,26.1186455 L123.768463,26.1186455 Z" id="Fill-39" fill="#000000" fill-rule="nonzero" mask="url(#mask-28)"></path>
                    </g>
                </g>
            </g>
        </g>
    </g>
</svg>