<?xml version="1.0" encoding="UTF-8"?>
<svg width="120px" height="32px" viewBox="0 0 120 32" version="1.1" xmlns="http://www.w3.org/2000/svg" xmlns:xlink="http://www.w3.org/1999/xlink">
    <!-- Generator: Sketch 61 (89581) - https://sketch.com -->
    <title>logo-microsoft-partner</title>
    <desc>Created with Sketch.</desc>
    <g id="Page-1" stroke="none" stroke-width="1" fill="none" fill-rule="evenodd">
        <g id="logo-microsoft-partner" fill-rule="nonzero">
            <g id="Group" transform="translate(0.346170, 0.360883)">
                <path d="M110.304703,0.11056568 C111.091667,-0.0541988627 111.917392,-0.0348147989 112.684733,0.168717871 C112.713876,0.856852138 112.684733,1.5449864 112.704161,2.23312067 C112.218441,2.04906898 111.693863,1.90368851 111.179,2.029588 C110.69328,2.11671937 110.304703,2.49480553 110.158987,2.96002306 C109.94527,3.62877327 110.071655,4.34598363 110.0327,5.04380993 C111.227572,5.06319399 112.412729,5.05350196 113.607601,5.05350196 C113.617413,4.28783144 113.588172,3.52206399 113.617413,2.75649039 C114.423611,2.5528608 115.210478,2.26209985 116.016774,2.0586641 C116.007059,3.05694338 116.007059,4.05522267 116.016774,5.05350196 C116.823166,5.06319399 117.639079,5.04371301 118.445375,5.06319399 C118.435661,5.7028681 118.435661,6.35223424 118.445375,6.99190834 C117.648891,7.05006053 116.852213,6.99190834 116.055631,7.02098444 L116.016774,7.0694446 C116.007059,8.62986174 116.016774,10.1805868 116.016774,11.741004 C116.026488,12.2740657 116.065346,12.923335 116.56078,13.2432689 C117.143645,13.6017772 117.882037,13.4468016 118.445375,13.1171756 C118.435661,13.7859258 118.445375,14.4547729 118.435661,15.1138311 C117.561364,15.4530522 116.570495,15.5401836 115.647626,15.3463429 C114.938475,15.1912704 114.277798,14.7357449 113.967034,14.0670916 C113.520171,13.1948088 113.617316,12.1964326 113.607601,11.2564024 C113.59779,9.84126881 113.62703,8.42632907 113.59779,7.01119549 C112.412729,7.03057955 111.227572,7.01119549 110.042317,7.02098444 C110.032603,9.6280441 110.032603,12.2352976 110.042317,14.8424542 C110.032603,14.9684506 110.022986,15.084755 110.013174,15.2009625 C109.206878,15.1912704 108.410297,15.1912704 107.604001,15.2009625 C107.574761,12.4679064 107.623333,9.73475337 107.574761,7.01119549 C107.021137,7.02098444 106.457605,7.02098444 105.903981,7.01119549 C105.894266,6.36192627 105.894266,5.70277118 105.903981,5.05350196 L107.594287,5.05350196 C107.623333,4.18121909 107.506857,3.2797632 107.778764,2.43665334 C108.118962,1.28330154 109.129163,0.372153621 110.304703,0.11056568 Z" id="Path" stroke="#737373" stroke-width="0.5" fill="#737373"></path>
                <path d="M56.8997334,0.831049049 C57.73786,0.503442997 58.8098824,1.05266491 58.8877503,1.96803476 C59.024092,2.77741441 58.2835194,3.51934577 57.4746298,3.50007482 C56.7144685,3.56742677 55.9348158,2.93158197 55.9640528,2.15110873 C55.9251676,1.56334493 56.3538791,1.02375849 56.8997334,0.831049049 Z" id="Path" stroke="#737373" stroke-width="0.5" fill="#737373"></path>
                <path d="M0.00845476362,1.3646656 C0.00845476362,1.22093462 0.00845476362,1.06874887 0.0169095272,0.916478577 C4.70930334,0.925017888 9.40169715,0.916478577 14.094091,0.925017888 L14.094091,15.0021993 C9.40169715,15.0191088 4.70930334,15.0021993 0.0169095272,15.0106541 C-0.00845476362,10.4619913 0.0169095272,5.91332843 0.00845476362,1.3646656 Z" id="Path" stroke="#F25022" stroke-width="0.5" fill="#F25022"></path>
                <path d="M15.5483103,0.950382179 C15.6497675,0.925017888 15.7512246,0.916563125 15.8611366,0.916563125 C20.4520732,0.925102436 25.0514646,0.916563125 29.6424013,0.925102436 L29.6424013,15.0022839 C24.9500074,15.0191934 20.2576136,15.0022839 15.5652198,15.0107386 C15.5314008,10.326715 15.5736746,5.63432123 15.5483103,0.950382179 Z" id="Path" stroke="#7FBA00" stroke-width="0.5" fill="#7FBA00"></path>
                <path d="M38.6230582,1.07732165 C39.8050686,1.05795387 40.9871759,1.03858608 42.1693801,1.08700554 C43.4966347,4.58289018 44.8823164,8.06909093 46.2194542,11.5649756 C46.6845456,10.5965865 47.0430536,9.57977792 47.459698,8.60170493 C48.4867748,6.08389328 49.523638,3.58535257 50.5410254,1.06754092 C51.6649963,1.04826997 52.7985597,1.05785703 53.9323169,1.06754092 C53.9420063,4.07932785 53.9323169,7.0909211 53.9323169,10.102708 C53.9128412,11.8070728 53.9709776,13.5113408 53.9128412,15.2061186 C53.1087175,15.1867508 52.3140895,15.2158025 51.5196552,15.1963378 L51.4712082,15.1479184 C51.4615188,11.4970915 51.4615188,7.83658071 51.4712082,4.18575381 C51.4130718,4.25354105 51.3646248,4.32132828 51.3355565,4.38921236 C49.9402823,7.91405184 48.5450081,11.4293043 47.1594233,14.9446535 C47.1012869,15.0317117 47.0915975,15.2253895 46.9462564,15.1964347 C46.432718,15.2061186 45.928869,15.1964347 45.4153306,15.2061186 C43.9425411,11.5940272 42.4793442,7.97234886 41.016341,4.36016069 L40.9001651,4.31174123 L40.9001651,15.1964347 C40.1442946,15.2061186 39.3885211,15.1867508 38.6328445,15.2061186 C38.6034856,10.4997476 38.6423401,5.78369266 38.6230582,1.07732165 L38.6230582,1.07732165 Z M63.3347163,5.19429549 C64.8615422,4.61350211 66.6395053,4.623182 68.1178237,5.32981395 C68.1178237,6.09442843 68.156475,6.8688196 68.1081608,7.623851 C67.6057896,7.30441464 67.0743332,6.98497828 66.4848032,6.8688196 C65.5185189,6.67522181 64.4362804,6.88817938 63.7019043,7.57545155 C63.083579,8.13698195 62.7647052,8.95977257 62.716391,9.78256319 C62.6390882,10.7311924 62.8032599,11.7862036 63.4700927,12.5121953 C64.1078404,13.2285071 65.1321018,13.499544 66.0693975,13.4125218 C66.8133398,13.3157229 67.4994983,12.957567 68.1275831,12.5413317 C68.1178237,13.2963631 68.1469088,14.0417146 68.1082574,14.7869693 C66.842425,15.4259389 65.3543472,15.5613605 63.9725606,15.2903236 C62.4748199,14.990247 61.1800955,13.8965163 60.600325,12.4831556 C60.1364119,11.3216656 60.126749,10.0245604 60.3779829,8.81457422 C60.7355081,7.23665541 61.7984209,5.77508887 63.3347163,5.19429549 Z M89.7464027,5.02608063 C91.0269421,4.60958784 92.4240971,4.75487602 93.68533,5.18115155 C93.7241372,5.93665011 93.6950318,6.70173769 93.7046366,7.46701898 C92.9673004,7.04084031 92.1523499,6.68246279 91.2791887,6.71152042 C90.8329063,6.7212063 90.338212,6.82775097 90.056763,7.20550025 C89.7464027,7.66073656 89.9306397,8.36780572 90.4255281,8.63901033 C91.356803,9.20069445 92.4822109,9.42346967 93.3262667,10.1595965 C94.5487895,11.1475561 94.568096,13.2009625 93.4619948,14.2858777 C92.8313783,14.9251458 91.9389105,15.2641515 91.0463457,15.3705993 C89.8530254,15.5256703 88.6306967,15.3221699 87.5051918,14.9056771 C87.4566829,14.1211209 87.4760864,13.3365648 87.495393,12.5520086 C88.5820907,13.2300201 89.9111391,13.7627434 91.2015744,13.3849942 C91.6768651,13.2784495 91.9194099,12.7457261 91.7933837,12.3002726 C91.6671634,11.7288057 91.0948547,11.4576011 90.6097651,11.2250431 C89.7560074,10.837608 88.8149337,10.517974 88.1552119,9.8205907 C87.5051918,9.14257918 87.3693667,8.11587601 87.5537008,7.23446103 C87.7864468,6.14964259 88.7277146,5.35540052 89.7464027,5.02608063 L89.7464027,5.02608063 Z M73.36636,5.31257721 C74.0758083,4.83682816 75.0283156,4.73973652 75.8347542,5.02130228 C75.8250358,5.80774459 75.8445699,6.60389607 75.8250358,7.40004754 C75.3002384,7.15731844 74.7268486,6.99226264 74.1535561,7.06993596 C73.3955154,7.1670276 72.7832518,7.77860786 72.54029,8.48747395 C72.229299,9.40003831 72.3264837,10.3904702 72.3071439,11.3418712 C72.2973283,12.63319 72.3362022,13.924606 72.2876098,15.2061186 C71.5004137,15.1769911 70.7035964,15.2255369 69.9065846,15.1769911 C69.9261187,11.7982019 69.8968661,8.41941271 69.9261187,5.04072061 L72.3071439,5.04072061 C72.3168624,5.56491839 72.2973283,6.08931036 72.3168624,6.61350814 C72.5888824,6.12804993 72.8804365,5.62327047 73.36636,5.31257721 Z M80.2806189,4.89642447 C81.8324052,4.68300194 83.5781649,4.88662644 84.790498,5.97323817 C85.9543377,6.99184573 86.4294753,8.59251474 86.3907776,10.1059715 C86.4197766,11.6096303 85.9155431,13.1908973 84.761305,14.2095048 C83.5198759,15.3542257 81.7062256,15.6161534 80.0866456,15.3930298 C78.7675302,15.2281124 77.5164995,14.5101396 76.7890996,13.3945218 C75.9647131,12.1527907 75.8482321,10.5715237 76.0519041,9.11637005 C76.2360817,7.76792767 76.9441813,6.46799041 78.0886237,5.70160949 C78.7384342,5.25536237 79.5047257,5.00313574 80.2806189,4.89642447 M80.4082656,6.91133257 C79.7808987,7.07611394 79.2500498,7.50270383 78.9412887,8.06480217 C78.5069578,8.83045397 78.4393952,9.75129105 78.4876542,10.6140669 C78.5359132,11.4088947 78.7869565,12.2521876 79.3948268,12.8046899 C80.0415938,13.3960611 80.9777218,13.5123774 81.8175248,13.3862712 C82.45464,13.279648 83.0529551,12.9016201 83.390768,12.3298287 C83.8541509,11.544597 83.9119652,10.5850848 83.873358,9.69332678 C83.825099,8.87911294 83.6031076,8.01643399 82.985489,7.4445457 C82.3098631,6.80470932 81.2769275,6.69798915 80.4082656,6.91133257 Z M99.5526095,4.89503751 C100.958254,4.71070747 102.499519,4.83673101 103.691893,5.66136536 C104.79702,6.42779024 105.456219,7.7084959 105.621019,9.02781385 C105.824595,10.6091715 105.621019,12.3361499 104.603138,13.6166615 C103.817916,14.6547306 102.577072,15.2659302 101.307145,15.4114539 C99.8142532,15.5861794 98.1953386,15.362946 97.0029643,14.392788 C95.9657926,13.5779522 95.3937438,12.2778434 95.2968028,10.9779286 C95.1610854,9.45478042 95.4228261,7.80551171 96.4213184,6.59281412 C97.1775551,5.63235764 98.3504442,5.0502628 99.5526095,4.89503751 M99.6801787,6.92035492 C99.1683041,7.05597571 98.7239517,7.36628462 98.4147405,7.79282607 C97.8737897,8.51988536 97.7482119,9.47950668 97.7771914,10.3617689 C97.7964145,11.1954636 97.9896112,12.0775319 98.5692012,12.6883586 C99.1102485,13.2700061 99.9409943,13.4735827 100.713781,13.425112 C101.418852,13.4057238 102.14334,13.105206 102.568373,12.5138644 C103.12874,11.7286404 103.205922,10.7107574 103.177039,9.78021841 C103.138399,8.92703856 102.916127,8.01588786 102.269014,7.42444936 C101.573603,6.79423437 100.549564,6.69729313 99.6801787,6.92035492 L99.6801787,6.92035492 Z M56.234301,5.08063178 C57.0448036,5.09030273 57.8455411,5.07086411 58.6560437,5.09030273 C58.6462786,8.45579404 58.6560437,11.8309563 58.6462786,15.1964476 C57.8455411,15.2061186 57.0448036,15.1867767 56.2538311,15.2061186 C56.2147708,11.8309563 56.2441637,8.45579404 56.234301,5.08063178 L56.234301,5.08063178 Z" id="Shape" stroke="#737373" stroke-width="0.5" fill="#737373"></path>
                <path d="M0,30.5251453 C0.0338190545,25.8412063 -0.0169095272,21.1488125 0.0253642909,16.4648734 C4.70930334,16.4733282 9.40169715,16.4564187 14.094091,16.4733282 L14.094091,30.5505096 C9.57924718,30.5590489 5.07285817,30.5505096 0.558014399,30.5590489 C0.372009599,30.5590489 0.1860048,30.5590489 0,30.5251453 L0,30.5251453 Z" id="Path" stroke="#00A4EF" stroke-width="0.5" fill="#00A4EF"></path>
                <path d="M15.5567651,17.5048094 C15.5567651,17.158164 15.5398555,16.8115187 15.5652198,16.4648734 C20.2576136,16.4733282 24.9500074,16.4564187 29.6424013,16.4733282 L29.6424013,30.5505096 C25.0514646,30.5590489 20.4520732,30.5505096 15.8611366,30.5590489 C15.7512246,30.5505096 15.6497675,30.5421394 15.5483103,30.5336846 C15.5652198,26.1878516 15.5483103,21.8505579 15.5567651,17.5048094 Z" id="Path" stroke="#FFB900" stroke-width="0.5" fill="#E4A600"></path>
                <path d="M43.4275135,30.8270619 C44.9360099,30.8270619 46.1898875,30.5375555 47.1891463,29.9585428 L47.1891463,29.9585428 L47.1891463,24.7833173 L42.7933685,24.7833173 L42.7933685,26.635201 L44.8615459,26.635201 L44.8615459,28.6449973 C44.5348652,28.8029099 44.0928853,28.8818662 43.5356064,28.8818662 C42.5939972,28.8818662 41.8541613,28.5911635 41.3160989,28.0097582 C40.7780365,27.4283528 40.5090053,26.6112749 40.5090053,25.5585245 C40.5090053,24.8838071 40.645923,24.2844572 40.9197583,23.7604746 C41.1935936,23.2364919 41.579125,22.8321401 42.0763523,22.5474189 C42.5735796,22.2626978 43.1416678,22.1203372 43.7806169,22.1203372 C44.9288037,22.1203372 45.9040418,22.3500282 46.7063313,22.8094102 L46.7063313,22.8094102 L46.7063313,20.6345235 C45.8608047,20.3330541 44.8951748,20.1823194 43.8094417,20.1823194 C42.6900797,20.1823194 41.692022,20.4108141 40.8152685,20.8678035 C39.938515,21.3247928 39.2599318,21.9719951 38.7795189,22.8094102 C38.2991061,23.6468254 38.0588996,24.599086 38.0588996,25.6661921 C38.0588996,27.2692439 38.5381115,28.5301518 39.4965352,29.4489159 C40.4549588,30.3676799 41.7652849,30.8270619 43.4275135,30.8270619 Z M51.9130613,30.8270619 C53.1490274,30.8270619 54.1275005,30.4720679 54.8484808,29.76208 C55.569461,29.0520921 55.9299511,28.089903 55.9299511,26.8755129 C55.9299511,25.7376197 55.5790421,24.8280224 54.8772242,24.1467208 C54.1754062,23.4654193 53.2208859,23.1247685 52.0136631,23.1247685 C50.7729065,23.1247685 49.7884451,23.4678098 49.060279,24.1538924 C48.3321129,24.8399751 47.9680299,25.7902114 47.9680299,27.0046016 C47.9680299,28.1950864 48.3225318,29.1297843 49.0315356,29.8086954 C49.7405394,30.4876064 50.701048,30.8270619 51.9130613,30.8270619 Z M51.9667643,29.0962094 C50.829861,29.0962094 50.2614094,28.3894447 50.2614094,26.9759152 C50.2614094,26.300296 50.4094934,25.7780089 50.7056615,25.4090537 C51.0018296,25.0400985 51.4174203,24.855621 51.9524336,24.855621 C53.0463447,24.855621 53.5933003,25.5432192 53.5933003,26.9184157 C53.5933003,28.3702782 53.0511217,29.0962094 51.9667643,29.0962094 Z M59.1320281,30.697248 L59.1320281,19.7928776 L56.8386487,19.7928776 L56.8386487,30.697248 L59.1320281,30.697248 Z M63.1100986,30.8703332 C64.1140093,30.8703332 64.8753483,30.4725704 65.3941155,29.6770447 L65.3941155,29.6770447 L65.4229359,29.6770447 L65.4229359,30.6906211 L67.6997478,30.6906211 L67.6997478,19.7928776 L65.4229359,19.7928776 L65.4229359,24.170665 L65.3941155,24.170665 C65.0194503,23.4901551 64.356581,23.1499001 63.4055077,23.1499001 C62.401597,23.1499001 61.5898223,23.517711 60.9701837,24.2533326 C60.350545,24.9889543 60.0407257,25.962994 60.0407257,27.1754518 C60.0407257,28.3112325 60.3169212,29.2109912 60.8693123,29.874728 C61.4217033,30.5384648 62.1686321,30.8703332 63.1100986,30.8703332 Z M63.9279318,29.0962094 C63.4327157,29.0962094 63.0504858,28.9201172 62.7812421,28.5679327 C62.5119983,28.2157483 62.3773765,27.7186171 62.3773765,27.0765393 C62.3773765,26.3865453 62.5192102,25.8438937 62.8028777,25.4485846 C63.0865452,25.0532755 63.4807949,24.855621 63.9856269,24.855621 C64.4279558,24.855621 64.7897521,25.0137446 65.0710156,25.3299919 C65.3522791,25.6462392 65.4929109,26.0439441 65.4929109,26.5231066 L65.4929109,26.5231066 L65.4929109,27.0765393 C65.4929109,27.6850758 65.3474712,28.1738216 65.0565918,28.5427767 C64.7657125,28.9117319 64.3894925,29.0962094 63.9279318,29.0962094 Z" id="GoldPartner" fill="#E4A600"></path>
                <path d="M74.520512,30.6539766 L74.520512,27.1062119 L75.6269033,27.1062119 C76.4267619,27.1062119 77.1404083,26.9613808 77.7678423,26.6717185 C78.3952763,26.3820562 78.8790231,25.9738957 79.2190828,25.4472369 C79.5591424,24.9205782 79.7291722,24.3173146 79.7291722,23.637446 C79.7291722,21.4494184 78.4311981,20.3554046 75.8352497,20.3554046 L75.8352497,20.3554046 L72.1999641,20.3554046 L72.1999641,30.6539766 L74.520512,30.6539766 Z M75.4501453,25.3748767 L74.5366149,25.3748767 L74.5366149,22.1727997 L75.4501453,22.1727997 C76.6873677,22.1727997 77.3059788,22.7005096 77.3059788,23.7559295 C77.3059788,24.8352276 76.6873677,25.3748767 75.4501453,25.3748767 L75.4501453,25.3748767 Z M81.8539428,30.8270619 C82.8209572,30.8270619 83.5510051,30.4158904 84.0440867,29.5935475 L84.0440867,29.5935475 L84.0728099,29.5935475 L84.0728099,30.647772 L86.2198689,30.647772 L86.2198689,26.2587557 C86.2198689,24.1694309 85.1714722,23.1247685 83.0746787,23.1247685 C82.6581924,23.1247685 82.1603236,23.1893129 81.5810725,23.3184016 C81.0018213,23.4474903 80.5685797,23.5885317 80.2813477,23.7415257 L80.2813477,23.7415257 L80.2813477,25.4483654 C81.0616613,24.9272295 81.894634,24.6666615 82.780266,24.6666615 C83.6515363,24.6666615 84.0871715,25.0682708 84.0871715,25.8714895 L84.0871715,25.8714895 L82.0909092,26.1368386 C80.4010277,26.3615485 79.556087,27.1838915 79.556087,28.6038673 C79.556087,29.2779973 79.7631334,29.8170622 80.1772262,30.2210621 C80.5913189,30.625062 81.1502245,30.8270619 81.8539428,30.8270619 Z M82.6414588,29.2692947 C82.3222692,29.2692947 82.0744137,29.185778 81.8978922,29.0187447 C81.7213707,28.8517114 81.6331099,28.637473 81.6331099,28.3760296 C81.6331099,27.7950441 82.0054977,27.4585568 82.7502734,27.3665674 L82.7502734,27.3665674 L84.0995747,27.1922718 L84.0995747,27.6933717 C84.0995747,28.1533185 83.9629519,28.530959 83.6897063,28.8262933 C83.4164607,29.1216276 83.0670448,29.2692947 82.6414588,29.2692947 Z M89.7468694,30.6539766 L89.7468694,27.1409026 C89.7468694,26.508693 89.8846834,26.0141806 90.1603113,25.6573653 C90.4359392,25.30055 90.8230166,25.1221423 91.3215435,25.1221423 C91.6906452,25.1221423 92.0094149,25.1963791 92.2778525,25.3448525 L92.2778525,25.3448525 L92.2778525,23.2542502 C92.1388401,23.1967766 91.9518925,23.1680398 91.7170096,23.1680398 C90.7822716,23.1680398 90.1351452,23.6661444 89.7756306,24.6623535 L89.7756306,24.6623535 L89.7468694,24.6623535 L89.7468694,23.2973554 L87.4747369,23.2973554 L87.4747369,30.6539766 L89.7468694,30.6539766 Z M96.1714793,30.8703332 C96.8465361,30.8703332 97.3516318,30.7816482 97.6867664,30.6042783 L97.6867664,30.6042783 L97.6867664,28.9216606 C97.4330216,29.0606803 97.1864583,29.1301902 96.9470765,29.1301902 C96.3390466,29.1301902 96.0350316,28.7466876 96.0350316,27.9796824 L96.0350316,27.9796824 L96.0350316,25.0027434 L97.6867664,25.0027434 L97.6867664,23.3273164 L96.0350316,23.3273164 L96.0350316,21.0910169 L93.7728732,21.7381775 L93.7728732,23.3273164 L92.5807516,23.3273164 L92.5807516,25.0027434 L93.7728732,25.0027434 L93.7728732,28.3751694 C93.7728732,30.0386119 94.5724086,30.8703332 96.1714793,30.8703332 Z M100.689813,30.6539766 L100.689813,26.4623107 C100.689813,25.9933801 100.81897,25.6093833 101.077286,25.3103204 C101.335601,25.0112574 101.656103,24.861726 102.038793,24.861726 C102.852007,24.861726 103.258615,25.4311418 103.258615,26.5699734 L103.258615,26.5699734 L103.258615,30.6539766 L105.518874,30.6539766 L105.518874,26.1536778 C105.518874,24.1344049 104.705659,23.1247685 103.079229,23.1247685 C102.041185,23.1247685 101.25428,23.5721666 100.718515,24.4669629 L100.718515,24.4669629 L100.689813,24.4669629 L100.689813,23.3042063 L98.4223786,23.3042063 L98.4223786,30.6539766 L100.689813,30.6539766 Z M110.09412,30.8270619 C111.182181,30.8270619 112.06653,30.6453815 112.747168,30.2820206 L112.747168,30.2820206 L112.747168,28.6468969 C112.124049,29.029382 111.412256,29.2206245 110.611788,29.2206245 C109.341585,29.2206245 108.668137,28.687536 108.591446,27.6213588 L108.591446,27.6213588 L113.394252,27.6213588 L113.394252,26.6675366 C113.394252,25.567892 113.095874,24.7025195 112.499118,24.0714191 C111.902362,23.4403187 111.07673,23.1247685 110.022222,23.1247685 C109.312825,23.1247685 108.676525,23.2944963 108.113322,23.6339518 C107.550118,23.9734073 107.113935,24.4443421 106.804773,25.0467561 C106.49561,25.6491701 106.341029,26.3304716 106.341029,27.0906607 C106.341029,28.2763645 106.669364,29.195524 107.326035,29.8481391 C107.982707,30.5007543 108.905401,30.8270619 110.09412,30.8270619 Z M111.317229,26.2403029 L108.591137,26.2403029 C108.639344,25.7891012 108.800836,25.409461 109.075615,25.1013823 C109.350393,24.7933037 109.668558,24.6392644 110.030109,24.6392644 C110.888189,24.6392644 111.317229,25.1729439 111.317229,26.2403029 L111.317229,26.2403029 Z M116.48854,30.6539766 L116.48854,27.1409026 C116.48854,26.508693 116.626354,26.0141806 116.901982,25.6573653 C117.177609,25.30055 117.564687,25.1221423 118.063214,25.1221423 C118.432316,25.1221423 118.751085,25.1963791 119.019523,25.3448525 L119.019523,25.3448525 L119.019523,23.2542502 C118.88051,23.1967766 118.693563,23.1680398 118.45868,23.1680398 C117.523942,23.1680398 116.876816,23.6661444 116.517301,24.6623535 L116.517301,24.6623535 L116.48854,24.6623535 L116.48854,23.2973554 L114.216407,23.2973554 L114.216407,30.6539766 L116.48854,30.6539766 Z" id="GoldPartner" fill="#737373"></path>
            </g>
        </g>
    </g>
</svg>